<svg width="123" height="130" viewBox="0 0 123 130" fill="none" xmlns="http://www.w3.org/2000/svg">
<path opacity="0.2" fill-rule="evenodd" clip-rule="evenodd" d="M82.2462 125.259L33.3044 98.4325C32.1037 97.8825 30.3352 97.3713 29.1606 98.0831L26.1458 99.9077C25.5389 100.27 23.5356 101.486 24.8798 102.205C28.7952 104.321 70.4415 127.349 74.4221 129.497C75.3645 129.925 76.4084 130.084 77.4369 129.956C78.5839 129.883 79.6993 129.553 80.6997 128.992L81.9069 128.255C82.7552 127.737 83.212 127.167 83.2708 126.617C83.3295 126.068 82.9836 125.595 82.2462 125.259Z" fill="#008BDC"/>
<path fill-rule="evenodd" clip-rule="evenodd" d="M44.1508 3.80938C43.8084 3.60081 43.4237 3.47001 43.0243 3.42638C42.6249 3.38275 42.2207 3.42737 41.8407 3.55704L40.1375 4.22996C39.485 7.46515 76.0283 125.744 76.8048 126.566L78.3514 125.99C78.8264 125.761 79.2329 125.413 79.5305 124.981C79.8281 124.549 80.0066 124.047 80.048 123.525L93.0992 35.1908C93.2774 33.6845 92.8996 32.1653 92.0355 30.9139C91.6012 30.2262 91.0028 29.6551 90.2932 29.251L44.1508 3.80938Z" fill="url(#paint0_linear)"/>
<path fill-rule="evenodd" clip-rule="evenodd" d="M88.558 29.8917L42.4418 4.45654C40.5624 3.42775 38.7744 4.41772 38.4416 6.66941L25.3904 95.0032C25.0576 97.2484 26.304 99.9142 28.1834 100.95L74.3062 126.378C76.1855 127.413 77.9801 126.423 78.3129 124.172L91.364 35.8379C91.6903 33.5927 90.4439 30.9204 88.558 29.8917Z" fill="url(#paint1_linear)"/>
<path fill-rule="evenodd" clip-rule="evenodd" d="M88.5575 29.8917L42.4413 4.45654C40.5619 3.42775 38.7739 4.41772 38.4411 6.66942L37.7886 11.1987L90.711 40.3802L91.3635 35.8509C91.6898 33.5927 90.4434 30.9205 88.5575 29.8917Z" fill="url(#paint2_linear)"/>
<path fill-rule="evenodd" clip-rule="evenodd" d="M99.2005 48.0578C99.344 46.9514 99.0373 46.2784 99.592 45.6508C100.178 45.1816 100.84 44.8141 101.55 44.5638C102.061 44.3971 102.603 44.3472 103.137 44.4178C103.67 44.4884 104.181 44.6777 104.63 44.9714L118.712 53.2729C121.277 54.7482 123.012 58.5204 122.595 61.6844L120.402 77.6404C120.313 78.7577 119.836 79.8097 119.051 80.6168C118.386 81.1863 117.587 81.5802 116.728 81.7621C116.004 81.8527 115.808 81.1991 114.992 80.7268L100.91 72.4253C98.3456 70.95 96.6098 67.1778 96.9948 64.0138L99.2005 48.0578Z" fill="#DFE3E8"/>
<path fill-rule="evenodd" clip-rule="evenodd" d="M98.3335 48.5623C98.7576 45.3854 101.179 44.0331 103.743 45.476L117.793 53.7775C120.357 55.2527 122.1 59.025 121.708 62.189L119.522 78.132C119.104 81.309 116.677 82.6613 114.112 81.2184L100.037 72.9169C97.4721 71.4416 95.7298 67.6694 96.1539 64.5054L98.3335 48.5623Z" fill="#EAFCFF"/>
<path fill-rule="evenodd" clip-rule="evenodd" d="M98.334 48.5623C98.7582 45.3854 101.179 44.0331 103.744 45.476L117.793 53.7775C120.358 55.2527 122.1 59.025 121.709 62.189L121.5 63.6837C121.227 63.4762 120.942 63.286 120.645 63.1143L98.1448 49.947L98.334 48.5623Z" fill="url(#paint3_linear)"/>
<path fill-rule="evenodd" clip-rule="evenodd" d="M83.4746 31.5689C83.6994 31.7156 83.8768 31.9236 83.9852 32.1679C84.0936 32.4122 84.1285 32.6824 84.0857 32.9459C84.0428 33.2094 83.9241 33.455 83.7438 33.6532C83.5635 33.8514 83.3292 33.9936 83.0693 34.0629C82.8093 34.1321 82.5347 34.1254 82.2785 34.0435C82.0223 33.9616 81.7954 33.808 81.6252 33.6012C81.455 33.3945 81.3487 33.1433 81.319 32.878C81.2894 32.6127 81.3377 32.3446 81.4582 32.1059C81.6547 31.7706 81.977 31.5259 82.3547 31.4253C82.7325 31.3247 83.1351 31.3763 83.4746 31.5689Z" fill="#0A3C5F"/>
<path fill-rule="evenodd" clip-rule="evenodd" d="M83.5537 31.9565C83.758 32.1447 83.8833 32.4022 83.9048 32.6779C83.9262 32.9535 83.8422 33.227 83.6694 33.444C83.4966 33.661 83.2478 33.8055 82.9724 33.8488C82.6971 33.8921 82.4153 33.831 82.1833 33.6776C82.3212 33.7974 82.4846 33.8846 82.6613 33.9327C82.8379 33.9809 83.0233 33.9888 83.2035 33.9558C83.3837 33.9228 83.554 33.8498 83.7017 33.7422C83.8494 33.6347 83.9706 33.4953 84.0562 33.3347C84.1609 33.0842 84.1674 32.804 84.0744 32.5491C83.9814 32.2941 83.7957 32.0828 83.5537 31.9565Z" fill="#1466A0"/>
<path fill-rule="evenodd" clip-rule="evenodd" d="M88.3553 22.7585C90.3912 23.7032 90.9002 26.3496 89.8692 29.0672L88.5641 28.2843C89.1057 26.5049 89.1122 24.9261 87.6635 24.2467C86.2149 23.5673 83.5655 24.7838 82.4431 26.9061C81.3207 29.0284 81.5034 31.2089 83.0956 31.953C83.2895 32.0388 83.441 32.1974 83.5169 32.394C83.5927 32.5906 83.5868 32.809 83.5002 33.0012C83.4137 33.1934 83.2537 33.3437 83.0554 33.4189C82.8572 33.4941 82.6369 33.4882 82.4431 33.4024L82.2212 33.3053C79.9177 32.2312 79.4087 29.326 81.0466 26.259C82.6845 23.1921 86.0517 21.6845 88.3553 22.7585Z" fill="#00A5EC"/>
<path fill-rule="evenodd" clip-rule="evenodd" d="M89.5574 28.8837L88.5394 28.282C89.081 26.5026 89.0875 24.9239 87.6388 24.2445C86.1901 23.5651 83.5408 24.7815 82.4184 26.9038C81.296 29.0261 81.4787 31.2066 83.0709 31.9507C83.1951 32.0021 83.303 32.0858 83.3833 32.1928C83.4637 32.2998 83.5136 32.4262 83.5277 32.5589C83.0181 32.4592 82.5479 32.2166 82.1732 31.86C81.7984 31.5033 81.5347 31.0475 81.4134 30.5466C80.7152 28.2755 82.066 25.9009 83.7757 24.5033C85.4854 23.1057 87.3778 23.0992 88.3436 23.6298C90.6993 24.9239 89.9032 27.8161 89.5574 28.8837Z" fill="#006BC2"/>
<path fill-rule="evenodd" clip-rule="evenodd" d="M75.6699 27.0767C75.8948 27.2234 76.0721 27.4314 76.1805 27.6757C76.2889 27.92 76.3238 28.1902 76.281 28.4537C76.2382 28.7172 76.1194 28.9629 75.9391 29.161C75.7588 29.3592 75.5245 29.5015 75.2646 29.5707C75.0046 29.6399 74.73 29.6332 74.4738 29.5513C74.2176 29.4694 73.9907 29.3158 73.8205 29.109C73.6503 28.9023 73.544 28.6511 73.5143 28.3859C73.4847 28.1206 73.533 27.8524 73.6535 27.6137C73.85 27.2784 74.1723 27.0337 74.5501 26.9331C74.9278 26.8325 75.3304 26.8841 75.6699 27.0767Z" fill="#0A3C5F"/>
<path fill-rule="evenodd" clip-rule="evenodd" d="M75.7473 27.4648C75.9516 27.653 76.0769 27.9105 76.0983 28.1862C76.1197 28.4618 76.0357 28.7353 75.863 28.9523C75.6902 29.1693 75.4414 29.3138 75.166 29.3571C74.8906 29.4004 74.6089 29.3393 74.377 29.1859C74.5148 29.3057 74.6782 29.3929 74.8548 29.4411C75.0315 29.4892 75.2169 29.4971 75.3971 29.4641C75.5773 29.4311 75.7476 29.3581 75.8953 29.2505C76.0429 29.143 76.1641 29.0036 76.2497 28.843C76.3544 28.5925 76.3609 28.3123 76.268 28.0574C76.175 27.8024 75.9893 27.5911 75.7473 27.4648Z" fill="#1466A0"/>
<path fill-rule="evenodd" clip-rule="evenodd" d="M80.5506 18.2655C82.5866 19.2102 83.0956 21.8566 82.0645 24.5741L80.7594 23.7912C81.301 22.0119 81.3075 20.4331 79.8588 19.7537C78.4102 19.0743 75.7608 20.2843 74.6384 22.413C73.516 24.5418 73.6987 26.7158 75.2909 27.4599C75.4792 27.541 75.6275 27.6927 75.7033 27.8818C75.7791 28.071 75.7763 28.2822 75.6955 28.4693C75.6591 28.5676 75.6027 28.6574 75.5298 28.7332C75.4569 28.8089 75.369 28.869 75.2717 28.9096C75.1744 28.9503 75.0697 28.9707 74.9641 28.9695C74.8585 28.9683 74.7543 28.9456 74.6579 28.9028L74.4361 28.8122C72.1325 27.7382 71.6235 24.833 73.2615 21.766C74.8994 18.699 78.247 17.185 80.5506 18.2655Z" fill="#00A5EC"/>
<path fill-rule="evenodd" clip-rule="evenodd" d="M81.7507 24.3892L80.7327 23.7939C81.2743 22.0146 81.2809 20.4358 79.8322 19.7564C78.3835 19.077 75.7341 20.287 74.6117 22.4158C73.4893 24.5445 73.672 26.7186 75.2643 27.4626C75.3884 27.5141 75.4963 27.5977 75.5767 27.7047C75.657 27.8117 75.7069 27.9382 75.7211 28.0709C75.2103 27.9715 74.7391 27.7282 74.3642 27.3701C73.9892 27.0121 73.7262 26.5545 73.6068 26.0521C72.9085 23.7875 74.2593 21.4128 75.969 20.0152C77.6788 18.6176 79.5712 18.6112 80.537 19.1417C82.8927 20.4358 82.0966 23.3475 81.7507 24.3892Z" fill="#006BC2"/>
<path fill-rule="evenodd" clip-rule="evenodd" d="M67.8848 22.5913C68.0738 22.6548 68.2468 22.7579 68.3923 22.8933C68.5377 23.0288 68.6522 23.1937 68.7279 23.3767C68.8037 23.5598 68.839 23.7568 68.8315 23.9545C68.824 24.1523 68.7739 24.3461 68.6844 24.523C68.595 24.6999 68.4684 24.8557 68.3131 24.98C68.1578 25.1043 67.9774 25.1941 67.7841 25.2434C67.5909 25.2927 67.3892 25.3004 67.1927 25.2659C66.9962 25.2314 66.8094 25.1556 66.645 25.0435C66.456 24.9799 66.2829 24.8769 66.1375 24.7414C65.9921 24.6059 65.8776 24.4411 65.8018 24.258C65.7261 24.075 65.6907 23.878 65.6983 23.6802C65.7058 23.4825 65.7559 23.2887 65.8454 23.1118C65.9348 22.9349 66.0614 22.7791 66.2167 22.6548C66.372 22.5305 66.5524 22.4407 66.7456 22.3914C66.9389 22.342 67.1406 22.3344 67.3371 22.3688C67.5336 22.4033 67.7204 22.4792 67.8848 22.5913Z" fill="#0A3C5F"/>
<path fill-rule="evenodd" clip-rule="evenodd" d="M67.9624 22.9766C68.1666 23.1647 68.292 23.4222 68.3134 23.6979C68.3348 23.9735 68.2508 24.247 68.078 24.464C67.9053 24.681 67.6565 24.8255 67.3811 24.8688C67.1057 24.9121 66.824 24.851 66.592 24.6977C66.7299 24.8174 66.8933 24.9046 67.0699 24.9528C67.2466 25.0009 67.432 25.0088 67.6122 24.9758C67.7924 24.9428 67.9627 24.8698 68.1104 24.7623C68.258 24.6547 68.3792 24.5154 68.4648 24.3547C68.5695 24.1043 68.576 23.824 68.483 23.5691C68.3901 23.3141 68.2044 23.1028 67.9624 22.9766Z" fill="#1466A0"/>
<path fill-rule="evenodd" clip-rule="evenodd" d="M72.7663 13.7733C74.8023 14.718 75.3113 17.3644 74.2803 20.082L72.9752 19.299C73.5168 17.5197 73.5233 15.9409 72.0746 15.2615C70.6259 14.5821 67.9766 15.7921 66.8542 17.9209C65.7318 20.0496 65.9145 22.2237 67.5067 22.9678C67.695 23.0488 67.8433 23.2005 67.9191 23.3897C67.9949 23.5788 67.9921 23.79 67.9113 23.9771C67.8749 24.0754 67.8185 24.1652 67.7456 24.241C67.6727 24.3167 67.5848 24.3768 67.4875 24.4174C67.3902 24.4581 67.2855 24.4785 67.1799 24.4773C67.0743 24.4761 66.9701 24.4535 66.8737 24.4106L66.6519 24.3201C64.3483 23.246 63.8394 20.3408 65.4773 17.2738C67.1152 14.2069 70.4628 12.6928 72.7663 13.7733Z" fill="#00A5EC"/>
<path fill-rule="evenodd" clip-rule="evenodd" d="M73.9659 19.8931L72.9479 19.2978C73.4895 17.5184 73.496 15.9397 72.0474 15.2603C70.5987 14.5809 67.9493 15.7908 66.8269 17.9196C65.7045 20.0484 65.8873 22.2224 67.4795 22.9665C67.6036 23.018 67.7115 23.1016 67.7919 23.2086C67.8722 23.3156 67.9221 23.442 67.9363 23.5747C67.4255 23.4753 66.9544 23.232 66.5794 22.874C66.2044 22.5159 65.9415 22.0583 65.822 21.556C65.1238 19.2913 66.4354 16.9167 68.1842 15.5126C69.9331 14.1086 71.7863 14.115 72.7521 14.6456C75.1078 15.9397 74.3117 18.8513 73.9659 19.8931Z" fill="#006BC2"/>
<path fill-rule="evenodd" clip-rule="evenodd" d="M60.111 18.1125C60.2941 18.1797 60.4608 18.2843 60.6004 18.4196C60.7399 18.5549 60.8492 18.7178 60.921 18.8978C60.9928 19.0778 61.0256 19.2707 61.0173 19.4641C61.0089 19.6574 60.9596 19.8469 60.8725 20.0201C60.7854 20.1932 60.6625 20.3463 60.5117 20.4693C60.361 20.5922 60.1859 20.6824 59.9977 20.7337C59.8095 20.7851 59.6125 20.7966 59.4196 20.7675C59.2266 20.7384 59.042 20.6693 58.8777 20.5648C58.6947 20.4976 58.5279 20.3929 58.3884 20.2576C58.2488 20.1223 58.1396 19.9594 58.0678 19.7794C57.9959 19.5995 57.9631 19.4066 57.9715 19.2132C57.9799 19.0198 58.0292 18.8304 58.1163 18.6572C58.2034 18.484 58.3263 18.3309 58.477 18.208C58.6278 18.085 58.8029 17.9949 58.9911 17.9435C59.1793 17.8921 59.3763 17.8806 59.5692 17.9097C59.7622 17.9388 59.9468 18.0079 60.111 18.1125Z" fill="#0A3C5F"/>
<path fill-rule="evenodd" clip-rule="evenodd" d="M60.196 18.4993C60.395 18.69 60.5154 18.9472 60.5339 19.221C60.5524 19.4948 60.4676 19.7656 60.296 19.9809C60.1245 20.1962 59.8783 20.3406 59.6054 20.3861C59.3324 20.4315 59.0522 20.3748 58.8191 20.2269C58.9575 20.3466 59.1214 20.4339 59.2986 20.482C59.4757 20.5302 59.6616 20.5381 59.8422 20.5052C60.0229 20.4722 60.1937 20.3992 60.342 20.2916C60.4902 20.1841 60.6121 20.0447 60.6984 19.8839C60.799 19.632 60.8034 19.3524 60.7109 19.0975C60.6184 18.8426 60.4353 18.6299 60.196 18.4993Z" fill="#1466A0"/>
<path fill-rule="evenodd" clip-rule="evenodd" d="M65.0008 9.29731C67.0367 10.2485 67.5457 12.8948 66.5147 15.6059L65.2096 14.8295C65.7577 13.0437 65.7643 11.4649 64.3091 10.792C62.8539 10.1191 60.2175 11.3225 59.0886 13.4513C57.9597 15.5801 58.1424 17.7541 59.7412 18.4982C59.9341 18.584 60.0848 18.7423 60.1601 18.9383C60.2354 19.1342 60.229 19.3518 60.1425 19.5432C60.056 19.7345 59.8963 19.8839 59.6987 19.9586C59.501 20.0332 59.2816 20.0269 59.0886 19.9411C59.0119 19.9154 58.9376 19.8829 58.8667 19.844C56.5502 18.757 56.0412 15.8712 57.6726 12.8043C59.304 9.7373 62.6973 8.22323 65.0008 9.29731Z" fill="#00A5EC"/>
<path fill-rule="evenodd" clip-rule="evenodd" d="M66.1993 15.4233L65.1748 14.828C65.7229 13.0422 65.7295 11.4634 64.2743 10.7905C62.8191 10.1175 60.1827 11.321 59.0538 13.4498C57.9249 15.5786 58.1076 17.7526 59.7064 18.4967C59.8321 18.5466 59.9417 18.6297 60.0234 18.7369C60.105 18.8441 60.1556 18.9713 60.1697 19.1049C59.6585 19.0063 59.187 18.7632 58.8119 18.4051C58.4368 18.0469 58.1741 17.5889 58.0554 17.0862C57.3572 14.8215 58.6688 12.4469 60.4177 11.0428C62.1665 9.63872 64.0198 9.63872 64.9855 10.1758C67.3347 11.4634 66.5451 14.3751 66.1993 15.4233Z" fill="#006BC2"/>
<path fill-rule="evenodd" clip-rule="evenodd" d="M52.3355 13.6273C52.5163 13.7026 52.6802 13.813 52.8174 13.9518C52.9547 14.0907 53.0626 14.2554 53.1349 14.4361C53.2072 14.6169 53.2425 14.8101 53.2385 15.0045C53.2346 15.1989 53.1916 15.3906 53.1121 15.5684C53.0008 15.8618 52.8025 16.1149 52.5434 16.2945C52.2842 16.4741 51.9763 16.5717 51.6602 16.5745C51.3441 16.5773 51.0345 16.4851 50.7721 16.3102C50.5098 16.1352 50.307 15.8856 50.1904 15.5942C50.0739 15.3028 50.049 14.9833 50.119 14.6776C50.1891 14.3719 50.3508 14.0944 50.5829 13.8815C50.815 13.6687 51.1067 13.5305 51.4195 13.4851C51.7323 13.4397 52.0517 13.4893 52.3355 13.6273Z" fill="#0A3C5F"/>
<path fill-rule="evenodd" clip-rule="evenodd" d="M52.4179 14.0156C52.6097 14.2079 52.7238 14.4632 52.7387 14.7332C52.7536 15.0033 52.6682 15.2694 52.4987 15.4812C52.3292 15.6931 52.0873 15.8361 51.8187 15.8832C51.5502 15.9303 51.2735 15.8782 51.041 15.7368C51.1789 15.8565 51.3422 15.9437 51.5189 15.9919C51.6956 16.0401 51.881 16.048 52.0612 16.015C52.2414 15.982 52.4117 15.9089 52.5594 15.8014C52.707 15.6938 52.8282 15.5545 52.9138 15.3938C53.0175 15.1439 53.0242 14.8648 52.9326 14.6104C52.841 14.3559 52.6577 14.144 52.4179 14.0156Z" fill="#1466A0"/>
<path fill-rule="evenodd" clip-rule="evenodd" d="M57.2211 4.80513C59.2506 5.75628 59.7596 8.40268 58.7351 11.1203L57.4299 10.3373C57.9716 8.55797 57.9781 6.97919 56.5294 6.29979C55.0807 5.6204 52.4313 6.83037 51.3089 8.95914C50.1865 11.0879 50.3627 13.262 51.9615 14.0061C52.1545 14.0919 52.3052 14.2502 52.3804 14.4461C52.4557 14.6421 52.4494 14.8597 52.3628 15.051C52.2763 15.2424 52.1166 15.3918 51.919 15.4664C51.7213 15.5411 51.5019 15.5348 51.3089 15.449L51.0871 15.3584C48.7705 14.2843 48.2615 11.3791 49.9255 8.31209C51.5895 5.24511 54.9176 3.73104 57.2211 4.80513Z" fill="#00A5EC"/>
<path fill-rule="evenodd" clip-rule="evenodd" d="M58.4104 10.9374L57.3989 10.3486C57.9405 8.56924 57.947 6.99046 56.4984 6.31106C55.0497 5.63167 52.4003 6.84164 51.2779 8.97041C50.1555 11.0992 50.3317 13.2732 51.9305 14.0173C52.0563 14.0664 52.1657 14.1493 52.2464 14.2568C52.3271 14.3643 52.3759 14.492 52.3873 14.6255C51.8773 14.5258 51.4072 14.2822 51.0333 13.9242C50.6595 13.5661 50.3977 13.1087 50.2795 12.6068C49.5747 10.3421 50.8929 7.96749 52.6418 6.56341C54.3906 5.15933 56.2439 5.1658 57.2097 5.69638C59.5589 6.98399 58.7693 9.89567 58.4104 10.9374Z" fill="#006BC2"/>
<path fill-rule="evenodd" clip-rule="evenodd" d="M44.5611 9.15851C44.7425 9.23314 44.9069 9.34309 45.0447 9.48185C45.1824 9.62061 45.2907 9.78535 45.3631 9.96634C45.4355 10.1473 45.4706 10.3409 45.4662 10.5355C45.4618 10.7302 45.4181 10.922 45.3377 11.0996C45.2263 11.393 45.0281 11.6462 44.7689 11.8257C44.5098 12.0053 44.2019 12.1029 43.8858 12.1057C43.5696 12.1085 43.26 12.0164 42.9977 11.8414C42.7354 11.6664 42.5326 11.4169 42.416 11.1255C42.2994 10.8341 42.2745 10.5145 42.3446 10.2088C42.4146 9.90314 42.5764 9.62563 42.8085 9.41279C43.0406 9.19995 43.3322 9.06175 43.6451 9.01636C43.9579 8.97098 44.2772 9.02053 44.5611 9.15851Z" fill="#0A3C5F"/>
<path fill-rule="evenodd" clip-rule="evenodd" d="M44.6476 9.53857C44.8468 9.72927 44.9673 9.98649 44.9858 10.2603C45.0043 10.5341 44.9195 10.8049 44.7478 11.0202C44.5761 11.2356 44.3298 11.3799 44.0567 11.4254C43.7836 11.4708 43.5033 11.4141 43.27 11.2662C43.4079 11.3859 43.5714 11.4731 43.7482 11.5213C43.9249 11.5695 44.1104 11.5773 44.2907 11.5443C44.471 11.5114 44.6414 11.4383 44.7892 11.3308C44.9369 11.2232 45.0582 11.0839 45.1438 10.9232C45.2479 10.6724 45.2548 10.3923 45.1632 10.1368C45.0717 9.88118 44.888 9.66815 44.6476 9.53857Z" fill="#1466A0"/>
<path fill-rule="evenodd" clip-rule="evenodd" d="M49.4486 0.336836C51.478 1.28799 51.987 3.93438 50.9625 6.64548L49.6574 5.86256C50.199 4.0832 50.2055 2.50442 48.7568 1.8315C47.3082 1.15858 44.6588 2.36207 43.5364 4.49083C42.414 6.6196 42.5902 8.79365 44.1889 9.53775C44.3819 9.62355 44.5326 9.78185 44.6079 9.97782C44.6831 10.1738 44.6768 10.3914 44.5903 10.5827C44.5037 10.7741 44.3441 10.9235 44.1464 10.9981C43.9488 11.0727 43.7294 11.0664 43.5364 10.9806C43.4596 10.955 43.3854 10.9225 43.3145 10.8836C40.9979 9.8095 40.4889 6.91076 42.0942 3.87615C43.6995 0.841528 47.145 -0.73725 49.4486 0.336836Z" fill="#00A5EC"/>
<path fill-rule="evenodd" clip-rule="evenodd" d="M50.6486 6.46599L49.624 5.86424C50.1657 4.08488 50.1722 2.5061 48.7235 1.83318C47.2748 1.16026 44.6254 2.36375 43.503 4.49251C42.3806 6.62128 42.5568 8.79533 44.1556 9.53943C44.2814 9.58846 44.3908 9.6714 44.4715 9.77888C44.5523 9.88637 44.601 10.0141 44.6124 10.1476C44.1024 10.0479 43.6323 9.80433 43.2584 9.44626C42.8846 9.08818 42.6228 8.63077 42.5046 8.12888C41.7998 5.86424 43.118 3.4896 44.8669 2.08553C46.6157 0.681449 48.469 0.681449 49.4348 1.21849C51.784 2.5061 50.9944 5.41778 50.6486 6.46599Z" fill="#006BC2"/>
<path fill-rule="evenodd" clip-rule="evenodd" d="M32.5021 81.629L46.7474 89.3935L46.8061 88.9664L32.5608 81.2019L34.3031 69.4647L48.5484 77.2291L48.6072 76.8021L34.3619 69.0376L36.0977 57.3003L50.343 65.0648L50.4082 64.6377L36.1629 56.8733L37.8987 45.136L52.1375 52.9005L52.2093 52.4734L37.9574 44.7089L39.6932 32.9911L53.9386 40.7555L54.0038 40.3285L39.7585 32.564L41.4943 20.8332L55.7396 28.5977L54.0038 40.2897L53.9386 40.7167L52.2093 52.454L52.1375 52.881L50.4082 64.6183L50.343 65.0454L48.6202 76.7762L48.5615 77.2032L46.8192 88.947L46.7604 89.3741L45.0181 101.105L30.7793 93.3404L32.5151 81.6031L32.5021 81.629ZM70.3504 36.498L56.1116 28.7335L54.3758 40.4902L68.6211 48.2547L68.5624 48.6818L54.317 40.9173L52.5812 52.6546L66.8266 60.419L66.7613 60.8461L52.5356 53.0816L50.7867 64.8254L65.0255 72.5899L64.9603 73.0169L50.7149 65.2524L48.9857 76.9897L63.2244 84.7542L63.1657 85.1812L48.9204 77.4168L47.1846 89.1476L61.4299 96.9121L61.3647 97.3391L47.1259 89.5746L45.3574 101.312L59.6028 109.076L61.3386 97.3326L61.4038 96.9056L63.1396 85.1748L63.1983 84.7477L64.9341 72.991L64.9994 72.564L66.7613 60.8137L66.8266 60.3867L68.5624 48.6494L68.6211 48.2224L70.3569 36.4851L70.3504 36.498ZM84.9807 44.4437L83.2449 56.1809L83.1796 56.608L81.4438 68.3453L81.3786 68.7723L79.6493 80.5096L79.584 80.9367L77.8483 92.6675L77.783 93.0945L76.0276 104.812L75.9689 105.239L74.2266 116.97L59.9878 109.206L61.7236 97.4685L75.9689 105.233L76.0276 104.812L61.7823 97.0479L63.5246 85.3106L77.7634 93.0751L77.8287 92.6481L63.629 84.9289L65.3648 73.1916L79.6102 80.9561L79.6754 80.529L65.4301 72.7646L67.1659 61.0337L81.4047 68.7982L81.4699 68.3712L67.2246 60.6067L68.9604 48.8629L83.2057 56.608L83.271 56.1809L69.0257 48.4165L70.7615 36.6857L85.0068 44.4501L84.9807 44.4437ZM41.1811 20.1797L30.3486 93.5863L74.5855 117.63L85.4179 44.2107L41.1811 20.1797Z" fill="url(#paint4_linear)"/>
<path d="M102.399 64.8402C102.841 65.5195 103.394 66.1209 104.036 66.6195C104.924 67.2278 105.42 66.9431 105.485 66.186C105.486 65.6976 105.363 65.2169 105.127 64.7883C104.89 64.3597 104.549 63.997 104.134 63.7337L103.436 63.2549L103.58 61.5662L104.232 62.0126C104.806 62.3944 105.537 62.5949 105.629 61.7409C105.635 61.3823 105.547 61.0283 105.373 60.7139C105.199 60.3995 104.945 60.1357 104.637 59.9486C104.178 59.6295 103.623 59.4743 103.064 59.5086L102.855 57.5674C103.695 57.5566 104.513 57.8331 105.172 58.3504C105.866 58.804 106.433 59.4247 106.82 60.1545C107.207 60.8843 107.401 61.6995 107.384 62.5238C107.299 63.5979 106.79 64.1349 105.857 63.9602V63.9926C106.323 64.4532 106.687 65.0054 106.926 65.6139C107.164 66.2223 107.271 66.8734 107.24 67.5254C107.09 69.3112 105.851 69.8418 103.978 68.5736C103.133 67.9931 102.418 67.2465 101.876 66.3801L102.399 64.8402Z" fill="url(#paint5_linear)"/>
<path d="M113.921 69.7986C113.667 72.9173 112.616 74.4443 110.724 73.1696C108.831 71.895 108.198 68.9639 108.42 66.0975C108.642 63.2311 109.725 61.4776 111.631 62.7653C113.536 64.0529 114.143 67.0292 113.921 69.7986ZM110.137 67.2751C109.934 69.5786 110.247 70.9568 110.913 71.4097C111.579 71.8626 112.022 70.9568 112.218 68.6598C112.414 66.3628 112.153 65.004 111.468 64.5381C110.783 64.0723 110.319 64.9199 110.137 67.2881V67.2751Z" fill="url(#paint6_linear)"/>
<path opacity="0.2" fill-rule="evenodd" clip-rule="evenodd" d="M2.40666 118.307L17.4155 109.825C19.0534 109.08 21.3961 108.492 23.0666 109.352C24.5871 110.135 27.0929 111.74 28.2022 112.367C29.044 112.84 31.961 114.58 30.1599 115.557C24.8089 118.443 19.5167 121.685 14.0809 124.616C12.8002 125.206 11.3786 125.43 9.97632 125.263C8.4162 125.154 6.89814 124.713 5.52589 123.969L2.86345 122.429C1.68232 121.782 1.05587 120.947 0.997139 120.203C0.938409 119.459 1.40172 118.76 2.40666 118.307Z" fill="#008BDC"/>
<path fill-rule="evenodd" clip-rule="evenodd" d="M21.3195 57.9792C21.1888 57.8619 21.1007 57.7051 21.0689 57.5332C21.037 57.3613 21.0631 57.1838 21.1432 57.0281C21.3326 56.6722 22.1291 56.2258 22.1879 56.1675C22.2466 56.1093 22.4033 55.1064 23.0301 55.3846C22.9661 55.7657 22.8678 56.1403 22.7363 56.504C22.5208 56.821 21.6721 58.0698 21.3195 57.9792Z" fill="#FFC3AE"/>
<path fill-rule="evenodd" clip-rule="evenodd" d="M22.7338 56.4798C22.0813 56.9522 21.2003 56.7839 21.0437 57.528C20.983 57.8638 20.9438 58.2031 20.9263 58.5439C21.2934 58.8817 21.7434 59.1182 22.2314 59.2297C22.2649 59.1377 22.311 59.0506 22.3684 58.9709C22.7313 58.5888 23.1778 58.2944 23.6735 58.1104C24.4566 57.7221 24.5544 57.6121 24.7437 56.0334C24.8807 54.8752 24.946 54.2346 24.4566 53.9887C23.3081 53.4064 23.4125 55.5416 22.7338 56.4798Z" fill="#FFC3AE"/>
<path fill-rule="evenodd" clip-rule="evenodd" d="M21.8646 58.5649C21.8254 58.7525 21.7928 58.9337 21.7732 59.1019C21.9104 59.1575 22.0524 59.2008 22.1974 59.2313C22.2309 59.1393 22.277 59.0522 22.3344 58.9725C22.6973 58.5904 23.1438 58.296 23.6395 58.1119C24.4226 57.7237 24.5204 57.6137 24.7097 56.0349C24.8359 55.4807 24.8559 54.9078 24.7684 54.3462C24.7097 54.1715 24.4095 54.2232 24.3769 54.4691C24.2464 55.5756 24.3116 56.3714 23.8744 57.1479C23.6852 57.5037 22.0473 57.8208 21.8646 58.5649Z" fill="#FFB5A4"/>
<path fill-rule="evenodd" clip-rule="evenodd" d="M22.7613 56.4844C22.8201 56.6979 23.1007 56.7432 22.9114 56.8014C21.9 57.1185 21.6063 57.4032 21.5215 58.1926C21.6999 57.8757 21.941 57.5977 22.2303 57.3754C22.5196 57.153 22.8511 56.9908 23.2051 56.8985L23.7598 57.0279C23.3682 56.8014 23.1203 56.6979 22.7613 56.4844Z" fill="#FFB5A4"/>
<path fill-rule="evenodd" clip-rule="evenodd" d="M13.383 68.5816C13.7811 68.0834 14.7338 67.7728 15.3407 67.2875C16.4101 66.4123 17.5253 65.5937 18.6818 64.8352C18.6818 64.0329 20.2936 59.3678 20.6852 58.4878C21.3222 58.5131 21.9394 58.7148 22.4667 59.0701C22.1078 60.8818 22.1469 63.237 21.651 64.8288C21.6087 65.2143 21.5323 65.5953 21.4226 65.9675C21.0586 66.5792 20.6203 67.1441 20.1174 67.6498C18.9425 68.9652 17.6614 70.1836 16.2869 71.2927C15.2363 72.0368 14.6751 71.9009 14.14 71.5903C12.8871 70.8721 12.5738 69.5586 13.383 68.5816Z" fill="url(#paint7_linear)"/>
<path fill-rule="evenodd" clip-rule="evenodd" d="M10.5833 106.703C10.5283 107.513 10.3341 108.307 10.009 109.052C9.85241 109.22 9.65012 109.324 9.55876 109.518C9.06282 110.559 8.95841 111.569 9.30426 116.926H10.5702L10.7334 115.031C10.89 114.267 11.3207 113.141 11.4969 112.442C11.8819 110.928 11.921 110.171 12.1494 109.052L10.5833 106.703Z" fill="#FFC3AE"/>
<path fill-rule="evenodd" clip-rule="evenodd" d="M7.91969 113.152C7.77422 113.145 7.62984 113.123 7.48878 113.087C7.42349 113.016 7.29944 112.66 7.39084 112.595C7.48225 112.531 7.87399 113.048 7.91969 113.152Z" fill="#141A4E"/>
<path fill-rule="evenodd" clip-rule="evenodd" d="M8.62547 111.013C8.70077 111.502 8.62574 112.003 8.41013 112.449C7.87505 114.183 7.56835 114.287 7.75759 115.037C7.91074 115.568 8.18795 116.056 8.56674 116.461C8.81491 116.824 9.11369 117.151 9.4542 117.431C10.1067 117.884 10.7136 118.078 10.57 117.185C10.5267 116.896 10.4523 116.612 10.3482 116.338C9.87835 115.257 9.33022 114.778 9.63039 113.426C9.84573 112.423 10.1981 111.757 9.74132 111.084L8.62547 111.013Z" fill="#141A4E"/>
<path fill-rule="evenodd" clip-rule="evenodd" d="M8.72896 109.933C8.53913 110.92 8.0888 111.84 7.42383 112.599C7.52824 112.599 7.79579 112.845 7.94588 113.149C9.04219 111.9 9.57729 111.292 9.90358 111.855C9.82522 112.496 9.71194 113.134 9.56424 113.763C9.4886 114.091 9.49984 114.432 9.59687 114.753C10.0276 115.776 10.8172 117.27 10.517 117.762C10.6852 117.465 10.7623 117.125 10.7389 116.785C10.7389 116.073 10.6149 115.116 10.6018 114.527C10.6018 113.731 10.8824 113.045 10.9346 111.939C10.9346 111.635 10.9346 111.337 10.9346 111.033C10.889 110.269 10.8041 109.253 10.2821 108.962C9.96215 108.884 9.62448 108.92 9.32932 109.066C9.16633 109.152 9.02666 109.276 8.92215 109.427C8.81764 109.577 8.75137 109.751 8.72896 109.933Z" fill="#2A398A"/>
<path fill-rule="evenodd" clip-rule="evenodd" d="M16.2201 96.3074L20.0898 85.1912L20.2137 82.1372C20.179 81.7003 20.0427 81.2774 19.8157 80.9014C17.7732 81.4966 16.6312 82.1372 14.4451 82.0596C13.5812 83.2951 13.0347 84.721 12.8529 86.2136C12.7876 88.8794 12.9965 90.6587 12.2003 95.1233C9.75977 103.276 11.0257 102.998 10.0926 108.413C10.0143 108.996 11.8088 109.455 12.4222 109.093L16.2201 96.3074Z" fill="#4352B5"/>
<path fill-rule="evenodd" clip-rule="evenodd" d="M16.2215 96.3074L20.0911 85.1912L20.2151 82.1372C20.1803 81.7003 20.0441 81.2774 19.817 80.9014C19.4059 81.0178 19.0274 81.1408 18.6751 81.2572L16.3977 84.8612C15.5232 86.6277 15.3014 88.9052 14.6749 89.4358C15.3927 91.1634 15.0795 94.6121 14.825 96.5532C14.0876 96.3138 13.4155 96.2103 12.6912 95.9385C13.1871 96.3526 14.1007 96.7603 14.6097 97.2779C13.7426 100.574 13.1791 103.942 12.9261 107.339L16.2215 96.3074Z" fill="#2A398A"/>
<path fill-rule="evenodd" clip-rule="evenodd" d="M17.7307 111.167C17.7307 112.021 16.8889 112.843 16.791 113.399C16.5691 114.693 17.5023 114.008 18.5529 115.638C18.9705 115.638 19.8972 117.139 21.1631 117.223C21.2893 117.198 21.4051 117.136 21.496 117.046C21.5869 116.956 21.6488 116.841 21.6739 116.715C21.699 116.59 21.6862 116.46 21.6372 116.342C21.5881 116.224 21.5049 116.123 21.3981 116.052C21.1436 115.91 20.9217 116.02 20.7129 115.839C20.2757 115.457 19.7601 112.325 19.8646 111.426L17.7307 111.167Z" fill="#FFC3AE"/>
<path fill-rule="evenodd" clip-rule="evenodd" d="M17.2527 112.426C18.2707 112.549 19.2103 115.014 20.013 116.088C20.3915 116.606 21.2007 116.088 20.8744 115.933C21.287 115.901 21.7016 115.901 22.1142 115.933C22.7668 116.03 22.5254 116.67 22.1142 116.962C21.1484 117.609 20.2871 117.997 19.4126 117.563C19.2264 117.457 19.0476 117.338 18.8775 117.207C18.75 117.12 18.63 117.023 18.5186 116.916C18.2665 116.487 18.0483 116.039 17.8661 115.577C17.7812 115.422 17.7095 115.389 17.6507 115.435C17.5946 116.371 17.6143 117.31 17.7095 118.243C17.7095 118.366 17.2461 118.469 17.1613 118.372L16.3521 114.432C16.2559 114.096 16.2933 113.737 16.4565 113.429C16.6967 113.075 16.9628 112.74 17.2527 112.426Z" fill="#2A398A"/>
<path fill-rule="evenodd" clip-rule="evenodd" d="M19.9079 117.755C19.7284 117.726 19.5545 117.669 19.3924 117.587C19.2062 117.48 19.0274 117.361 18.8573 117.231C18.7298 117.144 18.6097 117.047 18.4984 116.94C18.1917 116.577 18.0416 115.898 17.6958 115.432C17.8133 115.367 18.1069 115.374 18.4071 115.859C18.7017 116.563 19.1654 117.185 19.7578 117.671C19.8039 117.705 19.8543 117.734 19.9079 117.755Z" fill="#141A4E"/>
<path fill-rule="evenodd" clip-rule="evenodd" d="M22.9487 93.9511C23.4293 91.7151 23.5526 89.4182 23.3141 87.1442C23.2423 85.9019 23.3728 85.2937 22.9552 84.0902C22.7968 83.6586 22.598 83.2427 22.3614 82.8479C20.4037 83.4432 18.9681 84.032 16.7624 83.9543C16.1418 85.0618 15.8734 86.3293 15.9924 87.5907C16.3448 90.2565 17.2975 92.437 17.5716 97.0116C16.8146 102.35 17.3693 105.947 17.4802 111.111C17.4802 111.693 19.3596 112.152 19.9143 111.79C21.0889 105.734 21.8002 99.8715 22.9487 93.9511Z" fill="url(#paint8_linear)"/>
<path fill-rule="evenodd" clip-rule="evenodd" d="M14.8709 69.1774C12.6 68.9186 12.5935 72.6455 13.3831 74.3925C15.4452 78.9218 14.1139 79.6594 14.3032 81.7364L14.2575 82.5711C16.2152 85.4634 21.8925 85.2369 22.5777 83.147C22.5385 83.0176 22.5124 82.4999 22.4602 82.3317C22.5972 80.5006 21.7098 79.0577 21.8794 77.8024C22.1731 75.706 23.3216 74.9684 22.7017 73.1761C21.8665 72.2356 20.8646 71.4549 19.7455 70.8726C18.2279 70.0408 16.5801 69.4677 14.8709 69.1774Z" fill="url(#paint9_linear)"/>
<path fill-rule="evenodd" clip-rule="evenodd" d="M32.5866 62.1697C31.8883 62.5644 31.027 62.3056 30.7855 63.0303C30.6878 63.3659 30.6115 63.7074 30.5571 64.0526C30.878 64.4288 31.295 64.7126 31.7643 64.8743C31.8085 64.7866 31.8657 64.7059 31.934 64.6349C32.3373 64.2931 32.8154 64.0494 33.3305 63.9232C34.1527 63.6255 34.2636 63.5285 34.6356 61.982C34.9031 60.8432 35.0402 60.2156 34.5834 59.918C33.5067 59.1803 33.3696 61.3156 32.5866 62.1697Z" fill="#FFC3AE"/>
<path fill-rule="evenodd" clip-rule="evenodd" d="M33.324 63.2148C32.6258 63.6095 31.7513 63.4219 31.5099 64.1466C31.449 64.3278 31.3968 64.5025 31.3533 64.6707C31.4847 64.7395 31.6223 64.7958 31.7644 64.8389C31.8086 64.7512 31.8658 64.6705 31.934 64.5995C32.3373 64.2577 32.8155 64.014 33.3305 63.8878C34.1528 63.5901 34.2637 63.4931 34.6356 61.9466C34.8144 61.4133 34.8897 60.8513 34.8575 60.2902C34.8184 60.1155 34.5182 60.1284 34.4595 60.3679C34.1528 61.6166 34.1005 62.3543 33.324 63.2148Z" fill="#FFB5A4"/>
<path fill-rule="evenodd" clip-rule="evenodd" d="M34.3696 60.062C34.2095 60.7184 33.9189 61.3366 33.5147 61.8802C33.3581 62.1066 33.332 62.3072 33.084 62.4366C32.9796 62.4884 32.8165 62.3396 32.6077 62.1843C32.6468 62.3978 32.7643 62.5725 32.5685 62.6113C31.2634 62.8572 31.1525 63.1678 30.9958 64.4295C31.4787 63.4913 31.9682 63.5107 32.7055 63.1354L33.1493 62.7602C33.7719 61.9729 34.1908 61.0466 34.3696 60.062Z" fill="#FFB5A4"/>
<path fill-rule="evenodd" clip-rule="evenodd" d="M20.8077 71.8165C21.3167 71.4283 22.3151 71.3571 23.046 71.0595C24.2991 70.474 25.582 69.9535 26.8896 69.5001C27.0788 68.7172 29.8 64.5891 30.4003 63.832C31.0123 64.0069 31.5606 64.3528 31.9795 64.8285C31.1834 66.4978 30.6744 68.7884 29.7673 70.2119C29.6313 70.5742 29.4654 70.9247 29.2714 71.2601C28.7565 71.7585 28.1824 72.1931 27.5617 72.5542C26.0977 73.5403 24.5547 74.4059 22.9481 75.1423C21.7474 75.6147 21.7083 74.657 21.271 74.23C20.6968 73.0524 19.7897 72.6059 20.8077 71.8165Z" fill="url(#paint10_linear)"/>
<path fill-rule="evenodd" clip-rule="evenodd" d="M14.8709 69.1774C12.6 68.9186 12.5935 72.6455 13.3831 74.3925C15.4452 78.9218 14.1139 79.6594 14.3032 81.7364L14.2575 82.5711C16.2152 85.4634 21.8924 85.2369 22.5776 83.147C22.545 83.0305 22.5189 82.5582 22.4732 82.377C20.4111 84.3181 17.4224 83.8134 15.654 82.7717C15.519 82.3045 15.5327 81.8074 15.6931 81.3482C17.1157 79.8277 20.633 80.3712 21.4813 76.2107C21.6257 75.6074 21.6363 74.9803 21.5124 74.3726C21.3885 73.7648 21.133 73.191 20.7635 72.6908C20.385 72.2314 19.491 72.2767 18.9886 71.5779C18.1663 71.772 16.6328 71.5002 16.4501 71.1703C16.3848 71.0538 16.7111 70.0379 16.6589 69.915C15.2494 69.3003 15.6997 69.268 14.8709 69.1774Z" fill="#F54291"/>
<path fill-rule="evenodd" clip-rule="evenodd" d="M15.7513 70.4115C15.7513 71.1686 18.5899 71.3303 19.4122 70.7221V70.5474C19.2396 69.5887 19.2396 68.6074 19.4122 67.6487C19.9541 67.7182 20.5047 67.6234 20.9913 67.3769C17.6633 65.8111 13.9959 64.9376 13.8132 66.154C14.2831 66.8981 15.1183 67.3122 15.6208 67.7522C15.7922 67.9513 15.917 68.1855 15.9862 68.4381C15.9897 69.1029 15.9108 69.7657 15.7513 70.4115Z" fill="#FFB5A4"/>
<path fill-rule="evenodd" clip-rule="evenodd" d="M20.9244 67.3892C20.7155 67.6027 18.8688 67.4409 18.7318 67.4797C17.4266 67.855 15.9518 68.0815 15.5929 67.7515C15.11 67.3115 14.2552 66.8974 13.7853 66.1533C13.3608 65.5791 13.1271 64.8881 13.1166 64.1762C13.1061 63.4643 13.3193 62.7668 13.7266 62.1805C15.3841 59.9223 18.9471 60.4593 19.8998 62.3552C20.2848 63.1316 20.063 63.2545 20.2326 63.7981C20.5484 64.5059 20.7679 65.2522 20.8852 66.0174C20.97 66.6386 21.0614 67.2468 20.9244 67.3892Z" fill="#FFC3AE"/>
<path fill-rule="evenodd" clip-rule="evenodd" d="M15.9924 69.2266C16.0641 69.8736 17.95 70.3783 19.1442 70.1065C19.2682 70.1065 19.3465 70.0548 19.3922 69.9771C19.7138 70.2754 19.9501 70.6527 20.0774 71.0706C19.0724 72.0283 15.901 71.4653 15.5095 70.3395C15.4662 70.2351 15.4444 70.1232 15.4453 70.0104C15.4463 69.8975 15.4699 69.786 15.5149 69.6823C15.5599 69.5787 15.6253 69.485 15.7073 69.4067C15.7893 69.3284 15.8862 69.2672 15.9924 69.2266Z" fill="#FB7DB9"/>
<path fill-rule="evenodd" clip-rule="evenodd" d="M9.73558 68.4009C8.1564 70.2902 7.55604 73.1825 8.61319 74.4959C9.57244 75.6865 11.5236 76.0747 11.0929 77.0841C10.7405 77.9058 9.78779 78.8699 11.243 79.7305C12.0065 80.1705 13.8532 81.3869 17.116 79.7952C20.3788 78.2035 23.2174 74.7418 20.0133 72.3866C16.6462 69.902 18.2188 68.8214 19.4848 65.9745C20.1373 64.4733 20.5289 61.7105 19.6283 60.9276C18.0883 59.5752 17.4227 60.9276 16.098 60.6558C15.0579 60.3643 13.9448 60.4763 12.9849 60.969C12.025 61.4617 11.2902 62.2982 10.9298 63.3087C10.1532 65.0686 10.995 66.8997 9.73558 68.4009Z" fill="url(#paint11_linear)"/>
<path fill-rule="evenodd" clip-rule="evenodd" d="M10.8115 27.0969C10.9485 26.0681 10.6679 25.4469 11.1835 24.8581C11.7198 24.4235 12.3266 24.0822 12.978 23.8487C13.4532 23.6938 13.9576 23.647 14.4536 23.712C14.9496 23.777 15.4244 23.952 15.8427 24.224L45.4754 41.4029C47.8638 42.7746 49.4821 46.2881 49.0906 49.2386L47.0611 64.0493C46.9771 65.0878 46.5346 66.0659 45.8082 66.8186C45.1972 67.3683 44.4531 67.7517 43.6482 67.9315C42.9957 68.0156 42.7869 67.4074 42.0299 66.9739L12.3972 49.7756C10.0088 48.4039 8.3905 44.8905 8.78204 41.9335L10.8115 27.0969Z" fill="#C4CDD5"/>
<path fill-rule="evenodd" clip-rule="evenodd" d="M10.0092 27.5705C10.4008 24.6136 12.6195 23.326 15.0405 24.6977L44.7058 41.8701C47.0941 43.2354 48.7125 46.7488 48.3209 49.7058L46.2588 64.5488C45.8673 67.4993 43.6095 68.7869 41.2211 67.4217L11.595 50.2493C9.2066 48.8775 7.58826 45.3641 7.97979 42.4072L10.0092 27.5705Z" fill="#DBF5FF"/>
<path fill-rule="evenodd" clip-rule="evenodd" d="M10.0082 27.5705C10.3998 24.6136 12.6185 23.326 15.0395 24.6977L44.7048 41.8701C47.0932 43.2418 48.7115 46.7488 48.32 49.7057L48.0981 51.1098C47.8485 50.915 47.587 50.7356 47.3151 50.5728L9.83203 28.8581L10.0082 27.5705Z" fill="url(#paint12_linear)"/>
<g opacity="0.7">
<path opacity="0.7" fill-rule="evenodd" clip-rule="evenodd" d="M22.7132 43.0775C22.8176 42.2881 23.418 41.9516 24.0575 42.3334L43.3994 53.2101C43.7337 53.4456 43.9988 53.7651 44.1674 54.1358C44.336 54.5065 44.402 54.9151 44.3586 55.3194L44.1564 56.8788C44.0519 57.6682 43.4516 58.0047 42.8512 57.6294L23.4767 46.7526C23.1429 46.5167 22.8782 46.1971 22.7097 45.8265C22.5411 45.4559 22.4748 45.0476 22.5175 44.6433L22.7132 43.0775Z" fill="url(#paint13_linear)"/>
<path opacity="0.7" fill-rule="evenodd" clip-rule="evenodd" d="M21.9699 48.8139C22.0352 48.3481 22.3876 48.1669 22.766 48.374L34.1923 54.7926C34.389 54.9332 34.545 55.1225 34.6446 55.3417C34.7443 55.5608 34.7841 55.8021 34.76 56.0414L34.636 56.9666C34.5773 57.4325 34.2249 57.6137 33.8465 57.4066L22.4202 50.9815C22.2254 50.8399 22.0716 50.65 21.9742 50.4308C21.8769 50.2116 21.8394 49.9708 21.8655 49.7327L21.9699 48.8139Z" fill="url(#paint14_linear)"/>
</g>
<path fill-rule="evenodd" clip-rule="evenodd" d="M56.3349 98.7986L54.8731 98.0027C54.7472 97.9207 54.6434 97.8095 54.5706 97.6787C54.4978 97.5479 54.4583 97.4015 54.4555 97.2521L54.3772 95.311C54.3774 95.162 54.3391 95.0153 54.266 94.8851C54.1929 94.7548 54.0874 94.6453 53.9595 94.5669C53.9087 94.5345 53.8515 94.5132 53.7917 94.5045C53.7319 94.4958 53.671 94.4998 53.6129 94.5163C53.5548 94.5329 53.501 94.5615 53.455 94.6004C53.4089 94.6392 53.3718 94.6874 53.3461 94.7416L52.537 96.191C52.5166 96.2544 52.4814 96.312 52.4343 96.3593C52.3871 96.4066 52.3293 96.4421 52.2657 96.4629C52.202 96.4838 52.1342 96.4893 52.0679 96.4792C52.0017 96.469 51.9388 96.4434 51.8844 96.4045L50.4487 95.5634C49.9202 95.2722 49.5221 95.9775 49.868 96.5921L50.8207 98.3003C50.8927 98.4314 50.9304 98.5782 50.9304 98.7274C50.9304 98.8766 50.8927 99.0234 50.8207 99.1544L49.9985 100.61C49.9034 100.81 49.8841 101.037 49.944 101.25C50.0039 101.462 50.1391 101.647 50.3248 101.768C50.3772 101.8 50.4355 101.82 50.4962 101.828C50.5568 101.835 50.6184 101.831 50.6771 101.814L52.0867 101.406C52.2035 101.376 52.3276 101.392 52.4325 101.451C52.5552 101.526 52.6564 101.631 52.7262 101.756L53.6724 103.464C53.7384 103.591 53.8405 103.697 53.9661 103.768C54.3054 103.955 54.6969 103.716 54.6708 103.179L54.586 101.238C54.5641 101.105 54.5883 100.969 54.6547 100.851C54.7211 100.734 54.8257 100.642 54.9514 100.591L56.361 100.19C56.9026 100.034 56.8635 99.0897 56.3349 98.7986Z" fill="url(#paint15_linear)"/>
<path fill-rule="evenodd" clip-rule="evenodd" d="M41.0895 92.5209C40.6654 94.462 39.0209 95.3614 37.4287 94.462C35.8364 93.5626 34.9163 91.2656 35.3078 89.2857C35.6994 87.3058 37.3765 86.4452 38.9687 87.3446C40.5609 88.244 41.5137 90.5345 41.0895 92.4885V92.5209ZM38.5184 91.7186C38.6057 91.6665 38.6795 91.5949 38.7339 91.5096C38.7883 91.4242 38.8218 91.3273 38.8317 91.2268C38.8646 91.052 38.8557 90.8721 38.8059 90.7013C38.756 90.5305 38.6665 90.3736 38.5445 90.2433L38.923 88.4898C38.9355 88.4292 38.9298 88.3662 38.9066 88.3087C38.8834 88.2512 38.8437 88.2017 38.7925 88.1663C38.6946 88.1146 38.5967 88.1663 38.5706 88.2893L38.1791 90.0686C38.1069 90.0596 38.0336 90.0652 37.9636 90.0849C37.8936 90.1046 37.8284 90.1382 37.7717 90.1834C37.7151 90.2287 37.6682 90.2849 37.6339 90.3485C37.5997 90.4122 37.5787 90.482 37.5722 90.5539C37.5287 90.7634 37.5489 90.981 37.6302 91.1791C37.7115 91.3772 37.8503 91.547 38.029 91.6668C38.0981 91.7035 38.1732 91.7277 38.2509 91.738L38.9687 94.3261C38.9744 94.3518 38.9855 94.3761 39.0012 94.3972C39.0169 94.4184 39.037 94.4361 39.0601 94.4491C39.0898 94.4585 39.1217 94.4585 39.1514 94.4491C39.2297 94.4491 39.2624 94.3326 39.2362 94.2291L38.5184 91.6409V91.7186ZM39.1057 86.7493C37.2264 85.714 35.2948 86.7493 34.7923 89.0592C34.2899 91.3692 35.4123 94.0867 37.2916 95.1155C39.171 96.1443 41.1091 95.1155 41.605 92.8056C42.101 90.4957 40.9851 87.7457 39.1057 86.6975V86.7493Z" fill="#4BD8FB"/>
<path fill-rule="evenodd" clip-rule="evenodd" d="M66.6699 50.3495L55.6352 44.4162C55.602 44.3957 55.5639 44.3842 55.5248 44.3829C55.4857 44.3817 55.4469 44.3907 55.4125 44.4091C55.378 44.4275 55.3491 44.4546 55.3286 44.4877C55.3081 44.5207 55.2968 44.5586 55.2958 44.5974L55.1458 45.5485C55.1318 45.6443 55.1466 45.7421 55.1884 45.8296C55.2302 45.917 55.2971 45.9903 55.3807 46.0403L66.4154 51.9801C66.4491 52.0009 66.4878 52.0124 66.5274 52.0134C66.5671 52.0143 66.6063 52.0047 66.6409 51.9856C66.6756 51.9664 66.7044 51.9384 66.7245 51.9044C66.7445 51.8704 66.7549 51.8318 66.7547 51.7924L66.9048 50.8478C66.9161 50.7513 66.9001 50.6536 66.8586 50.5656C66.8171 50.4777 66.7518 50.4028 66.6699 50.3495Z" fill="#4BD8FB"/>
<path fill-rule="evenodd" clip-rule="evenodd" d="M66.0169 53.8419L60.1438 50.6584C60.1106 50.6378 60.0726 50.6264 60.0334 50.6251C59.9943 50.6239 59.9556 50.6329 59.9211 50.6513C59.8867 50.6697 59.8577 50.6968 59.8372 50.7299C59.8168 50.7629 59.8055 50.8008 59.8045 50.8396L59.7588 51.1243C59.7454 51.2202 59.7597 51.318 59.8001 51.4062C59.8406 51.4945 59.9054 51.5695 59.9872 51.6225L65.8603 54.8059C65.8929 54.827 65.9307 54.8389 65.9697 54.8404C66.0086 54.8418 66.0472 54.8328 66.0814 54.8142C66.1155 54.7956 66.1439 54.7681 66.1636 54.7348C66.1833 54.7014 66.1935 54.6634 66.1931 54.6248L66.2387 54.3465C66.255 54.2502 66.2427 54.1512 66.2033 54.0616C66.1639 53.972 66.0992 53.8956 66.0169 53.8419Z" fill="#4BD8FB"/>
<path fill-rule="evenodd" clip-rule="evenodd" d="M61.249 86.2377L50.2143 80.2979C50.1801 80.2776 50.1411 80.2665 50.1013 80.2657C50.0614 80.2649 50.0221 80.2744 49.9871 80.2934C49.9521 80.3124 49.9228 80.3401 49.9019 80.3738C49.8811 80.4075 49.8696 80.4461 49.8684 80.4856L49.7183 81.4302C49.7071 81.5267 49.7231 81.6244 49.7646 81.7124C49.8061 81.8003 49.8714 81.8752 49.9533 81.9285L61.0206 87.8618C61.0534 87.8847 61.0918 87.898 61.1318 87.9004C61.1718 87.9028 61.2116 87.8941 61.2468 87.8753C61.2821 87.8565 61.3113 87.8283 61.3313 87.7939C61.3513 87.7595 61.3612 87.7203 61.36 87.6806L61.5101 86.7295C61.5207 86.6311 61.5016 86.5318 61.4551 86.4442C61.4086 86.3566 61.3369 86.2847 61.249 86.2377Z" fill="#4BD8FB"/>
<path fill-rule="evenodd" clip-rule="evenodd" d="M55.6617 86.8181L49.7886 83.6347C49.7554 83.6142 49.7173 83.6027 49.6782 83.6014C49.6391 83.6002 49.6004 83.6092 49.5659 83.6276C49.5314 83.646 49.5025 83.6731 49.482 83.7062C49.4615 83.7392 49.4502 83.7771 49.4493 83.8159L49.4036 84.1006C49.3901 84.1966 49.4045 84.2943 49.4449 84.3825C49.4853 84.4708 49.5502 84.5458 49.632 84.5988L55.5051 87.7822C55.5377 87.8033 55.5755 87.8152 55.6145 87.8166C55.6534 87.8181 55.692 87.809 55.7262 87.7904C55.7603 87.7718 55.7888 87.7444 55.8084 87.711C55.8281 87.6777 55.8383 87.6397 55.8379 87.601L55.8836 87.3163C55.8977 87.221 55.8844 87.1236 55.8451 87.0355C55.8059 86.9473 55.7423 86.872 55.6617 86.8181Z" fill="#4BD8FB"/>
<path fill-rule="evenodd" clip-rule="evenodd" d="M78.2285 68.2187L70.0259 63.7477C69.9621 63.7046 69.8876 63.6799 69.8106 63.6763C69.7336 63.6726 69.657 63.6902 69.5894 63.727C69.5219 63.7639 69.4659 63.8186 69.4278 63.885C69.3896 63.9515 69.3708 64.0271 69.3733 64.1035L68.3227 73.0262C68.3063 73.2127 68.3428 73.3999 68.4281 73.5669C68.5135 73.7338 68.6442 73.8738 68.8056 73.9709L77.0082 78.4419C77.0724 78.4854 77.1476 78.5102 77.2252 78.5136C77.3028 78.517 77.3799 78.4988 77.4477 78.4612C77.5155 78.4235 77.5714 78.3679 77.609 78.3004C77.6467 78.233 77.6646 78.1565 77.6608 78.0796L78.7114 69.1634C78.7294 68.9767 78.6936 68.7889 78.6081 68.6216C78.5226 68.4544 78.391 68.3147 78.2285 68.2187Z" fill="url(#paint16_linear)"/>
<path opacity="0.9" fill-rule="evenodd" clip-rule="evenodd" d="M77.1965 69.0895C77.2927 69.1417 77.3648 69.2288 77.3976 69.3326C77.4305 69.4363 77.4215 69.5486 77.3727 69.646L73.3725 74.7511C73.3442 74.7861 73.3038 74.8093 73.2593 74.8165C73.2147 74.8237 73.169 74.8142 73.131 74.79C73.0439 74.7378 72.9772 74.658 72.9418 74.5635L70.5142 68.2743C70.4164 68.0154 70.573 67.8019 70.7818 67.9119L71.9368 68.5137C72.0279 68.5659 72.0972 68.6484 72.1326 68.7466L73.131 71.3348C73.1686 71.4281 73.2348 71.5073 73.3203 71.5612C73.3582 71.5855 73.4039 71.595 73.4485 71.5878C73.4931 71.5806 73.5334 71.5573 73.5617 71.5224L75.8913 68.559C75.9204 68.5252 75.9607 68.5028 76.0049 68.4957C76.0491 68.4886 76.0944 68.4972 76.1328 68.5201L77.1965 69.0895Z" fill="white"/>
<path d="M15.1562 41.8359L16.7884 42.8389L16.7035 43.4859L15.0713 42.483L15.1562 41.8359Z" fill="url(#paint17_linear)" stroke="#DBF5FF" stroke-width="0.3" stroke-miterlimit="10"/>
<path d="M18.7726 44.7885L17.2457 43.8503L17.2065 44.1803C17.2065 44.3679 17.0434 44.4456 16.8933 44.3485L14.7203 43.0092C14.6414 42.953 14.5784 42.8777 14.5373 42.7904C14.4961 42.7032 14.4783 42.607 14.4853 42.5109L14.531 42.1745L13.004 41.2298C12.8125 41.0964 12.6518 40.9241 12.5326 40.7245C12.4133 40.5248 12.3382 40.3022 12.3123 40.0716L11.7838 35.8594L10.8767 43.1709C10.8509 43.4591 10.9011 43.749 11.0224 44.0122C11.1436 44.2753 11.3318 44.5027 11.5684 44.6721L19.2098 49.3825C19.6601 49.6607 20.0843 49.4343 20.1495 48.8843L21.0566 41.5727L19.634 44.5815C19.601 44.6607 19.5497 44.731 19.484 44.7868C19.4184 44.8426 19.3404 44.8821 19.2565 44.9023C19.1725 44.9225 19.0849 44.9227 19.0008 44.903C18.9167 44.8832 18.8385 44.844 18.7726 44.7885Z" fill="url(#paint18_linear)" stroke="#DBF5FF" stroke-width="0.3" stroke-miterlimit="10"/>
<path d="M17.7228 37.6567L15.5498 36.3173C15.0995 36.0391 14.6754 36.2656 14.6101 36.8155L14.5644 37.152L12.3 35.7544L12.8547 40.1737C12.8627 40.2508 12.8872 40.3253 12.9266 40.3923C12.9659 40.4592 13.0193 40.5171 13.0831 40.5619L14.6101 41.5066L14.6558 41.1701C14.6558 40.9825 14.8189 40.9113 14.969 41.0019L17.142 42.3412C17.2211 42.3968 17.2839 42.4722 17.3241 42.5598C17.3642 42.6473 17.3802 42.7438 17.3704 42.8395L17.3313 43.1759L18.8582 44.1206C18.8803 44.139 18.9065 44.152 18.9347 44.1584C18.9628 44.1649 18.9921 44.1646 19.0201 44.1577C19.0481 44.1507 19.0741 44.1373 19.0959 44.1185C19.1176 44.0997 19.1346 44.076 19.1454 44.0494L20.6397 40.8919L18.3688 39.4943L18.4145 39.1578C18.4403 38.8696 18.3901 38.5797 18.2688 38.3166C18.1476 38.0534 17.9594 37.826 17.7228 37.6567ZM15.1126 37.4885L15.1517 37.152C15.1517 36.9644 15.3149 36.8932 15.4649 36.9838L17.638 38.3231C17.7176 38.3798 17.7807 38.4563 17.8208 38.5449C17.8609 38.6336 17.8766 38.7312 17.8663 38.8278L17.8272 39.1578L15.1126 37.4885Z" fill="url(#paint19_linear)" stroke="#DBF5FF" stroke-width="0.3" stroke-miterlimit="10"/>
<defs>
<linearGradient id="paint0_linear" x1="19.2622" y1="43.8999" x2="99.865" y2="86.2533" gradientUnits="userSpaceOnUse">
<stop stop-color="#4BD8FB"/>
<stop offset="1" stop-color="#008BDC"/>
</linearGradient>
<linearGradient id="paint1_linear" x1="72.6487" y1="73.7674" x2="20.0826" y2="42.5" gradientUnits="userSpaceOnUse">
<stop stop-color="#BDF3FF"/>
<stop offset="1" stop-color="#EAFCFF"/>
</linearGradient>
<linearGradient id="paint2_linear" x1="37.769" y1="22.2113" x2="91.4157" y2="22.2113" gradientUnits="userSpaceOnUse">
<stop stop-color="white"/>
<stop offset="1" stop-color="#F4F4F4"/>
</linearGradient>
<linearGradient id="paint3_linear" x1="118.002" y1="57.5562" x2="101.494" y2="48.2878" gradientUnits="userSpaceOnUse">
<stop stop-color="#0025E0"/>
<stop offset="1" stop-color="#0072E7"/>
</linearGradient>
<linearGradient id="paint4_linear" x1="54.4215" y1="90.8105" x2="62.778" y2="36.8452" gradientUnits="userSpaceOnUse">
<stop stop-color="#00A5EC"/>
<stop offset="1" stop-color="#1DC1F6"/>
</linearGradient>
<linearGradient id="paint5_linear" x1="101.909" y1="63.4037" x2="107.404" y2="63.4037" gradientUnits="userSpaceOnUse">
<stop stop-color="#FB7DB9"/>
<stop offset="1" stop-color="#F54291"/>
</linearGradient>
<linearGradient id="paint6_linear" x1="1027.87" y1="1247.84" x2="1075.7" y2="1247.84" gradientUnits="userSpaceOnUse">
<stop stop-color="#FB7DB9"/>
<stop offset="1" stop-color="#F54291"/>
</linearGradient>
<linearGradient id="paint7_linear" x1="19.5171" y1="64.3305" x2="23.5985" y2="62.0299" gradientUnits="userSpaceOnUse">
<stop stop-color="#F54291"/>
<stop offset="1" stop-color="#FB7DB9"/>
</linearGradient>
<linearGradient id="paint8_linear" x1="22.0286" y1="88.6907" x2="15.553" y2="105.015" gradientUnits="userSpaceOnUse">
<stop stop-color="#4352B5"/>
<stop offset="1" stop-color="#2A398A"/>
</linearGradient>
<linearGradient id="paint9_linear" x1="272.348" y1="1745.68" x2="263.365" y2="2056.37" gradientUnits="userSpaceOnUse">
<stop stop-color="#FB7DB9"/>
<stop offset="1" stop-color="#F54291"/>
</linearGradient>
<linearGradient id="paint10_linear" x1="347.9" y1="1323.17" x2="566.882" y2="1270.62" gradientUnits="userSpaceOnUse">
<stop stop-color="#F54291"/>
<stop offset="1" stop-color="#FB7DB9"/>
</linearGradient>
<linearGradient id="paint11_linear" x1="16.5744" y1="62.2669" x2="14.129" y2="77.5242" gradientUnits="userSpaceOnUse">
<stop stop-color="#7A4800"/>
<stop offset="1" stop-color="#2E1900"/>
</linearGradient>
<linearGradient id="paint12_linear" x1="2434.79" y1="1864.25" x2="1231.39" y2="832.55" gradientUnits="userSpaceOnUse">
<stop stop-color="#0025E0"/>
<stop offset="1" stop-color="#0072E7"/>
</linearGradient>
<linearGradient id="paint13_linear" x1="22.4979" y1="49.9814" x2="44.3847" y2="49.9814" gradientUnits="userSpaceOnUse">
<stop stop-color="#38C1C9"/>
<stop offset="1" stop-color="#0598A8"/>
</linearGradient>
<linearGradient id="paint14_linear" x1="434.572" y1="800.59" x2="690.178" y2="800.59" gradientUnits="userSpaceOnUse">
<stop stop-color="#38C1C9"/>
<stop offset="1" stop-color="#0598A8"/>
</linearGradient>
<linearGradient id="paint15_linear" x1="49.7375" y1="99.1609" x2="56.7525" y2="99.1609" gradientUnits="userSpaceOnUse">
<stop stop-color="#008BDC"/>
<stop offset="1" stop-color="#006BC2"/>
</linearGradient>
<linearGradient id="paint16_linear" x1="1235.91" y1="1559.07" x2="1197.56" y2="1773.76" gradientUnits="userSpaceOnUse">
<stop stop-color="#008BDC"/>
<stop offset="1" stop-color="#006BC2"/>
</linearGradient>
<linearGradient id="paint17_linear" x1="273.402" y1="-413.717" x2="277.931" y2="-413.161" gradientUnits="userSpaceOnUse">
<stop stop-color="#38C1C9"/>
<stop offset="1" stop-color="#0598A8"/>
</linearGradient>
<linearGradient id="paint18_linear" x1="2539.44" y1="-7024.72" x2="2692.01" y2="-7005.99" gradientUnits="userSpaceOnUse">
<stop stop-color="#38C1C9"/>
<stop offset="1" stop-color="#0598A8"/>
</linearGradient>
<linearGradient id="paint19_linear" x1="1855.25" y1="-3998.49" x2="1967.57" y2="-3984.7" gradientUnits="userSpaceOnUse">
<stop stop-color="#38C1C9"/>
<stop offset="1" stop-color="#0598A8"/>
</linearGradient>
</defs>
</svg>
