<svg width="121" height="120" viewBox="0 0 121 120" fill="none" xmlns="http://www.w3.org/2000/svg">
<path opacity="0.2" d="M69.2659 117.82C75.965 117.82 81.3956 116.472 81.3956 114.811C81.3956 113.149 75.965 111.802 69.2659 111.802C62.5669 111.802 57.1362 113.149 57.1362 114.811C57.1362 116.472 62.5669 117.82 69.2659 117.82Z" fill="#008BDC"/>
<path opacity="0.2" d="M66.8932 76.0483C72.4887 76.0483 77.0248 74.9244 77.0248 73.5378C77.0248 72.1513 72.4887 71.0273 66.8932 71.0273C61.2978 71.0273 56.7617 72.1513 56.7617 73.5378C56.7617 74.9244 61.2978 76.0483 66.8932 76.0483Z" fill="#008BDC"/>
<path d="M70.6435 73.4597C70.1233 73.0917 69.6491 72.6623 69.2313 72.1809L69.2665 72.6854L69.0966 72.8438L68.8798 72.7206L68.4168 71.4125C68.0301 70.3039 68.7098 70.298 68.7098 70.298C68.7098 70.298 69.7353 69.9402 70.6318 71.4712C71.042 72.1633 72.0264 72.4859 72.5421 72.8789C73.0577 73.2719 72.4717 73.9876 70.6435 73.4597Z" fill="#0A0A0A"/>
<path d="M70.4967 61.6859C70.4967 61.6859 69.4009 68.8654 69.7818 70.1617C70.3678 72.0974 71.862 72.508 71.7565 72.6312C71.2292 73.3585 68.4809 70.8715 68.5161 70.5547C68.5352 70.4186 68.547 70.2815 68.5512 70.1441C68.5512 69.933 66.6292 63.1405 68.8091 61.3867L70.4967 61.6859Z" fill="#FFC3AE"/>
<path d="M69.2311 72.1787L69.2663 72.6832L69.0963 72.8415L68.9321 72.1553L69.2311 72.1787Z" fill="url(#paint0_linear)"/>
<path d="M62.7267 74.1099C62.4219 73.9574 61.8184 72.139 61.8184 72.139L61.6895 72.6259L61.4785 72.7197L61.3203 72.532V71.1477C61.3203 69.9746 61.959 70.1916 61.959 70.1916C61.959 70.1916 63.0489 70.1916 63.3947 71.9513C63.547 72.7373 64.3732 73.3649 64.7307 73.9104C65.0881 74.4559 64.3146 74.89 62.7267 74.1099Z" fill="#0A0A0A"/>
<path d="M66.4888 62.6581C66.4888 62.6581 63.0784 69.0694 63.0081 70.4126C62.9084 72.4304 64.18 73.2985 64.057 73.4041C63.3186 73.9086 61.59 70.7059 61.713 70.4067C61.8422 70.1361 61.9292 69.8473 61.9709 69.5503C62.0529 69.2043 62.3518 62.7403 64.9946 61.8135L66.4888 62.6581Z" fill="#FFC3AE"/>
<path d="M72.5123 50.0359C72.7188 50.0307 72.9224 50.0857 73.0982 50.1942C73.3033 50.3643 73.8659 50.5579 73.6842 50.7397C73.5026 50.9216 73.1334 50.64 73.1744 50.7397C73.2154 50.8395 74.0886 51.8777 73.9714 51.9892C73.8542 52.1006 73.7018 51.9892 73.7018 51.9892C73.7018 51.9892 73.8835 52.2942 73.7838 52.388C73.6842 52.4819 73.5553 52.4232 73.444 52.3C73.444 52.3 73.403 52.5933 73.0865 52.3C73.0865 52.3 73.0455 52.4291 72.8053 52.2179C72.2946 51.7879 71.9658 51.18 71.8853 50.5168C71.8853 50.5168 72.3365 50.0183 72.5123 50.0359Z" fill="#F9A991"/>
<path d="M72.8582 49.9129C72.6882 50.6754 71.821 50.5699 71.821 50.5699L70.2212 47.5138L69.8697 46.8217C69.3987 45.5824 68.9918 44.3196 68.6508 43.0383C68.6508 42.9679 68.6098 42.8917 68.5864 42.8096C68.405 42.2047 68.3161 41.5758 68.3227 40.9443C68.317 40.7771 68.3488 40.6108 68.4157 40.4575C68.4826 40.3043 68.583 40.1679 68.7094 40.0586C68.7941 39.9935 68.8959 39.9547 69.0024 39.9471C70.526 39.8122 70.7252 42.1057 70.7603 42.9269C70.8165 43.9884 70.9576 45.0437 71.1823 46.0826C71.4166 46.7044 72.8582 49.9129 72.8582 49.9129Z" fill="#4DC2F7"/>
<path d="M70.2215 47.5114L69.8699 46.8192C69.3989 45.5799 68.9921 44.3171 68.6511 43.0359C68.6511 42.9655 68.61 42.8892 68.5866 42.8071C68.4053 42.2022 68.3164 41.5733 68.3229 40.9418C68.3172 40.7747 68.349 40.6083 68.4159 40.4551C68.4829 40.3018 68.5832 40.1655 68.7097 40.0561L69.1433 40.0209C70.0047 39.974 70.0398 41.1237 70.6024 42.6194C70.7521 43.0724 70.7716 43.5585 70.6587 44.0221C70.5457 44.4857 70.3049 44.9082 69.9637 45.2413C69.914 46.0073 70.0013 46.7761 70.2215 47.5114Z" fill="#3DA5EC"/>
<path d="M71.1591 61.0886C70.4368 61.8627 69.5352 62.4469 68.5339 62.7896C67.82 63.0085 67.064 63.0535 66.3292 62.9209C65.5943 62.7883 64.9017 62.4818 64.309 62.0271C63.3363 55.2053 64.895 49.3572 65.1118 47.8263C65.1401 47.0453 65.0085 46.2668 64.7251 45.5387C64.6313 45.2395 64.5259 44.9521 64.4204 44.653C64.1215 43.8435 63.8344 43.122 63.6996 42.7173C63.6798 42.6522 63.6661 42.5855 63.6586 42.5179C63.5707 41.8316 65.9556 40.4062 65.9556 40.4062C66.9304 40.1127 67.9386 39.9451 68.9558 39.9076C69.8114 39.8607 69.8524 41.0045 70.4091 42.5061C70.5588 42.9587 70.5789 43.4442 70.467 43.9077C70.3552 44.3711 70.1159 44.7939 69.7762 45.1281C69.5887 45.5739 70.1102 48.3483 70.9482 50.1491C71.7861 51.9498 71.1591 61.0886 71.1591 61.0886Z" fill="#4DC2F7"/>
<path d="M69.4653 37.723C69.4653 37.723 69.6059 41.0782 69.1781 41.1897C68.7504 41.3011 67.3557 41.1251 67.1155 40.5327C66.8752 39.9403 66.6233 38.5853 66.9924 38.1395C67.3616 37.6937 70.0219 36.6437 69.9223 36.7963C69.8227 36.9488 69.4594 37.5412 69.4653 37.723Z" fill="#002966"/>
<path d="M67.8068 40.4762C67.7573 40.8506 67.6669 41.2184 67.5373 41.5731C67.2443 41.9192 65.8438 41.7725 65.5508 41.0452L65.7735 39.0039L67.8068 40.4762Z" fill="#F9A991"/>
<path d="M67.7601 34.4662C68.6859 34.7126 69.6996 36.3198 69.4301 38.144C69.0902 40.4316 68.141 41.6634 66.7932 40.7073C65.8264 40.0386 64.8185 39.2526 65.1935 36.2729C65.2951 35.6929 65.6224 35.1769 66.1036 34.8382C66.5847 34.4995 67.1805 34.3657 67.7601 34.4662Z" fill="#FFC3AE"/>
<path d="M68.9618 34.7259C69.4524 35.2089 69.8011 35.8177 69.9696 36.4856C70.0517 36.9724 69.6063 37.5179 68.4813 37.3889C67.9625 37.2784 67.4602 37.1009 66.987 36.861C66.6765 36.7319 66.6765 38.2511 66.6765 38.6207C66.6765 39.4595 67.532 41.7471 66.4069 42.1401C65.2818 42.5331 64.3326 42.058 64.104 39.9757C63.8755 37.8933 63.8521 34.7963 65.862 34.4502C65.8737 34.4267 67.3269 32.9134 68.9618 34.7259Z" fill="#002966"/>
<path d="M63.3246 52.7924C63.5215 52.8584 63.6948 52.9807 63.8229 53.1443C63.9578 53.3672 64.4092 53.7309 64.2099 53.8658C64.0105 54.0007 63.7233 53.5784 63.7291 53.6898C63.735 53.8013 64.1981 55.0682 64.0516 55.1386C63.905 55.209 63.7936 55.0389 63.7936 55.0389C63.7936 55.0389 63.864 55.3909 63.7408 55.4495C63.6177 55.5082 63.5122 55.4026 63.4477 55.2442C63.4477 55.2442 63.3129 55.5082 63.1194 55.0976C63.1194 55.0976 63.0432 55.2032 62.8849 54.9275C62.5519 54.3468 62.4513 53.6614 62.6035 53.0094C62.6035 53.0094 63.1721 52.7337 63.3246 52.7924Z" fill="#FFC3AE"/>
<path d="M65.7619 51.9528C66.1844 50.1286 66.0476 48.2193 65.3692 46.4742C65.2171 45.7959 65.1308 45.1045 65.1114 44.4095C65.2579 43.5707 65.1642 42.7143 64.3614 42.3741C64.2326 42.3637 64.103 42.3802 63.981 42.4227C63.8589 42.4651 63.747 42.5324 63.6523 42.6205C63.8223 43.207 64.3672 44.4271 64.754 45.6472C65.0137 46.3442 65.1332 47.0858 65.1056 47.8292C64.9005 49.3602 63.3476 55.2082 64.3028 62.03C64.8954 62.4848 65.588 62.7912 66.3229 62.9239C67.0578 63.0565 67.8137 63.0115 68.5276 62.7926C63.8516 62.9627 65.088 54.651 65.7619 51.9528Z" fill="#3DA5EC"/>
<path d="M63.2599 48.6878C63.552 47.664 63.9263 46.6656 64.3791 45.7022C64.7483 44.969 65.6682 42.6813 64.2619 42.083C64.2619 42.083 63.7111 41.9716 63.1778 42.8104C62.8786 43.3624 62.6614 43.9552 62.5333 44.5701C62.5114 44.6473 62.4938 44.7256 62.4805 44.8047C62.1779 46.0956 61.9432 47.4016 61.7773 48.7171C61.8951 50.1967 62.0907 51.6691 62.3633 53.1281C62.5578 53.1956 62.7687 53.1996 62.9656 53.1395C63.1625 53.0794 63.3353 52.9584 63.4591 52.7938C63.4591 52.7938 63.1778 49.3682 63.2599 48.6878Z" fill="#4DC2F7"/>
<path d="M61.8244 72.1388L61.6896 72.6257L61.4785 72.7195L61.5489 72.0156L61.8244 72.1388Z" fill="url(#paint1_linear)"/>
<path opacity="0.2" d="M58.9003 38.5096C64.4958 38.5096 69.0318 37.3857 69.0318 35.9991C69.0318 34.6126 64.4958 33.4886 58.9003 33.4886C53.3048 33.4886 48.7688 34.6126 48.7688 35.9991C48.7688 37.3857 53.3048 38.5096 58.9003 38.5096Z" fill="#008BDC"/>
<path d="M62.6329 16.4267C62.9176 16.4034 63.203 16.4646 63.4532 16.6027C63.7462 16.8256 64.5431 17.0602 64.3322 17.3242C64.1212 17.5881 63.5587 17.2186 63.6231 17.3594C63.6876 17.5002 64.9592 18.8786 64.7951 19.0428C64.631 19.2071 64.4142 19.0428 64.4142 19.0428C64.4142 19.0428 64.6955 19.4593 64.5607 19.5942C64.4259 19.7291 64.2443 19.6587 64.0802 19.4945C64.0802 19.4945 64.045 19.8992 63.5821 19.4945C63.5821 19.4945 63.5353 19.6705 63.1895 19.3948C62.4512 18.8324 61.958 18.0067 61.8125 17.0896C61.8125 17.0896 62.3926 16.4267 62.6329 16.4267Z" fill="#FFC3AE"/>
<path d="M57.7282 12.4487C57.7925 12.6069 57.8689 12.7599 57.9567 12.9063C59.0056 14.7891 61.6718 17.1061 61.6718 17.1061C61.8859 17.0863 62.0904 17.0081 62.263 16.8798C62.4356 16.7515 62.5696 16.5782 62.6504 16.3787C62.9024 15.7101 59.7205 11.6862 59.6561 11.6862C59.6772 10.8386 59.7733 9.99459 59.9432 9.16397C60.1073 8.45423 60.7401 6.74732 59.4803 6.2898C59.3959 6.26176 59.306 6.25458 59.2182 6.26888C59.1305 6.28318 59.0475 6.31854 58.9763 6.37192C57.9099 7.04061 57.0192 10.777 57.7282 12.4487Z" fill="#4DC2F7"/>
<path d="M60.4881 32.4446V32.9959C60.4939 33.0532 60.5128 33.1084 60.5432 33.1572C60.5737 33.206 60.615 33.2472 60.6639 33.2775C61.1327 33.5415 62.4218 34.2747 62.7324 34.4858C62.8789 34.6059 62.9819 34.7709 63.0253 34.9554C63.0687 35.1399 63.0502 35.3336 62.9726 35.5065C62.7734 35.6883 62.6504 35.876 61.9531 35.8115C61.2719 35.6627 60.6123 35.4282 59.9901 35.1135C59.5498 34.9321 59.1375 34.6892 58.7654 34.392C58.6752 34.309 58.6171 34.1968 58.6013 34.0752C58.4989 33.2976 58.4578 32.5131 58.4783 31.7289C58.5486 31.3066 59.826 31.9284 60.2889 32.1689C60.3409 32.1966 60.3859 32.2359 60.4204 32.2836C60.4549 32.3314 60.4781 32.3865 60.4881 32.4446Z" fill="#0A0A0A"/>
<path d="M57.0305 19.4477C57.0598 20.6677 57.2121 21.7939 57.2121 21.7939C57.2121 21.7939 58.2786 32.7393 58.4427 32.8742C58.5839 32.9858 58.748 33.0647 58.9233 33.1052C59.0986 33.1458 59.2806 33.147 59.4564 33.1088C59.8803 33.0155 60.2796 32.8336 60.6284 32.575L60.8452 15.4414C60.8452 15.4414 58.5013 15.9693 57.5578 16.6145C57.0891 16.9313 57.0012 18.2276 57.0305 19.4477Z" fill="#06489A"/>
<path d="M57.0312 19.4456C57.0605 20.6656 57.2129 21.7918 57.2129 21.7918C57.2129 21.7918 58.2794 32.7372 58.4434 32.8721C58.5846 32.9836 58.7488 33.0625 58.924 33.1031C59.0993 33.1437 59.2814 33.1449 59.4572 33.1067C59.3224 32.5905 59.0704 31.1652 58.9591 30.2677C58.7716 28.7426 58.6837 21.9678 58.5548 21.4692C58.3162 20.8611 58.0302 20.2727 57.6993 19.7095C57.6993 19.7095 57.3594 19.4045 57.0312 19.4456Z" fill="#002966"/>
<path d="M56.2399 34.7432V34.972C56.248 35.0925 56.2977 35.2066 56.3805 35.2946C56.7673 35.6758 57.863 36.7375 58.1384 36.9546C58.2509 37.0336 58.3409 37.1407 58.3994 37.2651C58.458 37.3896 58.4832 37.5272 58.4724 37.6643C58.4298 37.7841 58.3547 37.8898 58.2556 37.9693C58.1443 38.0522 58.0172 38.1115 57.8823 38.1438C57.7473 38.1761 57.6072 38.1806 57.4704 38.1571C56.7848 38.0925 55.5895 37.6761 54.0776 36.3973C54.0353 36.3561 54.0016 36.3069 53.9785 36.2525C53.9553 36.1981 53.9432 36.1397 53.9429 36.0806C53.9429 35.6113 54.019 34.4147 54.0894 33.9924C54.1597 33.57 55.566 34.2329 56.0582 34.4851C56.1071 34.5102 56.1491 34.5468 56.1808 34.5918C56.2124 34.6367 56.2327 34.6887 56.2399 34.7432Z" fill="#0A0A0A"/>
<path d="M54.0423 34.6381C54.1808 34.8411 54.3896 34.9853 54.6283 35.0429C54.9088 35.1415 55.21 35.1658 55.5027 35.1134C55.7953 35.0609 56.0694 34.9336 56.2984 34.7437L58.8357 17.5456L56.1284 16.9062L54.8861 16.6129C54.4368 18.0499 54.3206 19.5704 54.5463 21.0591C54.7455 22.4786 53.7845 33.9695 54.0423 34.6381Z" fill="#06489A"/>
<path d="M54.0423 34.6382C54.1808 34.8411 54.3896 34.9854 54.6283 35.0429C55.6538 32.8315 55.5425 27.4175 55.6421 25.8983C55.7651 23.945 56.9957 17.5514 56.9957 17.5514L56.1285 16.9062L54.8862 16.6129C54.4368 18.0499 54.3206 19.5704 54.5463 21.0591C54.7455 22.4786 53.7845 33.9695 54.0423 34.6382Z" fill="#002966"/>
<path d="M60.8399 15.4575C60.7754 16.1321 60.7169 16.5486 60.7169 16.5486C60.5947 16.7153 60.4552 16.8687 60.3008 17.0061C59.8878 17.4183 59.3908 17.7366 58.8437 17.939C58.2966 18.1415 57.7123 18.2234 57.1307 18.1792H57.0721C56.7027 18.1382 56.339 18.0556 55.9881 17.9329C55.7435 17.8355 55.5048 17.7238 55.2732 17.5985C55.074 17.4988 54.9802 17.2055 54.9333 16.789C54.863 16.1673 54.9333 15.264 54.8513 14.2961C54.8513 14.2081 54.8513 14.1202 54.8513 14.0263C54.7224 12.2666 54.3825 10.3133 54.2653 9.09914C54.1979 8.72513 54.224 8.3402 54.3415 7.9788C55.1443 6.86432 57.6112 5.78503 58.9941 5.84956C61.502 5.97274 61.0743 12.7593 60.8399 15.4575Z" fill="#4DC2F7"/>
<path d="M57.7581 17.5967C57.7581 17.7081 57.4417 17.9545 57.1311 18.1832C56.8205 18.412 56.6096 18.5234 56.6096 18.5234L56.4572 18.3827C56.3459 18.2771 56.1877 18.1304 55.9884 17.931C55.6954 17.6436 55.3263 17.2682 54.9337 16.8341C54.8633 16.2124 54.9337 15.309 54.8516 14.3412C54.8516 14.2532 54.8516 14.1652 54.8516 14.0714C54.7227 12.3117 54.3828 10.3584 54.2656 9.14421C54.3819 8.58199 54.6401 8.05896 55.0157 7.625C55.1446 7.72472 55.3087 7.8479 55.4962 8.018C55.4962 8.018 56.2638 8.69255 55.8009 10.3643C55.4083 11.772 55.1739 12.9452 55.8009 13.7136C56.5127 14.8124 57.1171 15.9772 57.6058 17.1919C57.6689 17.3219 57.7199 17.4573 57.7581 17.5967Z" fill="#3DA5EC"/>
<path d="M58.5606 5.97792C58.5606 5.97792 58.3321 6.91056 58.0801 7.06894C57.8098 7.16463 57.5138 7.15778 57.2481 7.04969C56.9825 6.94159 56.7656 6.73974 56.6387 6.48237L56.8262 4.72266L58.5606 5.97792Z" fill="#FFB5A4"/>
<path d="M58.5191 0.840314C59.3102 1.05148 60.1715 2.41818 59.9372 3.97258C59.65 5.92585 58.8414 6.94648 57.6987 6.15461C56.8725 5.56805 56.0111 4.91696 56.3334 2.38299C56.4193 1.88849 56.6977 1.4483 57.1075 1.15907C57.5173 0.869843 58.025 0.755201 58.5191 0.840314Z" fill="#FFC3AE"/>
<path d="M58.5545 0.0657576C58.9645 0.209953 59.336 0.44614 59.6407 0.756233C59.9454 1.06633 60.1752 1.4421 60.3124 1.85479C60.3886 2.00144 60.4296 2.26539 61.127 2.08942C61.0223 2.58895 60.7414 3.03404 60.3358 3.34319C59.9301 3.65235 59.4267 3.80488 58.9178 3.77287C58.1619 3.77287 57.8455 3.54411 57.7459 3.31535C57.6966 3.28561 57.6496 3.25228 57.6052 3.21563C57.3685 3.63632 57.3034 4.13232 57.4236 4.59994L57.2068 4.69379C57.0368 4.63513 56.8962 4.16001 56.8962 4.16001L56.3923 4.33598C55.9463 3.4908 55.7415 2.53898 55.8004 1.58497C55.6715 0.628864 57.0134 -0.25099 58.5545 0.0657576Z" fill="#002966"/>
<path d="M56.8969 4.17076C56.8969 4.17076 56.938 2.99762 56.3458 3.07388C55.7537 3.15013 56.2169 4.72213 56.8149 4.44644L56.8969 4.17076Z" fill="#FFC3AE"/>
<path d="M57.7637 18.017C58.0513 18.0093 58.3346 18.0868 58.5783 18.2399C58.8595 18.4745 59.6389 18.756 59.4162 19.0024C59.1936 19.2487 58.6486 18.8557 58.7013 19.0024C58.7541 19.149 59.9612 20.592 59.7971 20.7621C59.633 20.9322 59.4221 20.7621 59.4221 20.7621C59.4221 20.7621 59.6741 21.1903 59.5334 21.3193C59.3928 21.4484 59.217 21.3663 59.0646 21.1962C59.0646 21.1962 59.006 21.595 58.5665 21.1492C58.5665 21.1492 58.5079 21.3252 58.1798 21.0319C57.4701 20.4318 57.0188 19.581 56.9199 18.6563C56.9199 18.6563 57.5586 17.9818 57.7637 18.017Z" fill="#FFC3AE"/>
<path d="M55.4608 10.6006C55.6659 9.90258 56.3808 8.25433 55.1502 7.71469C53.9197 7.17505 52.361 11.8207 53.0759 13.7857C53.7908 15.7507 56.3398 18.1087 56.5917 18.4782C56.7675 18.7245 57.4883 18.6131 57.7637 17.9561C58.0391 17.2992 55.0858 13.1463 55.0213 13.0994C55.0939 12.2551 55.241 11.4189 55.4608 10.6006Z" fill="#4DC2F7"/>
<path opacity="0.2" d="M105.749 103.541C111.344 103.541 115.88 102.417 115.88 101.03C115.88 99.6435 111.344 98.5195 105.749 98.5195C100.153 98.5195 95.6172 99.6435 95.6172 101.03C95.6172 102.417 100.153 103.541 105.749 103.541Z" fill="#008BDC"/>
<path d="M109.499 100.951C108.979 100.585 108.505 100.158 108.087 99.6782L108.122 100.177L107.952 100.341L107.741 100.218L107.278 98.9098C106.886 97.7953 107.565 97.7953 107.565 97.7953C107.565 97.7953 108.591 97.4317 109.487 98.9685C109.898 99.6606 110.882 99.9774 111.398 100.376C111.913 100.775 111.327 101.479 109.499 100.951Z" fill="#0A0A0A"/>
<path d="M109.352 89.1595C109.352 89.1595 108.257 96.3391 108.637 97.6296C109.223 99.5652 110.718 99.9758 110.612 100.105C110.085 100.826 107.337 98.3452 107.372 98.0226C107.419 97.5298 107.372 97.829 107.413 97.6178C107.454 97.4067 105.485 90.579 107.671 88.8604L109.352 89.1595Z" fill="#FFC3AE"/>
<path d="M108.087 99.6778L108.122 100.176L107.952 100.341L107.788 99.6484L108.087 99.6778Z" fill="url(#paint2_linear)"/>
<path d="M101.589 101.608C101.278 101.455 100.681 99.6371 100.681 99.6371L100.546 100.118L100.335 100.218L100.171 100.03V98.6399C100.171 97.4668 100.81 97.6838 100.81 97.6838C100.81 97.6838 101.9 97.6838 102.245 99.4142C102.403 100.2 103.224 100.834 103.581 101.379C103.939 101.925 103.171 102.382 101.589 101.608Z" fill="#0A0A0A"/>
<path d="M105.35 90.1572C105.35 90.1572 101.934 96.5625 101.87 97.9116C101.764 99.9235 103.042 100.798 102.913 100.897C102.174 101.408 100.446 98.2049 100.569 97.8999C100.694 97.6302 100.779 97.3436 100.821 97.0493C100.903 96.7033 101.202 90.2393 103.844 89.3125L105.35 90.1572Z" fill="#FFC3AE"/>
<path d="M111.368 77.532C111.575 77.5252 111.779 77.5803 111.954 77.6904C112.153 77.8547 112.716 78.0482 112.54 78.2359C112.364 78.4236 111.954 78.1303 112.025 78.2359C112.095 78.3415 112.939 79.368 112.821 79.4853C112.704 79.6026 112.552 79.4853 112.552 79.4853C112.552 79.4853 112.734 79.7962 112.634 79.89C112.534 79.9839 112.405 79.9252 112.294 79.8021C112.294 79.8021 112.259 80.0895 111.937 79.8021C111.937 79.8021 111.896 79.9252 111.655 79.7199C111.145 79.2873 110.816 78.6777 110.735 78.013C110.735 78.013 111.198 77.5086 111.368 77.532Z" fill="#F9A991"/>
<path d="M111.715 77.4284C111.545 78.185 110.683 78.0794 110.683 78.0794C110.683 78.0794 109.681 76.1731 109.078 75.0058C108.931 74.7125 108.808 74.472 108.732 74.3078C108.257 73.0712 107.849 71.8103 107.507 70.5303C107.507 70.4599 107.466 70.3837 107.443 70.2957C107.26 69.689 107.169 69.0582 107.173 68.4245C107.168 68.2575 107.201 68.0914 107.268 67.9383C107.334 67.7851 107.434 67.6487 107.56 67.5388C107.645 67.4737 107.747 67.435 107.853 67.4274C109.377 67.2983 109.576 69.5918 109.611 70.4071C109.661 71.4689 109.8 72.5245 110.027 73.5629C110.297 74.2022 111.715 77.4284 111.715 77.4284Z" fill="#4DC2F7"/>
<path d="M109.078 74.9878C108.931 74.6945 108.808 74.454 108.732 74.2898C108.257 73.0532 107.849 71.7923 107.507 70.5123C107.507 70.4419 107.466 70.3656 107.443 70.2777C107.26 69.6709 107.169 69.0402 107.173 68.4065C107.168 68.2395 107.201 68.0734 107.268 67.9203C107.334 67.7671 107.434 67.6307 107.56 67.5208H107.994C108.855 67.468 108.89 68.6177 109.453 70.1193C109.603 70.5723 109.622 71.0584 109.509 71.522C109.396 71.9856 109.155 72.4081 108.814 72.7412C108.769 73.4998 108.858 74.2603 109.078 74.9878Z" fill="#3DA5EC"/>
<path d="M110.015 88.5727C109.295 89.3497 108.392 89.9344 107.39 90.2738C106.676 90.4927 105.92 90.5377 105.185 90.4051C104.45 90.2725 103.757 89.966 103.165 89.5113C102.192 82.6895 103.751 76.8472 103.967 75.3104C103.995 74.532 103.865 73.756 103.587 73.0287C103.487 72.7295 103.382 72.4421 103.276 72.1371C102.977 71.3335 102.69 70.612 102.555 70.2073C102.555 70.1252 102.52 70.0548 102.514 70.002C102.432 69.3216 104.817 67.8903 104.817 67.8903C105.791 67.6019 106.797 67.4345 107.812 67.3918C108.673 67.3448 108.708 68.4945 109.271 69.9961C109.418 70.4484 109.437 70.9331 109.324 71.3954C109.211 71.8577 108.971 72.2792 108.632 72.6122C108.444 73.0639 108.972 75.8384 109.804 77.6333C110.636 79.4281 110.015 88.5727 110.015 88.5727Z" fill="#4DC2F7"/>
<path d="M108.321 65.2211C108.321 65.2211 108.462 68.5763 108.034 68.6877C107.606 68.7992 106.194 68.6291 105.977 68.0425C105.76 67.456 105.479 66.0951 105.848 65.6435C106.217 65.1918 108.878 64.1477 108.778 64.3002C108.678 64.4527 108.315 65.0158 108.321 65.2211Z" fill="#002966"/>
<path d="M106.663 67.9962C106.613 68.3704 106.522 68.7382 106.394 69.0931C106.101 69.4392 104.7 69.2925 104.407 68.5593L104.63 66.5239L106.663 67.9962Z" fill="#F9A991"/>
<path d="M106.616 61.9667C107.542 62.2131 108.556 63.8144 108.286 65.6386C107.946 67.9321 106.997 69.1581 105.649 68.202C104.683 67.5333 103.675 66.7473 104.05 63.7734C104.151 63.1934 104.479 62.6774 104.96 62.3387C105.441 62 106.037 61.8662 106.616 61.9667Z" fill="#FFC3AE"/>
<path d="M107.818 62.2233C108.312 62.7049 108.662 63.314 108.832 63.983C108.908 64.464 108.462 65.0154 107.343 64.8805C106.823 64.7774 106.32 64.6017 105.849 64.3584C105.532 64.2235 105.532 65.7427 105.532 66.1181C105.532 66.9628 106.388 69.2504 105.263 69.6375C104.138 70.0247 103.189 69.5496 102.96 67.4731C102.731 65.3966 102.708 62.2878 104.718 61.9476C104.73 61.9241 106.195 60.4167 107.818 62.2233Z" fill="#002966"/>
<path d="M102.18 80.3075C102.377 80.3703 102.551 80.4908 102.679 80.6536C102.814 80.8823 103.265 81.2401 103.066 81.375C102.866 81.5099 102.579 81.0876 102.585 81.1991C102.591 81.3105 103.054 82.5834 102.907 82.6479C102.761 82.7124 102.655 82.5482 102.655 82.5482C102.655 82.5482 102.72 82.906 102.597 82.9588C102.474 83.0116 102.368 82.9118 102.304 82.7593C102.304 82.7593 102.169 83.0174 101.981 82.6068C101.981 82.6068 101.899 82.7124 101.747 82.4367C101.407 81.8584 101.304 81.1711 101.459 80.5186C101.459 80.5186 102.028 80.2254 102.18 80.3075Z" fill="#FFC3AE"/>
<path d="M104.618 79.4505C105.041 77.6244 104.904 75.7133 104.226 73.9661C104.073 73.2898 103.987 72.6003 103.968 71.9073C104.114 71.0626 104.021 70.2121 103.218 69.866C103.089 69.856 102.959 69.8733 102.837 69.9168C102.714 69.9602 102.603 70.0289 102.509 70.1183C102.685 70.7048 103.224 71.9249 103.61 73.1449C103.87 73.8421 103.989 74.5836 103.962 75.327C103.763 76.8638 102.204 82.706 103.159 89.5277C103.752 89.9825 104.444 90.2889 105.179 90.4216C105.914 90.5542 106.67 90.5092 107.384 90.2903C102.708 90.4604 103.944 82.1487 104.618 79.4505Z" fill="#3DA5EC"/>
<path d="M102.122 76.1608C102.413 75.1396 102.786 74.1432 103.235 73.1811C103.604 72.4479 104.53 70.1603 103.118 69.5561C103.118 69.5561 102.567 69.4447 102.034 70.2893C101.734 70.8408 101.516 71.4338 101.389 72.049C101.368 72.1282 101.35 72.2085 101.337 72.2895C101.034 73.5803 100.799 74.8863 100.634 76.2019C100.761 77.682 100.966 79.1544 101.249 80.6129C101.444 80.6798 101.655 80.6829 101.852 80.6217C102.049 80.5606 102.222 80.4383 102.345 80.2727C102.345 80.2727 102.034 76.8413 102.122 76.1608Z" fill="#4DC2F7"/>
<path d="M100.68 99.6354L100.546 100.116L100.334 100.21L100.411 99.5122L100.68 99.6354Z" fill="url(#paint3_linear)"/>
<path opacity="0.2" d="M10.8503 95.2749C16.4458 95.2749 20.9819 94.1509 20.9819 92.7644C20.9819 91.3779 16.4458 90.2539 10.8503 90.2539C5.2548 90.2539 0.71875 91.3779 0.71875 92.7644C0.71875 94.1509 5.2548 95.2749 10.8503 95.2749Z" fill="#008BDC"/>
<path d="M14.6066 92.6796C14.0848 92.3114 13.6087 91.8821 13.1886 91.4009L13.2237 91.9053L13.0538 92.0637L12.8428 91.9405L12.3799 90.6325C11.9873 89.518 12.667 89.518 12.667 89.518C12.667 89.518 13.6925 89.1543 14.589 90.6911C14.9992 91.3833 15.9895 91.7059 16.4993 92.0989C17.0091 92.4919 16.429 93.2075 14.6066 92.6796Z" fill="#0A0A0A"/>
<path d="M14.4539 80.9127C14.4539 80.9127 13.3581 88.0923 13.739 89.3886C14.325 91.3184 15.8192 91.7349 15.7137 91.858C15.1864 92.5854 12.4381 90.0983 12.4733 89.7816C12.5202 89.283 12.4733 89.5822 12.5143 89.371C12.5553 89.1598 10.5864 82.3322 12.7721 80.6135L14.4539 80.9127Z" fill="#FFC3AE"/>
<path d="M13.1887 91.4082L13.2238 91.9127L13.0538 92.0711L12.8896 91.3789L13.1887 91.4082Z" fill="url(#paint4_linear)"/>
<path d="M6.69052 93.3336C6.37995 93.1811 5.78226 91.3627 5.78226 91.3627L5.64748 91.8496L5.43653 91.9434L5.27246 91.7557V90.3656C5.27246 89.1924 5.91117 89.4153 5.91117 89.4153C5.91117 89.4153 7.00108 89.4153 7.34681 91.1398C7.50502 91.9258 8.32538 92.5593 8.68283 93.1048C9.04027 93.6503 8.27265 94.1079 6.69052 93.3336Z" fill="#0A0A0A"/>
<path d="M10.4518 81.8876C10.4518 81.8876 7.03562 88.2929 6.97116 89.642C6.86569 91.6539 8.14311 92.5279 8.0142 92.6276C7.27587 93.138 5.54725 89.9353 5.6703 89.6303C5.79606 89.3609 5.88098 89.0742 5.92227 88.7798C6.00431 88.4337 6.30316 81.9697 8.94589 81.043L10.4518 81.8876Z" fill="#FFC3AE"/>
<path d="M16.47 69.2638C16.6767 69.2569 16.8808 69.3121 17.056 69.4222C17.2552 69.5864 17.8236 69.7859 17.642 69.9677C17.4603 70.1495 17.056 69.8621 17.1263 69.9677C17.1966 70.0733 18.0404 71.1056 17.9232 71.2171C17.806 71.3285 17.6537 71.2171 17.6537 71.2171C17.6537 71.2171 17.8412 71.5279 17.7416 71.6218C17.642 71.7156 17.5072 71.657 17.3959 71.5338C17.3959 71.5338 17.3607 71.8212 17.0384 71.5338C17.0384 71.5338 16.9974 71.657 16.7571 71.4517C16.245 71.0211 15.9178 70.4101 15.843 69.7448C15.843 69.7448 16.3001 69.2169 16.47 69.2638Z" fill="#F9A991"/>
<path d="M16.8153 69.1414C16.6454 69.8981 15.784 69.7925 15.784 69.7925C15.784 69.7925 14.782 67.8862 14.196 66.7189C14.0495 66.4315 13.9264 66.1851 13.8503 66.0268C13.3755 64.7882 12.9667 63.5253 12.6256 62.2434C12.6256 62.173 12.5846 62.0968 12.5611 62.0088C12.3778 61.4022 12.287 60.7714 12.2916 60.1376C12.2864 59.9714 12.3184 59.8061 12.3853 59.6538C12.4522 59.5016 12.5523 59.3662 12.6783 59.2578C12.763 59.1927 12.8648 59.154 12.9713 59.1463C14.4948 59.0114 14.6941 61.3049 14.7292 62.1261C14.7799 63.1878 14.919 64.2433 15.1453 65.2818C15.3679 65.9329 16.8153 69.1414 16.8153 69.1414Z" fill="#4DC2F7"/>
<path d="M14.1962 66.7177C14.0498 66.4302 13.9267 66.1839 13.8505 66.0255C13.3758 64.7869 12.967 63.5241 12.6258 62.2422C12.6258 62.1718 12.5848 62.0955 12.5614 62.0075C12.3781 61.4009 12.2872 60.7701 12.2918 60.1364C12.2866 59.9701 12.3186 59.8048 12.3855 59.6526C12.4525 59.5003 12.5526 59.365 12.6786 59.2565L13.1122 59.2214C13.9736 59.1686 14.0087 60.3182 14.5713 61.8198C14.721 62.2724 14.7411 62.7579 14.6293 63.2214C14.5174 63.6848 14.2781 64.1076 13.9384 64.4418C13.8836 65.2098 13.971 65.9814 14.1962 66.7177Z" fill="#3DA5EC"/>
<path d="M15.1158 80.3156C14.3926 81.0886 13.4913 81.6726 12.4906 82.0166C11.7762 82.2347 11.02 82.2788 10.2851 82.1451C9.55026 82.0115 8.85791 81.7039 8.26578 81.2482C7.29307 74.4323 8.85175 68.5842 9.06856 67.0474C9.09576 66.2689 8.96623 65.4929 8.68768 64.7656C8.58806 64.4665 8.48259 64.1791 8.37711 63.874C8.07827 63.0704 7.79114 62.349 7.65637 61.9442C7.65637 61.8621 7.62121 61.7917 7.61535 61.7389C7.53331 61.0585 9.91822 59.6273 9.91822 59.6273C10.8918 59.3383 11.8978 59.1727 12.9125 59.1346C13.7739 59.0818 13.8091 60.2314 14.3716 61.7331C14.5193 62.1863 14.5377 62.6718 14.4249 63.135C14.312 63.5982 14.0724 64.0207 13.7329 64.355C13.5454 64.8008 14.0728 67.5753 14.9048 69.376C15.7369 71.1768 15.1158 80.3156 15.1158 80.3156Z" fill="#4DC2F7"/>
<path d="M13.4288 56.9502C13.4288 56.9502 13.5636 60.3054 13.1358 60.4168C12.7081 60.5283 11.3134 60.3464 11.0791 59.7599C10.8447 59.1733 10.581 57.8125 10.9501 57.3608C11.8428 56.7498 12.8339 56.2974 13.88 56.0234C13.8273 56.1759 13.4171 56.7449 13.4288 56.9502Z" fill="#002966"/>
<path d="M11.7645 59.7252C11.715 60.0996 11.6246 60.4675 11.495 60.8221C11.202 61.1682 9.80153 61.0216 9.50854 60.2942L9.73121 58.2529L11.7645 59.7252Z" fill="#F9A991"/>
<path d="M11.7177 53.6957C12.6435 53.9421 13.6573 55.5434 13.3877 57.3676C13.0479 59.6611 12.0986 60.887 10.7508 59.9309C9.78393 59.2622 8.77603 58.4762 9.15106 55.5023C9.25263 54.9224 9.57992 54.4064 10.0611 54.0677C10.5423 53.729 11.1381 53.5952 11.7177 53.6957Z" fill="#FFC3AE"/>
<path d="M12.9194 53.9672C13.4119 54.4497 13.7626 55.0584 13.9331 55.7268C14.0093 56.2137 13.564 56.7592 12.4447 56.6302C11.9254 56.5215 11.4229 56.3439 10.9505 56.1022C10.634 55.9732 10.634 57.4865 10.634 57.8619C10.634 58.7066 11.4896 60.9942 10.3645 61.3813C9.23939 61.7685 8.2901 61.2992 8.06156 59.2169C7.83303 57.1346 7.80959 54.0375 9.81951 53.6915C9.83123 53.6563 11.2669 52.1371 12.9194 53.9672Z" fill="#002966"/>
<path d="M7.28227 72.037C7.47805 72.1023 7.651 72.2224 7.78061 72.3831C7.91545 72.6119 8.36689 72.9697 8.16755 73.1046C7.96822 73.2395 7.68094 72.823 7.6868 72.9286C7.69266 73.0342 8.15583 74.3129 8.00926 74.3774C7.86268 74.442 7.75715 74.2836 7.75715 74.2836C7.75715 74.2836 7.82165 74.6355 7.69853 74.6883C7.57541 74.7411 7.46988 74.6414 7.40539 74.4889C7.40539 74.4889 7.27054 74.747 7.08293 74.3422C7.08293 74.3422 7.00085 74.442 6.84842 74.1663C6.51171 73.587 6.40894 72.9008 6.56114 72.2482C6.56114 72.2482 7.12983 71.9608 7.28227 72.037Z" fill="#FFC3AE"/>
<path d="M9.71937 71.1809C10.1456 69.357 10.0087 67.4466 9.32677 65.7023C9.17762 65.0235 9.09131 64.3323 9.06894 63.6376C9.21543 62.793 9.12168 61.9425 8.31889 61.5964C8.18966 61.5864 8.05976 61.6037 7.93763 61.6471C7.81549 61.6906 7.70382 61.7592 7.60986 61.8486C7.78566 62.4352 8.32475 63.6552 8.71149 64.8753C8.97034 65.5725 9.0898 66.3139 9.06308 67.0573C8.86385 68.5941 7.30516 74.4422 8.26029 81.2581C8.85243 81.7138 9.54478 82.0213 10.2797 82.155C11.0146 82.2887 11.7707 82.2446 12.4852 82.0265C7.80909 82.1907 9.0455 73.9084 9.71937 71.1809Z" fill="#3DA5EC"/>
<path d="M7.22327 67.8903C7.51476 66.8691 7.88707 65.8727 8.33664 64.9106C8.70581 64.1774 9.63167 61.8898 8.21944 61.2856C8.21944 61.2856 7.66861 61.1742 7.13537 62.0188C6.83485 62.5703 6.61763 63.1633 6.49078 63.7785C6.49078 63.8665 6.44977 63.9486 6.43805 64.019C6.13491 65.3098 5.90018 66.6158 5.73486 67.9314C5.85262 69.411 6.04822 70.8834 6.32085 72.3424C6.51594 72.4093 6.72722 72.4123 6.92419 72.3512C7.12115 72.29 7.2936 72.1678 7.41664 72.0022C7.41664 72.0022 7.16467 68.5942 7.22327 67.8903Z" fill="#4DC2F7"/>
<path d="M5.78194 91.3649L5.6471 91.8517L5.43604 91.9456L5.51225 91.2417L5.78194 91.3649Z" fill="url(#paint5_linear)"/>
<path d="M71.4051 94.38C71.6906 94.3566 71.9765 94.42 72.2254 94.5618C72.5184 94.7789 73.3095 95.0193 73.1044 95.2774C72.8993 95.5355 72.3309 95.1719 72.3954 95.3126C72.4598 95.4534 73.7314 96.8318 73.5673 96.9961C73.4032 97.1603 73.1864 96.9961 73.1864 96.9961C73.1864 96.9961 73.4618 97.4125 73.3329 97.5827C73.204 97.7528 73.0106 97.6413 72.8524 97.4771C72.8524 97.4771 72.8173 97.8818 72.3543 97.4771C72.3543 97.4771 72.3075 97.653 71.9617 97.3832C71.2227 96.8181 70.7278 95.9911 70.5789 95.0721C70.5789 95.0721 71.1648 94.3565 71.4051 94.38Z" fill="#FFC3AE"/>
<path d="M66.4944 90.4031C66.5632 90.5622 66.6415 90.7169 66.7288 90.8665C67.7777 92.7435 70.4439 95.0663 70.4439 95.0663C70.6575 95.0424 70.8607 94.9618 71.0328 94.8329C71.2048 94.704 71.3393 94.5315 71.4225 94.3331C71.6745 93.6644 68.4926 89.6699 68.4282 89.6406C68.4493 88.793 68.5454 87.9489 68.7153 87.1183C68.8794 86.4086 69.5122 84.7017 68.2524 84.2441C68.1668 84.2179 68.0763 84.2117 67.9879 84.226C67.8996 84.2402 67.8156 84.2745 67.7426 84.3263C66.682 85.0008 65.7913 88.7314 66.4944 90.4031Z" fill="url(#paint6_linear)"/>
<path d="M69.278 110.399V110.951C69.2833 111.008 69.302 111.063 69.3325 111.112C69.3631 111.161 69.4046 111.202 69.4538 111.232C69.9226 111.496 71.2117 112.229 71.5164 112.446C71.6652 112.563 71.7703 112.727 71.8149 112.911C71.8596 113.095 71.8411 113.289 71.7626 113.461C71.5633 113.643 71.4344 113.836 70.743 113.766C70.0618 113.617 69.4022 113.383 68.7799 113.068C68.3397 112.887 67.9274 112.644 67.5552 112.347C67.4669 112.261 67.4074 112.151 67.3853 112.03C67.2876 111.252 67.2484 110.467 67.2681 109.684C67.3384 109.267 68.6159 109.883 69.0788 110.129C69.1325 110.153 69.179 110.191 69.2139 110.238C69.2489 110.285 69.2709 110.341 69.278 110.399Z" fill="#0A0A0A"/>
<path d="M65.8033 97.3988C65.8326 98.6189 65.985 99.7451 65.985 99.7451C65.985 99.7451 67.0456 110.685 67.2155 110.825C67.3561 110.936 67.5195 111.014 67.6938 111.053C67.8681 111.093 68.049 111.093 68.2234 111.054C68.6482 110.964 69.0481 110.781 69.3954 110.52L69.6122 93.3867C69.6122 93.3867 67.2683 93.9146 66.3248 94.5599C65.8619 94.8825 65.7623 96.1964 65.8033 97.3988Z" fill="#A4D4FA"/>
<g style="mix-blend-mode:multiply">
<path d="M65.8027 97.4005C65.832 98.6206 65.9844 99.7468 65.9844 99.7468C65.9844 99.7468 67.045 110.686 67.2149 110.827C67.3555 110.938 67.5189 111.015 67.6932 111.055C67.8674 111.094 68.0483 111.095 68.2228 111.056C68.0939 110.54 67.836 109.12 67.7306 108.217C67.5431 106.698 67.4552 99.9228 67.3262 99.4183C67.085 98.8104 66.797 98.222 66.4649 97.6586C66.4649 97.6586 66.1309 97.3712 65.8027 97.4005Z" fill="#D1D3D4"/>
</g>
<path d="M65.0121 112.699V112.928C65.0193 113.048 65.0691 113.163 65.1527 113.25C65.5395 113.632 66.6352 114.693 66.9106 114.916C67.0222 114.995 67.1116 115.101 67.1701 115.224C67.2287 115.347 67.2543 115.484 67.2447 115.62C67.2038 115.741 67.1284 115.847 67.0278 115.925C66.9165 116.008 66.7894 116.067 66.6545 116.099C66.5195 116.132 66.3794 116.136 66.2426 116.113C65.5512 116.048 64.3617 115.632 62.8499 114.353C62.7646 114.267 62.7162 114.151 62.7151 114.03C62.7151 113.567 62.7913 112.365 62.8616 111.948C62.9319 111.532 64.3324 112.189 64.8246 112.435C64.8753 112.46 64.919 112.497 64.9517 112.543C64.9845 112.589 65.0052 112.643 65.0121 112.699Z" fill="#0A0A0A"/>
<path d="M62.8319 112.623C62.9687 112.827 63.1783 112.972 63.4179 113.027C63.6979 113.13 63.9999 113.156 64.2932 113.103C64.5866 113.051 64.8608 112.921 65.088 112.728L67.6311 95.5301L64.9239 94.8907L63.6816 94.5974C63.2323 96.0344 63.116 97.5549 63.3418 99.0436C63.5175 100.434 62.5565 111.93 62.8319 112.623Z" fill="#A4D4FA"/>
<g style="mix-blend-mode:multiply">
<path d="M62.8319 112.623C62.9687 112.827 63.1783 112.972 63.4179 113.027C64.4493 110.822 64.3379 105.402 64.4376 103.883C64.5606 101.929 65.7912 95.5418 65.7912 95.5418L64.9239 94.8907L63.6816 94.5974C63.2323 96.0344 63.116 97.5549 63.3418 99.0436C63.5176 100.434 62.5565 111.93 62.8319 112.623Z" fill="#D1D3D4"/>
</g>
<path d="M69.6119 93.4187C69.5474 94.0874 69.4888 94.5038 69.4888 94.5038C69.3661 94.6719 69.2267 94.8272 69.0728 94.9672C68.6549 95.3707 68.1562 95.6807 67.6097 95.8769C67.0632 96.073 66.4814 96.1508 65.9026 96.1051H65.844C65.4745 96.0642 65.1109 95.9815 64.7599 95.8588C64.5151 95.7803 64.2761 95.6842 64.045 95.5714C63.8458 95.4717 63.752 95.1784 63.7052 94.7619C63.6349 94.1402 63.7052 93.2368 63.6231 92.269C63.6231 92.1869 63.6231 92.093 63.6231 91.9992C63.4884 90.2395 63.1485 88.2862 63.0372 87.0779C62.9706 86.7019 62.9968 86.3153 63.1133 85.9517C63.922 84.8372 66.389 83.7579 67.8012 83.8225C70.274 83.9339 69.8638 90.7146 69.6119 93.4187Z" fill="url(#paint7_linear)"/>
<g style="mix-blend-mode:multiply">
<g style="mix-blend-mode:multiply">
<path d="M66.5295 95.5282C66.5295 95.6397 66.2131 95.886 65.9025 96.1148C65.592 96.3436 65.381 96.455 65.381 96.455L65.2287 96.3142C65.1173 96.2145 64.9591 96.062 64.7599 95.8626C64.4669 95.5752 64.0977 95.1998 63.7051 94.7657C63.6348 94.1439 63.7051 93.2406 63.6231 92.2728C63.6231 92.1907 63.6231 92.0968 63.6231 92.003C63.4883 90.2433 63.1484 88.29 63.0371 87.0817C63.1607 86.5372 63.4163 86.0316 63.7813 85.6094C63.9102 85.7091 64.0743 85.8381 64.2559 86.0024C64.2559 86.0024 65.0294 86.6828 64.5665 88.3486C64.1739 89.7564 63.9395 90.9295 64.5665 91.698C65.276 92.798 65.8803 93.9626 66.3713 95.1763C66.4327 95.2895 66.4855 95.4072 66.5295 95.5282Z" fill="#D1D3D4"/>
</g>
</g>
<path d="M67.3263 83.933C67.3263 83.933 67.1036 84.8715 66.8517 85.0299C66.5778 85.1234 66.2791 85.1123 66.0129 84.9986C65.7468 84.8849 65.5321 84.6766 65.4102 84.414L65.5977 82.6836L67.3263 83.933Z" fill="#FFB5A4"/>
<path d="M67.2916 78.8012C68.0826 79.0065 68.944 80.3732 68.7096 81.9276C68.4225 83.8809 67.6139 84.9074 66.4654 84.1097C65.645 83.5231 64.7836 82.872 65.1059 80.338C65.1484 80.0934 65.2387 79.8595 65.3715 79.6498C65.5044 79.4401 65.6773 79.2586 65.8803 79.1159C66.0834 78.9731 66.3125 78.8719 66.5547 78.8179C66.7968 78.7639 67.0472 78.7582 67.2916 78.8012Z" fill="#FFC3AE"/>
<path d="M67.3267 78.015C67.7344 78.1546 68.1048 78.3858 68.4095 78.6908C68.7142 78.9958 68.9452 79.3665 69.0847 79.7747C69.1608 79.9213 69.196 80.1853 69.8992 80.0093C69.7933 80.5093 69.5113 80.9545 69.1046 81.2636C68.6979 81.5726 68.1938 81.725 67.6842 81.6927C66.9341 81.6634 66.6177 81.464 66.5122 81.2352L66.3657 81.1355C66.1319 81.5571 66.067 82.052 66.1841 82.5198L65.9731 82.6254C65.8032 82.5667 65.6626 82.0916 65.6626 82.0916L65.1586 82.2676C64.7128 81.4204 64.51 80.4662 64.5727 79.5107C64.4438 78.6015 65.7622 77.7041 67.3267 78.015Z" fill="#0A0A0A"/>
<path d="M65.6687 82.1201C65.6687 82.1201 65.7098 80.947 65.0825 81.0232C64.4551 81.0995 64.9535 82.6773 65.5573 82.3958L65.6687 82.1201Z" fill="#FFC3AE"/>
<path d="M69.7236 112.996V115.647C69.7236 115.683 69.7236 115.712 69.7236 115.747C69.7236 116.592 70.8604 117.249 72.3137 117.249C73.7669 117.249 74.9037 116.592 74.9037 115.747V112.996H69.7236Z" fill="#131A4E"/>
<path d="M68.7214 110.675V114.382C68.7185 114.429 68.7185 114.476 68.7214 114.523C68.7214 115.696 70.2977 116.611 72.3193 116.611C74.3409 116.611 75.9172 115.69 75.9172 114.523V110.699L68.7214 110.675Z" fill="url(#paint8_linear)"/>
<path d="M72.3071 112.763C70.2855 112.763 68.7092 111.842 68.7092 110.674C68.7092 109.507 70.2855 108.586 72.3071 108.586C74.3287 108.586 75.905 109.501 75.905 110.674C75.905 111.848 74.3228 112.763 72.3071 112.763Z" fill="#131A4E"/>
<path d="M75.9055 113.207V113.87C75.9055 115.043 74.3233 115.958 72.3075 115.958C70.2918 115.958 68.7096 115.037 68.7096 113.87C68.7036 113.823 68.7036 113.776 68.7096 113.729V113.371C68.8503 114.456 70.3738 115.289 72.2958 115.289C74.3233 115.26 75.9055 114.345 75.9055 113.207Z" fill="#131A4E"/>
<path d="M75.9056 111.802V112.464C75.9056 113.637 74.3234 114.552 72.3077 114.552C70.2919 114.552 68.7098 113.632 68.7098 112.464C68.7042 112.418 68.7042 112.37 68.7098 112.324V111.966C68.8504 113.051 70.374 113.89 72.296 113.89C74.3234 113.89 75.9056 112.969 75.9056 111.802Z" fill="#131A4E"/>
<path d="M78.4424 102.392C78.4453 100.729 77.8023 99.1304 76.6493 97.9336C76.0919 97.3458 75.4214 96.877 74.6782 96.5555C73.935 96.2339 73.1345 96.0662 72.3248 96.0625H72.2896C71.4792 96.0668 70.678 96.2347 69.9339 96.5562C69.1898 96.8777 68.5182 97.3462 67.9593 97.9336C66.8186 99.1356 66.1884 100.734 66.2014 102.392C66.2115 103.201 66.3891 104 66.7229 104.738C67.0331 105.42 67.3997 106.076 67.8187 106.697C68.4475 107.536 68.8401 108.529 68.9554 109.571C68.9965 109.817 69.0375 110.076 69.0668 110.246L69.1312 110.686C69.1312 111.624 70.5669 112.393 72.3482 112.393C74.1296 112.393 75.5652 111.624 75.5652 110.686L75.6121 110.246C75.6121 110.076 75.6824 109.817 75.7235 109.571C75.8388 108.529 76.2314 107.536 76.8603 106.697C77.2793 106.076 77.6458 105.42 77.956 104.738C78.2898 104 78.4674 103.201 78.4775 102.392H78.4424Z" fill="#F7B643"/>
<path d="M73.8666 110.932C73.8153 110.932 73.7661 110.911 73.7298 110.875C73.6936 110.839 73.6732 110.789 73.6732 110.738V103.236L72.425 104.45C72.3892 104.483 72.3421 104.502 72.2932 104.502C72.2443 104.502 72.1971 104.483 72.1613 104.45L70.9425 103.236V110.732C70.9425 110.783 70.9221 110.833 70.8859 110.869C70.8496 110.905 70.8004 110.926 70.7491 110.926C70.724 110.926 70.6991 110.921 70.676 110.911C70.6528 110.901 70.6319 110.887 70.6144 110.869C70.5969 110.851 70.5832 110.829 70.5742 110.806C70.5651 110.782 70.5608 110.757 70.5616 110.732V102.784C70.5627 102.747 70.5743 102.71 70.595 102.679C70.6157 102.648 70.6448 102.624 70.6788 102.608C70.7132 102.594 70.7511 102.59 70.7876 102.597C70.8241 102.605 70.8577 102.623 70.8839 102.649L72.2961 104.045L73.7318 102.649C73.758 102.623 73.7916 102.605 73.8281 102.597C73.8646 102.59 73.9025 102.594 73.9369 102.608C73.9709 102.624 74 102.648 74.0207 102.679C74.0414 102.71 74.053 102.747 74.0541 102.784V110.738C74.0541 110.788 74.0345 110.837 73.9995 110.873C73.9645 110.909 73.9168 110.93 73.8666 110.932Z" fill="#002966"/>
<path d="M76.1869 105.726C76.1322 105.725 76.0783 105.713 76.0286 105.69C75.938 105.647 75.8681 105.57 75.8341 105.476C75.8001 105.381 75.8047 105.277 75.8468 105.186C76.2328 104.45 76.4546 103.638 76.4971 102.808C76.5396 101.978 76.4018 101.148 76.0931 100.376C76.0539 100.284 76.0528 100.179 76.0901 100.086C76.1275 99.9924 76.2002 99.9176 76.2924 99.8776C76.3378 99.8583 76.3866 99.8481 76.436 99.8477C76.4853 99.8472 76.5343 99.8566 76.58 99.8751C76.6258 99.8936 76.6674 99.921 76.7026 99.9556C76.7377 99.9903 76.7657 100.032 76.7849 100.077C77.1405 100.946 77.3022 101.883 77.2587 102.821C77.2151 103.759 76.9674 104.676 76.5328 105.509C76.5011 105.573 76.4519 105.628 76.3908 105.667C76.3296 105.705 76.259 105.725 76.1869 105.726Z" fill="#FEE998"/>
<path d="M75.4668 99.0314C75.4121 99.0309 75.3581 99.0186 75.3085 98.9953C75.2589 98.972 75.2149 98.9384 75.1796 98.8965C74.9171 98.575 74.6158 98.2874 74.2825 98.0401C74.2006 97.9822 74.1448 97.8943 74.1272 97.7955C74.1097 97.6966 74.1318 97.5949 74.1887 97.5122C74.2169 97.471 74.253 97.4358 74.2949 97.4087C74.3368 97.3816 74.3837 97.3632 74.4329 97.3544C74.482 97.3457 74.5324 97.3468 74.5811 97.3578C74.6298 97.3688 74.6758 97.3894 74.7164 97.4184C75.103 97.7054 75.4534 98.0383 75.76 98.4097C75.8239 98.4869 75.8548 98.5863 75.846 98.6862C75.8373 98.7861 75.7895 98.8785 75.7131 98.9435C75.6437 99.0005 75.5566 99.0316 75.4668 99.0314Z" fill="#FEE998"/>
<path d="M66.5357 95.9692C66.8232 95.9615 67.1066 96.039 67.3502 96.1921C67.6315 96.4267 68.4109 96.7082 68.1882 96.9605C67.9655 97.2127 67.4206 96.8138 67.4733 96.9605C67.526 97.1071 68.7332 98.5501 68.5691 98.7202C68.405 98.8903 68.1941 98.7202 68.1941 98.7202C68.1941 98.7202 68.446 99.1484 68.3054 99.3067C68.1648 99.4651 67.9831 99.3478 67.8366 99.1777C67.8366 99.1777 67.778 99.5766 67.3385 99.1308C67.3385 99.1308 67.2799 99.3067 66.9518 99.0135C66.2421 98.4134 65.7908 97.5625 65.6919 96.6378C65.6919 96.6378 66.3013 95.9398 66.5357 95.9692Z" fill="#FFC3AE"/>
<path d="M64.2327 88.5735C64.4319 87.8755 65.1527 86.2272 63.9221 85.6817C62.6916 85.1362 61.1328 89.7877 61.8419 91.7527C62.5509 93.7177 65.1117 96.0757 65.3578 96.4452C65.5336 96.6975 66.2543 96.5802 66.5297 95.9291C66.8051 95.278 63.8518 91.1133 63.7873 91.0664C63.8619 90.2239 64.011 89.3897 64.2327 88.5735Z" fill="url(#paint9_linear)"/>
<path opacity="0.2" d="M34.6413 119.994C40.2367 119.994 44.7728 118.87 44.7728 117.483C44.7728 116.097 40.2367 114.973 34.6413 114.973C29.0458 114.973 24.5098 116.097 24.5098 117.483C24.5098 118.87 29.0458 119.994 34.6413 119.994Z" fill="#008BDC"/>
<path d="M38.3731 97.9099C38.6584 97.8897 38.9433 97.9529 39.1934 98.0918C39.4864 98.3147 40.2775 98.5493 40.0724 98.8132C39.8673 99.0772 39.2989 98.7018 39.3575 98.8132C39.4161 98.9247 40.6994 100.338 40.5294 100.503C40.3595 100.667 40.1486 100.503 40.1486 100.503C40.1486 100.503 40.424 100.919 40.295 101.054C40.1661 101.189 39.9728 101.118 39.8146 100.954C39.8146 100.954 39.7794 101.359 39.3165 100.954C39.3165 100.954 39.2696 101.13 38.9239 100.854C38.1914 100.286 37.7031 99.4597 37.5586 98.5434C37.5586 98.5434 38.1328 97.8923 38.3731 97.9099Z" fill="#FFC3AE"/>
<path d="M33.463 93.9335C33.5305 94.0931 33.6088 94.2479 33.6973 94.3969C34.7462 96.2739 37.4124 98.5967 37.4124 98.5967C37.626 98.5728 37.8293 98.4922 38.0013 98.3633C38.1733 98.2344 38.3078 98.0619 38.391 97.8635C38.643 97.1948 35.4611 93.171 35.3967 93.171C35.4181 92.3234 35.5142 91.4794 35.6838 90.6487C35.8479 89.9448 36.4807 88.232 35.2209 87.7804C35.1357 87.7508 35.0446 87.7428 34.9556 87.7572C34.8667 87.7715 34.7826 87.8077 34.7111 87.8625C33.6505 88.5312 32.7598 92.2618 33.463 93.9335Z" fill="#4DC2F7"/>
<path d="M36.2237 113.938V114.483C36.2294 114.541 36.2482 114.597 36.2787 114.647C36.3091 114.697 36.3504 114.739 36.3995 114.771C36.8682 115.029 38.1574 115.768 38.4621 115.979C38.6108 116.096 38.7159 116.26 38.7605 116.444C38.8052 116.628 38.7867 116.821 38.7082 116.994C38.5089 117.176 38.38 117.369 37.6827 117.305C37.0044 117.15 36.3473 116.913 35.7256 116.601C35.2831 116.424 34.8702 116.181 34.5009 115.879C34.4113 115.797 34.3515 115.688 34.331 115.568C34.2336 114.79 34.1944 114.006 34.2138 113.222C34.2841 112.806 35.5615 113.427 36.0244 113.668C36.0775 113.693 36.1235 113.73 36.1582 113.778C36.193 113.825 36.2155 113.88 36.2237 113.938Z" fill="#0A0A0A"/>
<path d="M32.7717 100.932C32.7717 102.158 32.9475 103.278 32.9475 103.278C32.9475 103.278 34.014 114.218 34.1839 114.359C34.3245 114.469 34.4878 114.547 34.6621 114.586C34.8364 114.626 35.0173 114.626 35.1918 114.587C35.6158 114.498 36.0155 114.318 36.3638 114.059L36.5747 96.9258C36.5747 96.9258 34.2308 97.4478 33.2932 98.0989C32.8303 98.4157 32.7424 99.7179 32.7717 100.932Z" fill="#06489A"/>
<path d="M32.7715 100.93C32.7715 102.156 32.9473 103.276 32.9473 103.276C32.9473 103.276 34.0138 114.215 34.1837 114.356C34.3243 114.467 34.4877 114.544 34.662 114.584C34.8363 114.624 35.0172 114.624 35.1917 114.585C35.0627 114.075 34.8049 112.649 34.6994 111.746C34.5119 110.227 34.424 103.452 34.2951 102.947C34.0551 102.339 33.767 101.75 33.4337 101.188C33.4337 101.188 33.0996 100.889 32.7715 100.93Z" fill="#002966"/>
<path d="M31.9806 116.228V116.456C31.9888 116.579 32.0384 116.695 32.1212 116.785C32.508 117.16 33.6037 118.228 33.8791 118.445C33.9899 118.524 34.0786 118.63 34.1371 118.754C34.1955 118.877 34.2217 119.013 34.2131 119.149C34.1723 119.271 34.0971 119.379 33.9963 119.46C33.8842 119.541 33.7571 119.599 33.6224 119.632C33.4877 119.664 33.3479 119.669 33.2111 119.647C32.5197 119.583 31.3302 119.166 29.8184 117.888C29.734 117.804 29.6856 117.69 29.6836 117.571C29.6836 117.102 29.7598 115.899 29.8301 115.483C29.9004 115.066 31.3009 115.723 31.7931 115.975C31.8426 115.999 31.8856 116.034 31.9183 116.078C31.951 116.122 31.9724 116.173 31.9806 116.228Z" fill="#0A0A0A"/>
<path d="M29.7833 116.142C29.9217 116.345 30.1306 116.489 30.3692 116.547C30.6496 116.646 30.951 116.67 31.2437 116.618C31.5365 116.566 31.8106 116.438 32.0392 116.247L34.5823 99.0493L31.8752 98.41L30.6329 98.1167C30.1804 99.551 30.0641 101.07 30.2931 102.557C30.4864 103.965 29.5255 115.461 29.7833 116.142Z" fill="#06489A"/>
<path d="M29.7833 116.142C29.9217 116.345 30.1306 116.489 30.3692 116.547C31.4006 114.335 31.2892 108.921 31.3888 107.396C31.5119 105.449 32.7424 99.0552 32.7424 99.0552L31.8752 98.41L30.6329 98.1167C30.1804 99.551 30.0641 101.07 30.2931 102.557C30.4864 103.965 29.5255 115.461 29.7833 116.142Z" fill="#002966"/>
<path d="M36.5802 96.9495C36.5157 97.6182 36.4571 98.0347 36.4571 98.0347C36.3362 98.2042 36.1967 98.3597 36.0411 98.4981C35.6254 98.9047 35.1271 99.2168 34.58 99.4132C34.033 99.6095 33.45 99.6855 32.871 99.636H32.8065C32.4397 99.5938 32.0783 99.5132 31.7283 99.3955C31.4858 99.3195 31.2472 99.2314 31.0134 99.1315C30.8083 99.0318 30.7204 98.7327 30.6735 98.3221C30.6032 97.6945 30.6735 96.7911 30.5915 95.8292C30.5915 95.7412 30.5915 95.6473 30.5915 95.5594C30.4567 93.7997 30.1169 91.8464 30.0348 90.6322C29.9663 90.2582 29.9925 89.8731 30.111 89.5119C30.9197 88.3974 33.3866 87.3122 34.7695 87.3768C37.2424 87.4647 36.838 94.2513 36.5802 96.9495Z" fill="#4DC2F7"/>
<path d="M33.4983 99.0653C33.4983 99.1709 33.1819 99.4231 32.8713 99.6519C32.5607 99.8806 32.3498 99.9921 32.3498 99.9921L32.1974 99.8572L31.7286 99.4055C31.4356 99.1181 31.0665 98.7368 30.6739 98.3086C30.6036 97.681 30.6739 96.7777 30.5918 95.8157C30.5918 95.7277 30.5918 95.6339 30.5918 95.5459C30.4571 93.7862 30.1172 91.8329 30.0352 90.6188C30.1567 90.0753 30.4125 89.5711 30.7793 89.1523C30.9455 89.2734 31.104 89.4047 31.254 89.5453C31.254 89.5453 32.0275 90.2199 31.5646 91.8916C31.172 93.2935 30.9376 94.4666 31.5646 95.235C32.2729 96.3378 32.8771 97.5043 33.3694 98.7192C33.4214 98.831 33.4645 98.9467 33.4983 99.0653Z" fill="#3DA5EC"/>
<path d="M34.295 87.4699C34.295 87.4699 34.0724 88.4025 33.8204 88.5609C33.55 88.6566 33.254 88.6497 32.9884 88.5416C32.7227 88.4335 32.5059 88.2317 32.3789 87.9743L32.5664 86.2146L34.295 87.4699Z" fill="#FFB5A4"/>
<path d="M34.2601 82.3325C35.0511 82.5436 35.9125 83.9104 35.6781 85.4589C35.391 87.4122 34.5824 88.4387 33.4339 87.6468C32.6135 87.0602 31.7521 86.4091 32.0744 83.8693C32.1169 83.6246 32.2072 83.3907 32.34 83.181C32.4729 82.9713 32.6458 82.7899 32.8488 82.6471C33.0519 82.5044 33.281 82.4031 33.5232 82.3491C33.7653 82.2951 34.0157 82.2895 34.2601 82.3325Z" fill="#FFC3AE"/>
<path d="M34.2952 81.5341C34.7056 81.6775 35.0775 81.9134 35.3823 82.2236C35.6871 82.5338 35.9166 82.91 36.0531 83.3231C36.1234 83.4639 36.1644 83.7337 36.8676 83.5577C36.7606 84.0572 36.4783 84.5016 36.0719 84.8105C35.6655 85.1194 35.1619 85.2722 34.6526 85.2412C33.9026 85.206 33.5861 85.0066 33.4807 84.7837C33.4292 84.7523 33.3802 84.717 33.3342 84.6781C33.1003 85.0997 33.0354 85.5946 33.1525 86.0624L32.9474 86.2266C32.7775 86.1621 32.6368 85.6928 32.6368 85.6928L32.127 85.8688C31.683 85.0189 31.4803 84.0633 31.5411 83.1061C31.4121 82.1206 32.7482 81.2408 34.2952 81.5341Z" fill="#002966"/>
<path d="M32.6376 85.6396C32.6376 85.6396 32.6786 84.4665 32.0806 84.5427C31.4826 84.619 31.9516 86.191 32.5496 85.9153L32.6376 85.6396Z" fill="#FFC3AE"/>
<path d="M33.5337 99.5062C33.8212 99.4985 34.1046 99.576 34.3482 99.7291C34.6295 99.9637 35.4088 100.239 35.1861 100.492C34.9635 100.744 34.4185 100.345 34.4713 100.492C34.524 100.638 35.7311 102.081 35.567 102.251C35.403 102.421 35.192 102.251 35.192 102.251C35.192 102.251 35.444 102.685 35.3033 102.838C35.1627 102.99 34.9811 102.885 34.8346 102.709C34.8346 102.709 34.776 103.114 34.3365 102.668C34.3365 102.668 34.2779 102.838 33.9498 102.55C33.2402 101.948 32.7892 101.095 32.6899 100.169C32.6899 100.169 33.27 99.471 33.5337 99.5062Z" fill="#FFC3AE"/>
<path d="M31.1897 92.0927C31.3889 91.3947 32.1097 89.7464 30.8791 89.2009C29.6486 88.6554 28.0899 93.3069 28.7989 95.2777C29.5079 97.2486 32.0686 99.5949 32.3147 99.9703C32.4905 100.222 33.2113 100.111 33.4867 99.4541C33.7621 98.7971 30.8088 94.6442 30.7443 94.5914C30.8191 93.747 30.9681 92.9109 31.1897 92.0927Z" fill="#4DC2F7"/>
<path opacity="0.2" d="M110.525 54.5753C116.121 54.5753 120.657 53.4513 120.657 52.0647C120.657 50.6782 116.121 49.5542 110.525 49.5542C104.93 49.5542 100.394 50.6782 100.394 52.0647C100.394 53.4513 104.93 54.5753 110.525 54.5753Z" fill="#008BDC"/>
<path d="M114.257 32.4892C114.544 32.4657 114.832 32.529 115.083 32.671C115.376 32.888 116.167 33.1226 115.962 33.3866C115.757 33.6505 115.183 33.281 115.247 33.4218C115.312 33.5626 116.583 34.941 116.419 35.1052C116.255 35.2695 116.044 35.1052 116.044 35.1052C116.044 35.1052 116.32 35.5217 116.185 35.6918C116.05 35.8619 115.868 35.7504 115.71 35.5862C115.71 35.5862 115.669 35.9909 115.212 35.5862C115.212 35.5862 115.159 35.7622 114.819 35.4924C114.079 34.9288 113.583 34.1011 113.437 33.1813C113.437 33.1813 114.023 32.4657 114.257 32.4892Z" fill="#FFC3AE"/>
<path d="M109.352 28.5127C109.417 28.6594 109.493 28.8178 109.581 28.9761C110.63 30.8531 113.296 33.176 113.296 33.176C113.51 33.1518 113.714 33.0712 113.887 32.9424C114.06 32.8136 114.196 32.6412 114.28 32.4428C114.527 31.7741 111.351 27.7502 111.286 27.7502C111.305 26.9027 111.399 26.0586 111.567 25.2279C111.737 24.5182 112.364 22.8113 111.11 22.3538C111.025 22.3276 110.934 22.3213 110.846 22.3356C110.757 22.3498 110.674 22.3841 110.6 22.4359C109.54 23.1046 108.649 26.841 109.352 28.5127Z" fill="#4DC2F7"/>
<path d="M112.113 48.5088V49.0602C112.117 49.1172 112.134 49.1724 112.164 49.2213C112.193 49.2702 112.234 49.3115 112.282 49.3418C112.751 49.6057 114.04 50.3389 114.351 50.556C114.498 50.6744 114.601 50.8384 114.645 51.0222C114.688 51.2059 114.669 51.3989 114.591 51.5707C114.398 51.7526 114.269 51.9461 113.572 51.8758C112.891 51.7261 112.231 51.4916 111.609 51.1777C111.176 50.9908 110.771 50.7439 110.407 50.4445C110.319 50.3601 110.261 50.2486 110.243 50.1278C110.144 49.3498 110.103 48.5655 110.12 47.7815C110.19 47.365 111.468 47.9809 111.937 48.2273C111.987 48.2565 112.029 48.2974 112.059 48.3464C112.09 48.3954 112.108 48.4512 112.113 48.5088Z" fill="#0A0A0A"/>
<path d="M108.661 35.5125C108.661 36.7325 108.837 37.8587 108.837 37.8587C108.837 37.8587 109.904 48.7982 110.068 48.9331C110.208 49.0458 110.372 49.1254 110.548 49.166C110.723 49.2066 110.906 49.2072 111.082 49.1677C111.506 49.0772 111.906 48.895 112.253 48.634L112.47 31.5004C112.47 31.5004 110.126 32.0283 109.189 32.6735C108.714 32.9961 108.626 34.2924 108.661 35.5125Z" fill="#06489A"/>
<path d="M108.661 35.5124C108.661 36.7325 108.837 37.8587 108.837 37.8587C108.837 37.8587 109.904 48.7981 110.068 48.933C110.208 49.0457 110.372 49.1253 110.548 49.1659C110.723 49.2065 110.906 49.2071 111.081 49.1677C110.947 48.6515 110.695 47.232 110.583 46.3287C110.396 44.8095 110.308 38.0346 110.185 37.5302C109.944 36.9222 109.656 36.3339 109.324 35.7705C109.324 35.7705 108.99 35.4714 108.661 35.5124Z" fill="#002966"/>
<path d="M107.87 50.8117V51.0346C107.875 51.1548 107.923 51.2694 108.005 51.3572C108.392 51.7384 109.493 52.8001 109.763 53.0171C109.875 53.0962 109.965 53.2033 110.024 53.3277C110.083 53.4522 110.108 53.5897 110.097 53.7269C110.058 53.8472 109.985 53.9533 109.886 54.0319C109.775 54.1148 109.648 54.1741 109.513 54.2064C109.378 54.2386 109.238 54.2431 109.101 54.2196C108.409 54.1551 107.214 53.7386 105.708 52.4599C105.665 52.4193 105.631 52.3702 105.607 52.3157C105.584 52.2612 105.573 52.2024 105.573 52.1432C105.573 51.6739 105.649 50.4773 105.72 50.0608C105.79 49.6444 107.191 50.3013 107.683 50.5477C107.733 50.573 107.777 50.6104 107.809 50.6564C107.842 50.7024 107.863 50.7557 107.87 50.8117Z" fill="#0A0A0A"/>
<path d="M105.667 50.7049C105.812 50.9144 106.033 51.0595 106.283 51.1096C106.563 51.21 106.864 51.2352 107.157 51.1827C107.45 51.1302 107.725 51.0019 107.953 50.8105L110.49 33.6123L107.783 32.973L106.546 32.6797C106.093 34.1158 105.975 35.6368 106.201 37.1259C106.37 38.5454 105.409 50.0421 105.667 50.7049Z" fill="#06489A"/>
<path d="M105.667 50.7049C105.812 50.9144 106.033 51.0594 106.283 51.1096C107.314 48.9041 107.197 43.4843 107.296 41.965C107.419 40.0118 108.656 33.6241 108.656 33.6241L107.783 32.973L106.546 32.6797C106.093 34.1158 105.975 35.6368 106.201 37.1259C106.37 38.5454 105.409 50.0421 105.667 50.7049Z" fill="#002966"/>
<path d="M112.464 31.5228C112.405 32.1973 112.346 32.6138 112.346 32.6138C112.221 32.7801 112.082 32.9351 111.93 33.0772C111.512 33.4806 111.014 33.7907 110.467 33.9869C109.921 34.183 109.339 34.2608 108.76 34.2151H108.696C108.328 34.1735 107.967 34.0908 107.618 33.9688C107.372 33.8913 107.133 33.7952 106.903 33.6814C106.698 33.5816 106.604 33.2884 106.557 32.8719C106.492 32.2501 106.557 31.3468 106.481 30.379C106.481 30.2969 106.481 30.203 106.481 30.1092C106.346 28.3495 106.006 26.3962 105.895 25.182C105.825 24.8077 105.853 24.4218 105.977 24.0617C106.785 22.9472 109.252 21.8679 110.629 21.9324C113.132 22.038 112.727 28.8246 112.464 31.5228Z" fill="#4DC2F7"/>
<path d="M109.382 33.6413C109.382 33.7527 109.065 33.9991 108.761 34.2278C108.456 34.4566 108.233 34.5681 108.233 34.5681L108.087 34.4273C107.975 34.3276 107.811 34.1751 107.618 33.9756C107.325 33.6882 106.95 33.3128 106.557 32.8787C106.493 32.257 106.557 31.3537 106.481 30.3858C106.481 30.3037 106.481 30.2099 106.481 30.116C106.346 28.3563 106.007 26.403 105.895 25.1888C106.021 24.6469 106.276 24.1436 106.639 23.7224C106.774 23.8221 106.938 23.9512 107.12 24.1154C107.12 24.1154 107.888 24.7958 107.425 26.4617C107.032 27.8694 106.804 29.0426 107.425 29.811C108.138 30.9096 108.745 32.0744 109.235 33.2893C109.291 33.4035 109.34 33.521 109.382 33.6413Z" fill="#3DA5EC"/>
<path d="M110.185 22.0463C110.185 22.0463 109.956 22.9848 109.704 23.1432C109.43 23.2368 109.132 23.2257 108.865 23.1119C108.599 22.9982 108.385 22.79 108.263 22.5273L108.45 20.7969L110.185 22.0463Z" fill="#FFB5A4"/>
<path d="M110.144 16.9104C110.935 17.1157 111.796 18.4824 111.568 20.0368C111.275 21.9901 110.472 23.0166 109.323 22.2189C108.497 21.6323 107.642 20.9812 107.958 18.4472C108.045 17.9538 108.324 17.5151 108.734 17.2271C109.143 16.939 109.65 16.8252 110.144 16.9104Z" fill="#FFC3AE"/>
<path d="M110.185 16.1379C110.592 16.2787 110.962 16.5103 111.266 16.8152C111.571 17.12 111.802 17.4901 111.943 17.8976C112.013 18.0443 112.054 18.3082 112.757 18.1323C112.651 18.6323 112.369 19.0775 111.963 19.3865C111.556 19.6956 111.052 19.8479 110.542 19.8157C109.792 19.8157 109.47 19.5869 109.37 19.3582L109.224 19.2585C108.99 19.6801 108.925 20.175 109.042 20.6428L108.831 20.7484C108.661 20.6897 108.521 20.2146 108.521 20.2146L108.011 20.3905C107.565 19.5434 107.362 18.5892 107.425 17.6337C107.296 16.6952 108.638 15.8388 110.185 16.1379Z" fill="#002966"/>
<path d="M108.539 20.2374C108.539 20.2374 108.58 19.0643 107.982 19.1405C107.384 19.2168 107.853 20.7946 108.451 20.5131L108.539 20.2374Z" fill="#FFC3AE"/>
<path d="M109.394 34.083C109.679 34.0758 109.961 34.1533 110.202 34.3059C110.484 34.5405 111.263 34.8221 111.046 35.0743C110.829 35.3265 110.278 34.9277 110.331 35.0743C110.384 35.2209 111.585 36.6639 111.427 36.834C111.269 37.0041 111.046 36.834 111.046 36.834C111.046 36.834 111.304 37.2622 111.163 37.4205C111.023 37.5789 110.841 37.4675 110.689 37.2915C110.689 37.2915 110.63 37.6904 110.191 37.2446C110.191 37.2446 110.132 37.4205 109.804 37.1273C109.079 36.5159 108.625 35.6434 108.538 34.6989C108.538 34.6989 109.153 34.0537 109.394 34.083Z" fill="#FFC3AE"/>
<path d="M107.085 26.6742C107.29 25.9762 108.011 24.3279 106.781 23.7824C105.55 23.2369 103.986 27.8884 104.7 29.8534C105.415 31.8184 107.964 34.1764 108.216 34.5459C108.392 34.7923 109.113 34.6808 109.388 34.0298C109.664 33.3787 106.71 29.214 106.646 29.1671C106.719 28.3248 106.866 27.4906 107.085 26.6742Z" fill="#4DC2F7"/>
<path style="mix-blend-mode:multiply" d="M87.4431 30.8242H47.2568C47.2568 30.8242 52.4896 111.665 52.4896 111.8C52.4896 111.935 52.4896 111.9 52.4896 111.946C52.4835 112.032 52.4835 112.119 52.4896 112.205C52.9701 115.296 58.6189 119.431 67.2503 119.431C74.1824 119.431 79.1808 116.768 81.138 114.152V114.111C81.5658 113.562 81.8571 112.918 81.9876 112.234C82.011 112.094 82.0227 111.953 82.0228 111.812C82.0872 111.63 87.4431 30.8242 87.4431 30.8242Z" fill="url(#paint10_linear)"/>
<path d="M97.1884 25.3008V30.9964C97.1884 38.7684 84.5372 47.4614 67.5966 47.4614C50.6561 47.4614 38.0049 38.7684 38.0049 30.9964V25.2539H43.349L91.8443 25.2891H97.1884V25.3008Z" fill="#131A4E"/>
<path d="M95.0608 25.2996H91.8497C91.8497 29.1182 82.4096 36.4033 67.602 36.4033C52.7944 36.4033 43.3485 29.1182 43.3485 25.2996V25.2585H38.0044V28.0506C40.4948 35.195 52.3374 42.2338 67.5962 42.2338C82.855 42.2338 94.7034 35.195 97.1879 28.033V25.2996H95.0608Z" fill="#7A8AF7"/>
<path d="M33.3165 51.778C33.7428 51.7779 34.1613 51.6645 34.5295 51.4495L48.4288 43.4077C48.989 43.0841 49.3979 42.551 49.5655 41.9256C49.7331 41.3003 49.6457 40.6339 49.3224 40.0731C48.9991 39.5122 48.4666 39.1029 47.8418 38.9352C47.2171 38.7674 46.5514 38.855 45.9911 39.1785L32.0919 47.2263C31.6275 47.4954 31.2648 47.9105 31.0601 48.407C30.8554 48.9035 30.8201 49.4538 30.9596 49.9725C31.0992 50.4912 31.4058 50.9492 31.8319 51.2757C32.2581 51.6021 32.7799 51.7787 33.3165 51.778Z" fill="#F7B643"/>
<path d="M27.0872 59.5715C28.1963 59.5704 29.2856 59.2771 30.2456 58.721L43.3422 51.166C44.7117 50.2898 45.6916 48.9194 46.0784 47.3391C46.4651 45.7589 46.2291 44.0903 45.4193 42.6796C44.6095 41.269 43.2881 40.2247 41.7295 39.7635C40.1708 39.3023 38.4946 39.4597 37.0488 40.203L23.9346 47.7521C22.7299 48.4493 21.7883 49.5245 21.2556 50.8113C20.7228 52.0982 20.6287 53.5249 20.9876 54.8707C21.3466 56.2165 22.1387 57.4064 23.2413 58.2562C24.3439 59.1059 25.6956 59.5682 27.0872 59.5715Z" fill="url(#paint11_linear)"/>
<path d="M97.1879 25.3001C97.1879 33.0722 84.5367 41.7534 67.5962 41.7534C50.6556 41.7534 38.0044 33.0722 38.0044 25.3001C38.0044 17.5281 50.6615 8.84692 67.5962 8.84692C84.5309 8.84692 97.1879 17.534 97.1879 25.3001Z" fill="#2A398A"/>
<path d="M67.5612 38C52.7477 38 43.1963 30.7442 42.8682 25.5355C42.8682 25.4181 42.8682 25.336 42.8682 25.2539C42.8675 25.0103 42.8871 24.767 42.9268 24.5266C43.3545 21.7814 46.0852 18.7899 50.2339 16.5141C54.9627 13.9332 61.1213 12.5078 67.5729 12.5078C82.656 12.5078 92.2836 20.0569 92.2836 25.2539C92.2049 26.708 91.6651 28.0991 90.7425 29.225L90.6839 29.3071C87.4082 33.6242 78.9878 38 67.5612 38Z" fill="#EAFCFE"/>
<path d="M91.7974 25.0174C91.7978 25.2493 91.7782 25.4809 91.7388 25.7095C91.5329 26.8277 91.0649 27.881 90.3735 28.7831C90.3564 28.8035 90.3408 28.8251 90.3266 28.8477C87.092 33.1707 78.9059 37.5406 67.5614 37.5406C53.4218 37.5406 44.1693 30.754 43.3899 25.6978C43.3899 25.557 43.3547 25.4162 43.343 25.2755C43.343 25.1933 43.343 25.1112 43.343 25.035C43.3404 24.8109 43.3581 24.5871 43.3958 24.3663C44.1634 19.3101 53.416 12.5235 67.5732 12.5235C82.3632 12.5059 91.7974 19.9084 91.7974 25.0174Z" fill="#8FEAFB"/>
<path d="M91.738 25.7109C91.5321 26.8291 91.0642 27.8825 90.3727 28.7845C90.3556 28.805 90.34 28.8265 90.3258 28.8491C87.0912 33.1721 78.9052 37.542 67.5607 37.542C53.4211 37.542 44.1685 30.7554 43.3892 25.6992C44.1919 20.6489 53.4562 13.8916 67.5607 13.8916C81.6651 13.8916 90.9587 20.6606 91.738 25.7109Z" fill="#BDF2FC"/>
<path d="M74.1883 30.954C71.9478 31.8256 69.6226 32.4606 67.2503 32.8486L62.6035 30.1621C65.037 29.9076 67.4211 29.3031 69.6821 28.3672L74.1883 30.954Z" fill="#EAFCFE"/>
<path d="M79.6028 34.0865C76.9348 34.8516 74.1744 35.2463 71.3991 35.2596L68.27 33.4354C70.6184 33.0284 72.9194 32.3838 75.1377 31.5115L79.6028 34.0865Z" fill="#EAFCFE"/>
<path d="M80.6696 27.7007C78.9133 28.7992 77.062 29.7376 75.138 30.5045L70.6025 27.8825C71.083 27.6596 71.546 27.4191 71.9913 27.161C73.2193 26.4805 74.3182 25.589 75.2376 24.5273L80.6696 27.7007Z" fill="#EAFCFE"/>
<path d="M84.285 32.0512C83.1098 32.7233 81.8664 33.268 80.5757 33.676L76.0754 31.0892C77.9908 30.301 79.8338 29.3472 81.5836 28.2385L86.0605 30.8253C85.5015 31.2797 84.9079 31.6896 84.285 32.0512Z" fill="#EAFCFE"/>
<path opacity="0.2" d="M24.9724 38.6929C30.5678 38.6929 35.1039 37.5689 35.1039 36.1824C35.1039 34.7959 30.5678 33.6719 24.9724 33.6719C19.3769 33.6719 14.8408 34.7959 14.8408 36.1824C14.8408 37.5689 19.3769 38.6929 24.9724 38.6929Z" fill="#008BDC"/>
<path d="M28.7051 16.6052C28.9904 16.5851 29.2754 16.6482 29.5255 16.7871C29.8185 17.01 30.6154 17.2446 30.4044 17.5086C30.1935 17.7725 29.631 17.3971 29.6954 17.5086C29.7599 17.62 31.0314 19.0336 30.8674 19.1979C30.7033 19.3621 30.4923 19.1979 30.4923 19.1979C30.4923 19.1979 30.7677 19.6202 30.633 19.7844C30.4982 19.9487 30.3165 19.8489 30.1525 19.6847C30.1525 19.6847 30.1173 20.0894 29.6544 19.6847C29.6544 19.6847 29.6075 19.8607 29.2618 19.5908C28.5249 19.0247 28.0323 18.1978 27.8848 17.2798C27.8848 17.2798 28.4707 16.5876 28.7051 16.6052Z" fill="#FFC3AE"/>
<path d="M23.8 12.6296C23.8678 12.7881 23.9441 12.9428 24.0285 13.093C25.0774 14.97 27.7436 17.2928 27.7436 17.2928C27.9578 17.2687 28.1618 17.1881 28.3347 17.0593C28.5077 16.9305 28.6434 16.7581 28.728 16.5596C28.9742 15.891 25.7981 11.8964 25.7337 11.8671C25.7494 11.0195 25.8436 10.1751 26.015 9.34485C26.1849 8.63511 26.8119 6.92819 25.5579 6.47654C25.4727 6.4495 25.3825 6.44232 25.2942 6.45554C25.2058 6.46875 25.1216 6.50202 25.0481 6.55279C23.9816 7.22734 23.0968 10.9579 23.8 12.6296Z" fill="#4DC2F7"/>
<path d="M26.5606 32.633V33.1785C26.5664 33.2366 26.5852 33.2926 26.6156 33.3424C26.6461 33.3922 26.6874 33.4344 26.7364 33.4659C27.2052 33.724 28.4943 34.4631 28.8049 34.6743C28.9518 34.7927 29.0551 34.9567 29.0986 35.1405C29.1421 35.3242 29.1233 35.5172 29.0451 35.689C28.8518 35.8708 28.7229 36.0644 28.0255 35.9999C27.3453 35.8451 26.6862 35.6088 26.0625 35.296C25.62 35.1192 25.2071 34.8759 24.8378 34.5745C24.75 34.4922 24.6923 34.3827 24.6738 34.2637C24.5746 33.4857 24.5334 32.7015 24.5507 31.9174C24.621 31.501 25.8985 32.1227 26.3672 32.3632C26.4183 32.39 26.4623 32.4283 26.4959 32.4751C26.5295 32.522 26.5516 32.5761 26.5606 32.633Z" fill="#0A0A0A"/>
<path d="M23.109 19.6275C23.109 20.8534 23.2847 21.9737 23.2847 21.9737C23.2847 21.9737 24.3512 32.9132 24.5153 33.054C24.657 33.1646 24.8213 33.2424 24.9966 33.282C25.1718 33.3215 25.3537 33.3218 25.529 33.2828C25.953 33.1931 26.3527 33.013 26.701 32.7549L26.9178 15.6212C26.9178 15.6212 24.5739 16.1433 23.6363 16.7944C23.1617 17.1111 23.0738 18.4074 23.109 19.6275Z" fill="#06489A"/>
<path d="M23.1089 19.6285C23.1089 20.8544 23.2847 21.9747 23.2847 21.9747C23.2847 21.9747 24.3511 32.9142 24.5152 33.055C24.6569 33.1655 24.8212 33.2434 24.9965 33.2829C25.1717 33.3225 25.3536 33.3228 25.5289 33.2838C25.3942 32.7734 25.1422 31.3481 25.0309 30.4448C24.8434 28.9256 24.7555 22.1507 24.6265 21.6462C24.3869 21.0574 24.1009 20.4886 23.771 19.9452C23.771 19.9452 23.4312 19.5933 23.1089 19.6285Z" fill="#002966"/>
<path d="M22.318 34.9261V35.1548C22.3237 35.2766 22.3714 35.3927 22.4528 35.4833C22.8396 35.8587 23.9354 36.9263 24.2108 37.1433C24.3228 37.2214 24.4125 37.3275 24.471 37.4509C24.5296 37.5743 24.555 37.7109 24.5448 37.8472C24.5039 37.968 24.431 38.0755 24.3338 38.1581C24.2208 38.2399 24.0927 38.2986 23.957 38.3308C23.8212 38.363 23.6805 38.3681 23.5427 38.3458C22.8571 38.2813 21.6617 37.8648 20.1558 36.5861C20.0697 36.5027 20.0193 36.3891 20.0151 36.2693C20.0151 35.8001 20.0972 34.5976 20.1675 34.1811C20.2378 33.7647 21.6383 34.4216 22.1305 34.6739C22.1801 34.6973 22.2231 34.7325 22.2558 34.7765C22.2885 34.8205 22.3098 34.8719 22.318 34.9261Z" fill="#0A0A0A"/>
<path d="M20.1145 34.8255C20.2561 35.0254 20.4636 35.1688 20.7005 35.2302C20.985 35.3343 21.292 35.3615 21.5903 35.309C21.8886 35.2564 22.1679 35.1261 22.3999 34.9311L24.9371 17.7329L22.2299 17.0936L20.9935 16.8003C20.5385 18.234 20.4182 19.7531 20.6419 21.2406C20.8177 22.6601 19.8567 34.1568 20.1145 34.8255Z" fill="#06489A"/>
<path d="M20.1145 34.8255C20.256 35.0254 20.4636 35.1687 20.7005 35.2302C21.7259 33.0189 21.6146 27.6049 21.7142 26.0798C21.8373 24.1324 23.0737 17.7388 23.0737 17.7388L22.2006 17.0936L20.9642 16.8003C20.519 18.2363 20.4087 19.7553 20.6419 21.2406C20.8177 22.6601 19.8567 34.1568 20.1145 34.8255Z" fill="#002966"/>
<path d="M26.9114 15.644C26.8469 16.3126 26.7942 16.7291 26.7942 16.7291C26.671 16.8969 26.5317 17.0521 26.3781 17.1925C25.962 17.5985 25.4636 17.9102 24.9167 18.1065C24.3697 18.3028 23.787 18.3792 23.208 18.3304H23.1435C22.7767 18.2883 22.4153 18.2077 22.0653 18.0899C21.8194 18.0068 21.5787 17.9089 21.3446 17.7967C21.1454 17.7028 21.0516 17.4037 21.0047 16.9872C20.9344 16.3654 21.0047 15.4621 20.9227 14.5002C20.9227 14.4122 20.9227 14.3183 20.9227 14.2245C20.7938 12.4648 20.4539 10.5174 20.366 9.30317C20.2955 8.92894 20.3238 8.54277 20.448 8.18283C21.2274 7.03902 23.7002 5.97734 25.0831 6.04186C27.5794 6.15917 27.1751 12.9458 26.9114 15.644Z" fill="#4DC2F7"/>
<path d="M23.8293 17.7606C23.8293 17.8662 23.5129 18.1184 23.2082 18.3472C22.9035 18.5759 22.6808 18.6874 22.6808 18.6874L22.5285 18.5525L22.0656 18.1008C21.7667 17.8075 21.3975 17.4321 21.0049 16.9981C20.9346 16.3763 21.0049 15.473 20.9229 14.511C20.9229 14.423 20.9229 14.3292 20.9229 14.2353C20.794 12.4757 20.4541 10.5283 20.3662 9.31407C20.4903 8.77153 20.7459 8.2679 21.1104 7.84766C21.2786 7.96848 21.4391 8.09974 21.5909 8.24065C21.5909 8.24065 22.3585 8.9152 21.8956 10.5869C21.503 11.9888 21.2745 13.1619 21.8956 13.9303C22.6062 15.0319 23.2105 16.1985 23.7004 17.4145C23.7524 17.5263 23.7955 17.642 23.8293 17.7606Z" fill="#3DA5EC"/>
<path d="M24.6322 6.16563C24.6322 6.16563 24.4037 7.09825 24.1517 7.25662C23.8813 7.35232 23.5853 7.34547 23.3197 7.23737C23.054 7.12928 22.8372 6.92744 22.7102 6.67007L22.8977 4.9104L24.6322 6.16563Z" fill="#FFB5A4"/>
<path d="M24.5916 1.02762C25.3827 1.23878 26.2441 2.60547 26.0156 4.154C25.7226 6.10725 24.9139 7.13373 23.7713 6.34187C22.945 5.75531 22.0836 5.10423 22.4059 2.56441C22.4932 2.07099 22.7721 1.63227 23.1818 1.34425C23.5914 1.05623 24.0984 0.942383 24.5916 1.02762Z" fill="#FFC3AE"/>
<path d="M24.6265 0.253074C25.0374 0.395698 25.4097 0.631347 25.7147 0.94166C26.0196 1.25197 26.2488 1.62857 26.3845 2.0421C26.4606 2.18288 26.5017 2.44684 27.2048 2.27087C27.0979 2.7708 26.8159 3.21594 26.4096 3.52578C26.0033 3.83562 25.4997 3.98971 24.9898 3.96018C24.2339 3.92499 23.9175 3.72555 23.8179 3.50266C23.7652 3.47317 23.716 3.43775 23.6714 3.39708C23.4376 3.81872 23.3726 4.31358 23.4897 4.78137L23.2788 4.89282C23.1088 4.8283 22.9682 4.35905 22.9682 4.35905L22.4584 4.53502C22.0126 3.6857 21.8099 2.72964 21.8724 1.77228C21.7435 0.810313 23.0854 -0.0636725 24.6265 0.253074Z" fill="#002966"/>
<path d="M22.9862 4.35911C22.9862 4.35911 23.0273 3.18598 22.4293 3.26223C21.8312 3.33848 22.3003 4.91048 22.8983 4.6348L22.9862 4.35911Z" fill="#FFC3AE"/>
<path d="M23.8414 18.1844C24.127 18.1772 24.4084 18.2548 24.65 18.4073C24.9313 18.6419 25.7107 18.9176 25.488 19.1698C25.2653 19.4221 24.7204 19.0232 24.779 19.1698C24.8376 19.3165 26.033 20.7594 25.8747 20.9295C25.7165 21.0996 25.4939 20.9295 25.4939 20.9295C25.4939 20.9295 25.7458 21.3636 25.6111 21.5161C25.4763 21.6686 25.2888 21.563 25.1364 21.3871C25.1364 21.3871 25.0778 21.7918 24.6383 21.346C24.6383 21.346 24.5797 21.5161 24.2516 21.2287C23.5352 20.6158 23.082 19.7504 22.9858 18.812C22.9858 18.812 23.6011 18.1844 23.8414 18.1844Z" fill="#FFC3AE"/>
<path d="M21.5329 10.7885C21.738 10.0905 22.4587 8.4422 21.2281 7.8967C19.9976 7.35119 18.433 12.0027 19.1479 13.9735C19.8628 15.9444 22.4118 18.2907 22.6638 18.6661C22.8396 18.9183 23.5603 18.8068 23.8358 18.1499C24.1112 17.4929 21.1578 13.34 21.0934 13.2872C21.1662 12.443 21.3132 11.6068 21.5329 10.7885Z" fill="#4DC2F7"/>
<defs>
<linearGradient id="paint0_linear" x1="68.9321" y1="72.4955" x2="69.2663" y2="72.4955" gradientUnits="userSpaceOnUse">
<stop stop-color="#282A55"/>
<stop offset="1" stop-color="#1D2047"/>
</linearGradient>
<linearGradient id="paint1_linear" x1="97.3443" y1="158.854" x2="97.5449" y2="158.854" gradientUnits="userSpaceOnUse">
<stop stop-color="#282A55"/>
<stop offset="1" stop-color="#1D2047"/>
</linearGradient>
<linearGradient id="paint2_linear" x1="168.849" y1="217.639" x2="169.039" y2="217.639" gradientUnits="userSpaceOnUse">
<stop stop-color="#282A55"/>
<stop offset="1" stop-color="#1D2047"/>
</linearGradient>
<linearGradient id="paint3_linear" x1="159.14" y1="218.348" x2="159.344" y2="218.348" gradientUnits="userSpaceOnUse">
<stop stop-color="#282A55"/>
<stop offset="1" stop-color="#1D2047"/>
</linearGradient>
<linearGradient id="paint4_linear" x1="19.8306" y1="199.612" x2="20.021" y2="199.612" gradientUnits="userSpaceOnUse">
<stop stop-color="#282A55"/>
<stop offset="1" stop-color="#1D2047"/>
</linearGradient>
<linearGradient id="paint5_linear" x1="8.22058" y1="201.153" x2="8.42466" y2="201.153" gradientUnits="userSpaceOnUse">
<stop stop-color="#282A55"/>
<stop offset="1" stop-color="#1D2047"/>
</linearGradient>
<linearGradient id="paint6_linear" x1="66.2483" y1="89.6288" x2="71.4401" y2="89.6288" gradientUnits="userSpaceOnUse">
<stop stop-color="#06489A"/>
<stop offset="1" stop-color="#002966"/>
</linearGradient>
<linearGradient id="paint7_linear" x1="786.3" y1="1969.99" x2="865.08" y2="1969.99" gradientUnits="userSpaceOnUse">
<stop stop-color="#06489A"/>
<stop offset="1" stop-color="#002966"/>
</linearGradient>
<linearGradient id="paint8_linear" x1="68.7097" y1="113.632" x2="75.9055" y2="113.632" gradientUnits="userSpaceOnUse">
<stop stop-color="#4352B5"/>
<stop offset="1" stop-color="#2A398A"/>
</linearGradient>
<linearGradient id="paint9_linear" x1="569.627" y1="1783.21" x2="610.553" y2="1783.21" gradientUnits="userSpaceOnUse">
<stop stop-color="#06489A"/>
<stop offset="1" stop-color="#002966"/>
</linearGradient>
<linearGradient id="paint10_linear" x1="68.2641" y1="118.803" x2="67.4068" y2="36.9773" gradientUnits="userSpaceOnUse">
<stop stop-color="#FEE998"/>
<stop offset="0.5" stop-color="#FFF4CB"/>
<stop offset="0.74" stop-color="#FFFAE5"/>
</linearGradient>
<linearGradient id="paint11_linear" x1="30.8023" y1="45.6816" x2="36.7869" y2="53.6472" gradientUnits="userSpaceOnUse">
<stop stop-color="#2A398A"/>
<stop offset="1" stop-color="#131A4E"/>
</linearGradient>
</defs>
</svg>
