<svg width="101" height="134" viewBox="0 0 101 134" fill="none" xmlns="http://www.w3.org/2000/svg">
<path d="M98.9121 53.1384V112.351C98.9121 112.644 98.7334 112.778 98.5163 112.65L22.1043 68.6901C21.9839 68.6031 21.8854 68.4893 21.8167 68.3577C21.748 68.2261 21.711 68.0803 21.7085 67.932V8.94873" fill="#EAFCFF"/>
<path d="M92.9753 103.434C92.937 98.1012 92.9753 59.0402 92.9753 59.0402L94.5018 58.4031C94.5389 58.3829 94.5809 58.3732 94.6231 58.3753C94.6654 58.3773 94.7063 58.3909 94.7413 58.4146C94.7763 58.4383 94.804 58.4712 94.8215 58.5097C94.8389 58.5481 94.8454 58.5906 94.8403 58.6325L94.7828 102.217C94.7828 102.421 93.4032 103.274 93.2116 103.389C93.186 103.389 92.9753 103.51 92.9753 103.434Z" fill="#E8E8E8"/>
<path d="M93.0768 59.3501L93.013 59.2418L65.9911 43.8939L65.7549 44.0277C65.7764 43.942 65.8155 43.8618 65.8698 43.792C65.9272 43.7346 67.2423 43.0147 67.2423 43.0147C67.421 42.9128 67.6572 43.0848 67.8104 43.174L94.6217 58.3562C94.6744 58.3803 94.7192 58.4189 94.7508 58.4674C94.7824 58.5158 94.7996 58.5723 94.8004 58.6302C94.8004 58.6302 94.8004 58.6302 94.743 58.6302L93.0768 59.3501Z" fill="url(#paint0_linear)"/>
<path d="M92.8472 103.431L66.036 88.2618C65.9382 88.1936 65.8583 88.1031 65.8027 87.9978C65.7472 87.8925 65.7177 87.7755 65.7168 87.6565V44.1804C65.7168 43.9511 65.8572 43.8428 66.036 43.9447L92.8472 59.1142C92.9429 59.1824 93.0211 59.2722 93.0755 59.3762C93.1299 59.4803 93.1588 59.5957 93.16 59.7131V103.215C93.16 103.431 93.0196 103.533 92.8472 103.431Z" fill="white"/>
<path d="M61.5552 85.8481C61.5552 80.5219 61.5552 41.461 61.5552 41.461L63.2533 40.6328C63.6235 40.4353 63.5916 40.6328 63.5916 40.8621L63.5341 84.4465C63.5341 84.6504 61.8999 85.5742 61.7914 85.7207C61.7722 85.7144 61.5552 85.9055 61.5552 85.8481Z" fill="#E8E8E8"/>
<path d="M61.6692 41.7487L61.6054 41.6404L25.0782 20.4694L24.842 20.6096C24.8667 20.5231 24.9055 20.4413 24.9569 20.3675C25.0208 20.3102 26.6103 19.4501 26.6103 19.4501C26.6768 19.4037 26.7559 19.3789 26.8369 19.3789C26.918 19.3789 26.9971 19.4037 27.0635 19.4501L63.3864 40.4745C63.4403 40.4959 63.4866 40.5327 63.5196 40.5803C63.5525 40.6279 63.5706 40.6842 63.5715 40.7421H63.5141L61.6692 41.7487Z" fill="url(#paint1_linear)"/>
<path d="M61.4401 85.8205L25.1363 64.8342C25.0406 64.766 24.9624 64.6762 24.908 64.5721C24.8537 64.468 24.8247 64.3526 24.8235 64.2353V20.7273C24.8235 20.4979 24.9639 20.3896 25.1363 20.4916L61.4401 41.4779C61.5359 41.5474 61.6141 41.6384 61.6685 41.7435C61.7228 41.8485 61.7517 41.9649 61.7529 42.0831V85.5911C61.7529 85.8141 61.6125 85.9224 61.4401 85.8205Z" fill="white"/>
<path d="M46.0048 49.7087L58.8295 57.0991C59.0593 57.2329 59.2636 57.0609 59.2891 56.7169C59.3035 56.5541 59.2772 56.3903 59.2126 56.2402C59.148 56.0901 59.0471 55.9584 58.9189 55.8568L46.0878 48.46C45.8643 48.3325 45.6601 48.5046 45.6345 48.8486C45.619 49.0114 45.6447 49.1756 45.7094 49.3259C45.7741 49.4762 45.8757 49.6078 46.0048 49.7087Z" fill="#A4D4FC"/>
<path d="M45.7564 53.3747L58.5875 60.746C58.8109 60.8798 59.0152 60.7077 59.0407 60.3637C59.0568 60.2008 59.0314 60.0365 58.9666 59.886C58.9019 59.7356 58.8 59.6041 58.6704 59.5036L45.8457 52.1323C45.6159 51.9985 45.4116 52.1706 45.3861 52.5146C45.3734 52.6772 45.4005 52.8404 45.465 52.9902C45.5295 53.14 45.6295 53.272 45.7564 53.3747Z" fill="#A4D4FC"/>
<path d="M35.031 28.9477C35.031 28.9477 31.52 26.7561 30.6199 31.6044C30.339 33.1781 31.4689 35.0512 30.7986 35.9814C30.1283 36.9115 28.0792 37.1727 28.7112 39.3899C29.3432 41.607 26.911 41.9383 28.009 45.0537C29.107 48.1692 41.0124 54.4574 41.9636 53.4062C42.9147 52.355 42.6019 49.1312 41.721 47.3601C40.84 45.5889 41.4018 43.8815 41.5742 43.0405C41.9316 41.3203 40.8337 39.5555 40.1634 38.2303C39.4931 36.9052 39.3016 31.477 35.031 28.9477Z" fill="#3D3300"/>
<path d="M30.996 40.4491C31.2998 40.392 31.6115 40.392 31.9153 40.4491L33.5048 40.723H33.6261H33.7218L35.222 40.9906L36.7285 42.2648V42.4368L36.8115 42.5197L37.0286 42.7363L38.5415 44.2717C38.8924 44.6145 39.2147 44.9853 39.5054 45.3803C40.955 47.3173 41.7708 49.6533 41.8418 52.0699V54.6183C41.8418 54.8923 41.6694 55.0197 41.4588 54.8986L28.998 47.693C28.8826 47.6113 28.7883 47.5034 28.7228 47.3783C28.6573 47.2531 28.6225 47.1142 28.6213 46.973V44.4565C28.6213 42.1884 29.5533 40.6784 30.996 40.4491Z" fill="url(#paint2_linear)"/>
<path d="M31.5516 33.988C31.5963 33.5102 31.9666 33.8096 32.0687 33.9052C32.0687 33.7396 32.0687 33.5803 32.0687 33.421C32.0687 30.7515 33.4858 29.4009 35.2605 30.4075C37.0351 31.4141 38.4523 34.4022 38.4523 37.0716C38.4523 37.2309 38.4523 37.3902 38.4523 37.5367C38.6034 37.5775 38.7368 37.6672 38.8315 37.7917C38.9262 37.9162 38.9769 38.0685 38.9757 38.2248C39.0268 38.8619 38.3373 39.6201 38.0437 39.2442C37.9373 39.5147 37.7704 39.7575 37.5558 39.954C37.3412 40.1505 37.0845 40.2956 36.8053 40.3782V42.487C35.9116 42.8374 34.6987 42.1366 33.805 40.7541V38.658C33.2625 37.8786 32.8467 37.0185 32.573 36.1096C32.1964 36.1415 31.5197 34.5678 31.5516 33.988Z" fill="#FFD199"/>
<path d="M34.3749 31.4017C35.0336 33.0574 35.9048 34.6207 36.9666 36.0526C37.305 36.4731 38.3774 37.5626 38.3774 37.5626C38.8135 37.0946 39.0984 36.5065 39.1952 35.8748C39.2919 35.2431 39.1961 34.5969 38.9201 34.0203C37.7646 31.1979 36.4559 29.7389 35.2941 29.0954C33.8003 28.2672 32.5491 28.7832 32.1725 29.4649C31.5022 30.6754 32.0576 34.2751 32.0576 34.2751C32.1506 33.6274 32.2958 32.9882 32.4917 32.3638C32.7151 31.8477 34.3749 31.4017 34.3749 31.4017Z" fill="#3D3300"/>
<path d="M46.4576 41.3633C46.381 41.3633 46.4129 41.3633 45.7678 41.7201C45.8572 41.6691 46.7003 42.1214 46.7833 42.0768L47.422 41.7137C47.3454 41.7519 47.3198 41.7009 46.4576 41.3633Z" fill="#FF8C00"/>
<path d="M48.8189 43.6714C48.0013 44.3085 48.1163 43.544 48.3143 45.2196C48.3233 45.2351 48.328 45.2526 48.328 45.2705C48.328 45.2884 48.3233 45.306 48.3143 45.3215C48.9211 44.9456 48.953 44.9966 48.953 44.8564C48.8679 44.467 48.8229 44.0699 48.8189 43.6714Z" fill="#FF8C00"/>
<path d="M48.4245 42.2695C47.8372 40.664 48.1564 40.8361 47.218 41.3457C47.3968 41.2438 47.5053 41.7981 47.8053 42.6199C47.8947 42.8875 49.1842 43.4928 48.8394 43.6839L49.4778 43.3271C49.797 43.1487 48.5139 42.5371 48.4245 42.2695Z" fill="#FF8C00"/>
<path d="M47.4213 41.4989C48.0596 43.2573 47.5426 42.3844 48.7682 43.4102C49.247 43.7606 48.1299 43.8817 48.1682 44.1365C48.2256 44.8501 48.449 45.4617 48.1682 45.3152C48.0405 45.2387 47.3511 44.2767 47.217 44.2767C45.9403 44.2767 46.285 44.4423 46.4063 43.1362C46.4063 43.0152 46.3489 42.9833 45.7679 41.9257C45.4807 41.4351 46.4063 41.9958 46.7127 42.0786C46.8276 42.1232 46.8021 42.0149 47.1979 41.3714C47.217 41.3332 47.3766 41.3842 47.4213 41.4989Z" fill="#FFC033"/>
<path d="M51.5904 44.5547C51.5138 44.5547 51.5457 44.5547 50.9006 44.9115C50.9837 44.8605 51.8331 45.3128 51.9162 45.2682L52.5549 44.9051C52.4782 44.9433 52.4527 44.8924 51.5904 44.5547Z" fill="#FF8C00"/>
<path d="M53.9529 46.8594C53.1354 47.4965 53.2503 46.732 53.4483 48.4075C53.4573 48.423 53.462 48.4406 53.462 48.4585C53.462 48.4764 53.4573 48.494 53.4483 48.5095C54.087 48.1336 54.087 48.1846 54.087 48.0444C54.0019 47.655 53.957 47.2579 53.9529 46.8594Z" fill="#FF8C00"/>
<path d="M53.5566 45.4571C52.9693 43.8515 53.2885 44.0236 52.3501 44.5332C52.5288 44.4313 52.6374 44.9856 52.9374 45.8075C53.0268 46.0751 54.3163 46.6803 53.9716 46.8715L54.61 46.5147C54.9228 46.3363 53.646 45.7247 53.5566 45.4571Z" fill="#FF8C00"/>
<path d="M52.5472 44.6834C53.1856 46.4419 52.6685 45.569 53.9005 46.5948C54.3793 46.9452 53.2622 47.0662 53.3005 47.3211C53.3579 48.0346 53.5814 48.6463 53.3005 48.4997C53.1728 48.4233 52.4834 47.4612 52.3493 47.4612C51.0726 47.4612 51.4173 47.6269 51.5386 46.3208C51.5386 46.1998 51.4812 46.1679 50.9003 45.1103C50.613 44.6197 51.5386 45.1804 51.845 45.2632C51.9599 45.3078 51.928 45.1995 52.3302 44.556C52.3493 44.5178 52.5089 44.5688 52.5472 44.6834Z" fill="#FFC033"/>
<path d="M56.723 47.0981C56.6464 47.0981 56.6783 47.0981 56.0332 47.4549C56.1162 47.404 56.9657 47.8563 57.0423 47.8117L57.681 47.4486C57.6108 47.4868 57.5852 47.4358 56.723 47.0981Z" fill="#FF8C00"/>
<path d="M59.0851 49.4067C58.2675 50.0438 58.3761 49.2793 58.5805 50.9549C58.5863 50.9737 58.5857 50.9939 58.5787 51.0124C58.5718 51.0308 58.559 51.0465 58.5422 51.0568C59.1809 50.681 59.1809 50.7319 59.1809 50.5918C59.1055 50.2014 59.0734 49.8041 59.0851 49.4067Z" fill="#FF8C00"/>
<path d="M58.6893 48.0042C58.1021 46.3987 58.4212 46.5707 57.4829 47.0804C57.6616 46.9784 57.7701 47.5327 58.0702 48.3546C58.1595 48.6221 59.4489 49.2274 59.0978 49.4185L59.7361 49.0617C60.0553 48.8834 58.7787 48.2717 58.6893 48.0042Z" fill="#FF8C00"/>
<path d="M57.6931 47.2342C58.3315 48.9926 57.8144 48.1198 59.0464 49.1455C59.5252 49.4959 58.4081 49.617 58.4464 49.8718C58.5038 50.5854 58.7272 51.197 58.4464 51.0505C58.3251 50.974 57.6357 50.012 57.5016 50.012C56.225 50.012 56.5697 50.1776 56.691 48.8716C56.691 48.7505 56.6335 48.7187 56.0526 47.6611C55.7654 47.1705 56.691 47.7311 56.991 47.814C57.1123 47.8586 57.0803 47.7503 57.4761 47.1068C57.4825 47.0686 57.6421 47.1195 57.6931 47.2342Z" fill="#FFC033"/>
<path d="M74.1685 65.3659C72.0683 64.149 70.3384 60.8616 70.3384 58.0583C70.3384 56.4783 70.3384 55.0193 71.2832 54.7645C71.765 54.631 72.2692 54.5978 72.7644 54.6669C73.2596 54.7359 73.7354 54.9057 74.1622 55.1658C76.2687 56.3763 77.9923 59.6702 77.9923 62.4734C77.9923 64.9709 76.5879 65.8565 74.8452 65.8183C74.6218 65.8437 74.3983 65.4933 74.1685 65.3659Z" fill="#056600"/>
<path d="M98.8418 53.4072V112.658L100.291 111.492C100.413 111.416 100.513 111.31 100.583 111.184C100.652 111.058 100.688 110.916 100.687 110.772V52.0947" fill="#CEEEF4"/>
<path d="M100.688 52.371V44.7258C100.688 44.7012 100.681 44.6771 100.669 44.6558C100.657 44.6345 100.639 44.6169 100.617 44.6046C100.596 44.5924 100.572 44.5859 100.547 44.5859C100.523 44.586 100.498 44.5924 100.477 44.6047L98.842 45.6241V53.3968" fill="#000BDE"/>
<path d="M100.547 44.9649L98.874 45.9269C98.8019 45.9709 98.7191 45.9941 98.6346 45.9941C98.5501 45.9941 98.4673 45.9709 98.3952 45.9269L21.8237 1.4506V1.39963L23.6622 0.342031C23.7993 0.263806 23.9544 0.222656 24.1123 0.222656C24.2701 0.222656 24.4253 0.263806 24.5623 0.342031L100.527 44.4807C100.571 44.5037 100.607 44.5376 100.634 44.5792C100.66 44.6207 100.674 44.6683 100.676 44.7173C100.678 44.7663 100.667 44.815 100.645 44.8584C100.622 44.9019 100.588 44.9386 100.547 44.9649Z" fill="url(#paint3_linear)"/>
<path d="M21.7085 9.21702V1.71191C21.7085 1.41884 21.8872 1.28505 22.1043 1.41247L98.446 45.3728C98.5675 45.4587 98.6668 45.5723 98.7356 45.7041C98.8045 45.836 98.8409 45.9823 98.8418 46.1309V53.4067" fill="url(#paint4_linear)"/>
<path d="M26.1821 9.25557C26.6592 9.05297 26.7561 8.20888 26.3986 7.37025C26.041 6.53162 25.3644 6.01601 24.8873 6.21861C24.4102 6.42121 24.3133 7.2653 24.6709 8.10393C25.0284 8.94256 25.705 9.45817 26.1821 9.25557Z" fill="white"/>
<path d="M30.1611 11.5485C30.6382 11.3459 30.7351 10.5018 30.3775 9.66319C30.02 8.82455 29.3434 8.30895 28.8663 8.51156C28.3892 8.71417 28.2923 9.55827 28.6498 10.3969C29.0074 11.2355 29.684 11.7512 30.1611 11.5485Z" fill="white"/>
<path d="M34.1472 13.8459C34.6242 13.6433 34.7212 12.7992 34.3636 11.9606C34.0061 11.1219 33.3295 10.6063 32.8524 10.8089C32.3753 11.0115 32.2784 11.8556 32.6359 12.6943C32.9935 13.5329 33.6701 14.0485 34.1472 13.8459Z" fill="white"/>
<path d="M28.3284 52.8984L56.8249 69.3167C57.093 69.4696 57.3101 69.3167 57.3101 68.9472C57.3076 68.766 57.2624 68.5879 57.1781 68.4274C57.0938 68.2669 56.9728 68.1285 56.8249 68.0233L28.3284 51.6051C28.0603 51.4458 27.8433 51.6051 27.8433 51.9683C27.8457 52.1503 27.8909 52.3293 27.9751 52.4909C28.0594 52.6524 28.1804 52.792 28.3284 52.8984Z" fill="#A4D4FC"/>
<path d="M28.3284 57.2235L56.8249 73.6417C57.093 73.801 57.3101 73.6417 57.3101 73.2786C57.3076 73.0965 57.2624 72.9175 57.1782 72.756C57.0939 72.5944 56.9729 72.4549 56.8249 72.3484L28.3284 55.9302C28.0603 55.7772 27.8433 55.9302 27.8433 56.2997C27.8457 56.4809 27.8909 56.6589 27.9752 56.8195C28.0595 56.98 28.1805 57.1184 28.3284 57.2235Z" fill="#A4D4FC"/>
<path d="M28.3284 61.6139L56.8249 78.0385C57.093 78.1914 57.3101 78.0385 57.3101 77.669C57.3066 77.4871 57.261 77.3084 57.1768 77.147C57.0927 76.9857 56.9722 76.8459 56.8249 76.7388L28.3284 60.3205C28.0603 60.1676 27.8433 60.3205 27.8433 60.6901C27.8457 60.8713 27.8909 61.0493 27.9752 61.2098C28.0595 61.3703 28.1805 61.5088 28.3284 61.6139Z" fill="#A4D4FC"/>
<path d="M73.2701 65.367C71.1699 64.1501 69.4399 60.8626 69.4399 58.0593C69.4399 55.2497 71.1635 53.95 73.2701 55.1669C75.3767 56.3774 77.1002 59.6712 77.1002 62.4745C77.0938 65.2778 75.3767 66.5775 73.2701 65.367Z" fill="#46A823"/>
<path d="M86.1126 70.9369C84.006 69.72 82.2825 66.4326 82.2825 63.6293C82.2825 62.0493 82.2825 60.5903 83.2209 60.3354C83.7038 60.2023 84.2089 60.1692 84.7052 60.2382C85.2014 60.3072 85.6782 60.4769 86.1062 60.7368C88.2064 61.9473 89.9364 65.2412 89.9364 68.0444C89.9364 70.5419 88.5384 71.4275 86.7957 71.3893C86.5595 71.402 86.3424 71.0835 86.1126 70.9369Z" fill="#931032"/>
<path d="M85.2122 70.9419C83.1056 69.7251 81.3821 66.4376 81.3821 63.6343C81.3821 60.8247 83.0993 59.525 85.2122 60.7418C87.3124 61.9523 89.0424 65.2462 89.0424 68.0495C89.036 70.8719 87.3124 72.1716 85.2122 70.9419Z" fill="#FF4242"/>
<path d="M71.6992 59.9624L72.644 61.8163L75.389 59.5737" stroke="white" stroke-width="2" stroke-linecap="round" stroke-linejoin="round"/>
<path d="M86.547 68.4055L83.8723 63.3086" stroke="white" stroke-width="2" stroke-miterlimit="10" stroke-linecap="round"/>
<path d="M83.8723 66.8672L86.547 64.8477" stroke="white" stroke-width="2" stroke-miterlimit="10" stroke-linecap="round"/>
<path d="M90.0704 89.4169L89.8215 89.557C89.9599 89.3031 90.0446 89.0236 90.0704 88.7358C90.0321 88.4684 90.2363 89.3151 90.2363 89.3151" fill="#0072E7"/>
<path d="M88.9729 89.6213L68.839 78.0196C68.5016 77.7807 68.2252 77.466 68.0322 77.1007C67.8393 76.7355 67.7351 76.33 67.7283 75.9172V69.7436C67.7283 68.9281 68.2262 68.5586 68.839 68.909L88.9729 80.498C89.3089 80.7393 89.5838 81.0556 89.7755 81.4217C89.9673 81.7879 90.0706 82.1937 90.0773 82.6068V88.7804C90.0709 89.6022 89.573 89.9781 88.9729 89.6213Z" fill="url(#paint5_linear)"/>
<path d="M74.1501 78.3881V74.6802L74.7375 75.0115V76.5851L76.2058 77.4388V75.8716L76.7931 76.2092V79.9172L76.2058 79.5795V78.0059L74.7183 77.1458V78.7194L74.1501 78.3881Z" fill="white"/>
<path d="M78.0248 76.9119V80.6198L77.4436 80.2822V76.5742L78.0248 76.9119Z" fill="white"/>
<path d="M78.6565 80.9814V77.2734L79.863 77.9679C80.2112 78.1606 80.5019 78.442 80.7057 78.7834C80.8966 79.0917 80.9983 79.4467 80.9993 79.8091C81.012 80.0089 80.9605 80.2075 80.8525 80.3761C80.7996 80.4369 80.7318 80.483 80.6557 80.5098C80.5796 80.5366 80.4979 80.5432 80.4184 80.529L81.1143 82.3958L80.4759 82.0199L79.8375 80.2997L79.2438 79.962V81.319L78.6565 80.9814ZM79.2438 79.4014L79.78 79.7135C79.9907 79.8346 80.1503 79.8728 80.2524 79.8282C80.3546 79.7836 80.4057 79.6626 80.4057 79.4651C80.4063 79.2718 80.3533 79.0821 80.2524 78.9172C80.1312 78.7338 79.9668 78.5829 79.7737 78.4776L79.2438 78.1718V79.4014Z" fill="white"/>
<path d="M81.5356 82.6379V78.9299L83.6295 80.1404V80.7011L82.1165 79.8601V80.8667L83.5209 81.6759V82.2365L82.1165 81.4338V82.4085L83.6422 83.2814V83.8484L81.5356 82.6379Z" fill="white"/>
<path d="M90.0707 89.417L90.9648 88.8946C91.0283 88.8588 91.0812 88.807 91.1182 88.7444C91.1552 88.6817 91.175 88.6105 91.1756 88.5378V81.6316C91.1782 81.5561 91.1601 81.4814 91.1232 81.4154C91.0863 81.3495 91.0321 81.2949 90.9663 81.2575C90.9005 81.2201 90.8258 81.2013 90.7501 81.2033C90.6744 81.2052 90.6007 81.2277 90.5369 81.2684L90.2687 81.4213C90.2039 81.4571 90.15 81.5098 90.1129 81.5738C90.0757 81.6378 90.0567 81.7106 90.0579 81.7845L90.0707 89.417Z" fill="#0072E7"/>
<path d="M90.0326 81.0581C89.9276 81.1179 89.8088 81.1493 89.6879 81.1493C89.567 81.1493 89.4482 81.1179 89.3432 81.0581L68.1624 68.8193L68.922 68.386C69.0249 68.3202 69.1445 68.2852 69.2667 68.2852C69.3889 68.2852 69.5086 68.3202 69.6114 68.386L90.1986 80.2553L90.0326 81.0581Z" fill="#0072E7"/>
<path d="M90.0696 82.5987C90.0158 82.2489 89.8919 81.9136 89.7054 81.6126C89.519 81.3116 89.2738 81.0511 88.9843 80.8467C87.7075 79.9229 89.693 79.9802 89.693 79.9802C89.693 79.9802 91.1741 80.6173 91.1741 81.5475C91.1741 82.4776 90.0696 82.5987 90.0696 82.5987Z" fill="#0072E7"/>
<path d="M88.5837 60.3278V119.528C88.5837 119.821 88.4114 119.955 88.188 119.827L11.7759 75.8668C11.6555 75.7798 11.557 75.666 11.4883 75.5344C11.4196 75.4028 11.3826 75.257 11.3801 75.1087V16.1445" fill="#EAFCFF"/>
<path d="M82.6472 110.652C82.6088 105.319 82.6472 66.2645 82.6472 66.2645L84.18 65.6274C84.2167 65.6063 84.2586 65.5961 84.3009 65.5978C84.3431 65.5996 84.384 65.6133 84.4188 65.6373C84.4536 65.6613 84.4808 65.6947 84.4974 65.7335C84.5139 65.7724 84.519 65.8151 84.5122 65.8567L84.4547 109.441C84.4547 109.645 83.0751 110.505 82.8899 110.613C82.8643 110.582 82.6472 110.703 82.6472 110.652Z" fill="#E8E8E8"/>
<path d="M82.7479 66.5489L82.684 66.4406L55.6622 51.0863L55.426 51.2265C55.4477 51.1389 55.4868 51.0566 55.5409 50.9844C55.5984 50.927 56.9134 50.2071 56.9134 50.2071C57.0921 50.1052 57.3283 50.2772 57.4815 50.3664L84.2927 65.5486C84.3454 65.5727 84.3902 65.6113 84.4218 65.6598C84.4535 65.7083 84.4707 65.7647 84.4714 65.8226C84.4714 65.8226 84.4714 65.8226 84.414 65.8226L82.7479 66.5489Z" fill="url(#paint6_linear)"/>
<path d="M82.5197 110.625L55.7083 95.4552C55.6115 95.3877 55.532 95.2982 55.4765 95.1941C55.4211 95.09 55.3911 94.9742 55.3892 94.8563V51.3484C55.3892 51.119 55.5296 51.0107 55.7083 51.1127L82.5197 66.2822C82.6147 66.3511 82.6924 66.441 82.7466 66.5449C82.8009 66.6488 82.8303 66.7639 82.8325 66.881V110.389C82.8325 110.618 82.6921 110.727 82.5197 110.625Z" fill="white"/>
<path d="M51.2273 93.0386C51.1954 87.7124 51.2273 48.6514 51.2273 48.6514L52.9263 47.8232C53.2967 47.6257 53.2648 47.8232 53.2648 48.0526L53.2073 91.637C53.2073 91.8408 51.5722 92.7647 51.4636 92.9112C51.4445 92.9048 51.2273 93.0959 51.2273 93.0386Z" fill="#E8E8E8"/>
<path d="M51.3408 48.9409L51.3089 48.8326L14.7499 27.6679L14.5137 27.8017C14.5383 27.7153 14.5772 27.6335 14.6286 27.5596C14.6924 27.5023 16.2819 26.6422 16.2819 26.6422C16.3484 26.5959 16.4275 26.571 16.5086 26.571C16.5896 26.571 16.6687 26.5959 16.7352 26.6422L53.058 47.6667C53.1105 47.69 53.1556 47.7273 53.1883 47.7745C53.2209 47.8217 53.2399 47.877 53.2432 47.9343C53.2277 47.9518 53.2079 47.965 53.1857 47.9725L51.3408 48.9409Z" fill="url(#paint7_linear)"/>
<path d="M51.111 93.0218L14.8138 72.0291C14.7181 71.9609 14.6399 71.8711 14.5855 71.7671C14.5312 71.663 14.5022 71.5476 14.501 71.4302V27.9286C14.501 27.6929 14.6414 27.5846 14.8138 27.6865L51.111 48.6728C51.2113 48.7455 51.2922 48.8415 51.3467 48.9526C51.4012 49.0636 51.4277 49.1863 51.4238 49.3099V92.8115C51.4238 93.0154 51.3089 93.1173 51.111 93.0218Z" fill="white"/>
<path d="M35.6764 56.9251L48.501 64.3155C48.7308 64.4493 48.9351 64.2773 48.9606 63.9332C48.975 63.7705 48.9487 63.6067 48.8841 63.4566C48.8195 63.3065 48.7186 63.1747 48.5904 63.0731L35.7594 55.6509C35.536 55.5171 35.3317 55.6891 35.3062 56.0331C35.2843 56.2011 35.307 56.3719 35.372 56.5284C35.4369 56.685 35.5419 56.8217 35.6764 56.9251Z" fill="#A4D4FC"/>
<path d="M35.4265 60.5651L48.2577 67.9555C48.4875 68.0893 48.6854 67.9173 48.711 67.5732C48.7271 67.4103 48.7016 67.246 48.6369 67.0956C48.5722 66.9452 48.4703 66.8136 48.3407 66.7132L35.5159 59.3228C35.2861 59.189 35.0818 59.361 35.0563 59.705C35.043 59.8676 35.0698 60.031 35.1344 60.181C35.1989 60.3309 35.2992 60.4628 35.4265 60.5651Z" fill="#A4D4FC"/>
<path d="M24.7023 36.1414C24.7023 36.1414 21.1594 33.988 20.2912 38.7982C20.0295 40.3591 21.1403 42.2704 20.47 43.1815C19.7997 44.0925 17.7506 44.3856 18.3826 46.5836C19.0145 48.7816 16.5824 49.132 17.6804 52.2475C18.7783 55.3629 30.6837 61.6511 31.6348 60.5999C32.586 59.5487 32.2732 56.3249 31.3923 54.5538C30.5113 52.7826 31.0731 51.0752 31.2454 50.2342C31.6029 48.514 30.5049 46.7556 29.8347 45.4241C29.1644 44.0925 28.9665 38.6708 24.7023 36.1414Z" fill="#3D3300"/>
<path d="M20.6679 47.6411C20.9719 47.5871 21.2831 47.5871 21.5871 47.6411L23.1767 47.9214H23.2979H23.349H23.3937L24.8938 48.1826L26.4004 49.4568V49.6288L26.4834 49.7117L26.7004 49.9219L28.1942 51.3809C28.5451 51.7237 28.8674 52.0944 29.1581 52.4894C30.633 54.4463 31.4587 56.814 31.52 59.2619V61.8103C31.52 62.0842 31.3477 62.2117 31.137 62.097L18.6698 54.8913C18.5543 54.8083 18.46 54.6993 18.3946 54.5731C18.3292 54.4469 18.2944 54.3071 18.2932 54.165V51.6166C18.2932 49.3867 19.2252 47.8768 20.6679 47.6411Z" fill="url(#paint8_linear)"/>
<path d="M21.2236 41.2141C21.2683 40.7299 21.6386 41.0293 21.7407 41.1249C21.7407 40.9593 21.7407 40.8 21.7407 40.6407C21.7407 37.9712 23.1579 36.6206 24.9326 37.6336C26.7072 38.6466 28.1244 41.6219 28.1244 44.2913C28.1244 44.457 28.1244 44.6099 28.1244 44.7628C28.2641 44.8148 28.3832 44.9105 28.4638 45.0357C28.5443 45.1609 28.5821 45.3088 28.5713 45.4572C28.6224 46.0943 27.9329 46.8589 27.6393 46.4766C27.5317 46.7422 27.3658 46.9804 27.1536 47.1734C26.9415 47.3663 26.6885 47.5093 26.4136 47.5915V49.7004C25.5199 50.0508 24.307 49.35 23.4132 47.9738V45.8522C22.8707 45.0728 22.4549 44.2127 22.1812 43.3038C21.8684 43.3357 21.1725 41.762 21.2236 41.2141Z" fill="#FFD199"/>
<path d="M24.0443 38.5961C24.703 40.2517 25.5742 41.8151 26.6361 43.2469C26.9745 43.6674 28.0469 44.7632 28.0469 44.7632C28.4843 44.2947 28.77 43.7055 28.8668 43.0724C28.9636 42.4394 28.867 41.792 28.5895 41.2146C27.4341 38.3922 26.1254 36.9396 24.9636 36.2961C23.4698 35.4679 22.2186 35.9776 21.8419 36.6593C21.1716 37.8698 21.727 41.4694 21.727 41.4694C21.8201 40.8217 21.9653 40.1825 22.1611 39.5581C22.3845 39.042 24.0443 38.5961 24.0443 38.5961Z" fill="#3D3300"/>
<path d="M36.1295 48.5564C36.0528 48.5245 36.0848 48.5564 35.4397 48.9131C35.5291 48.8622 36.3722 49.3145 36.4552 49.2699L37.0939 48.9131C37.0173 48.945 36.9917 48.9004 36.1295 48.5564Z" fill="#FF8C00"/>
<path d="M38.4915 50.8711C37.674 51.5082 37.7889 50.7373 37.9869 52.4129C37.9869 52.4639 37.9869 52.5021 37.955 52.5148C38.5937 52.1389 38.6256 52.1899 38.5937 52.0561C38.5196 51.6656 38.4853 51.2685 38.4915 50.8711Z" fill="#FF8C00"/>
<path d="M38.0947 49.463C37.5074 47.8575 37.8266 48.0295 36.8882 48.5456C37.0669 48.4437 37.1754 48.9916 37.4755 49.8198C37.5648 50.0874 38.8543 50.6863 38.5096 50.8774L39.148 50.5206C39.4671 50.3422 38.184 49.737 38.0947 49.463Z" fill="#FF8C00"/>
<path d="M37.0937 48.6981C37.7321 50.4501 37.215 49.5773 38.4407 50.6094C38.9195 50.9662 37.8023 51.0808 37.8406 51.3357C37.8981 52.0492 38.1215 52.6609 37.8406 52.5143C37.7129 52.4442 37.0235 51.4758 36.8894 51.4758C35.6127 51.4758 35.9574 51.6479 36.0787 50.3354C36.0787 50.2207 36.0212 50.1825 35.4403 49.1249C35.153 48.6343 36.0787 49.2014 36.3851 49.2778C36.5 49.3224 36.4745 49.2141 36.8703 48.5706C36.8894 48.526 37.049 48.577 37.0937 48.6981Z" fill="#FFC033"/>
<path d="M41.2618 51.7444C41.1852 51.7125 41.2171 51.7443 40.572 52.1011C40.6551 52.0502 41.5045 52.5025 41.5875 52.4579L42.2262 52.1011C42.1496 52.133 42.124 52.0884 41.2618 51.7444Z" fill="#FF8C00"/>
<path d="M43.6492 54.0586C42.8317 54.6957 42.9466 53.9248 43.1446 55.6004C43.1446 55.6514 43.1446 55.6896 43.1446 55.7023C43.7514 55.3264 43.7833 55.3774 43.7833 55.2436C43.6985 54.8542 43.6536 54.4571 43.6492 54.0586Z" fill="#FF8C00"/>
<path d="M43.2272 52.6473C42.6399 51.0419 42.9591 51.2139 42.0208 51.7299C42.1995 51.628 42.308 52.1759 42.608 53.0041C42.6974 53.2717 43.9868 53.8706 43.6421 54.0617L44.2869 53.7368C44.5933 53.5265 43.3166 52.9213 43.2272 52.6473Z" fill="#FF8C00"/>
<path d="M42.2257 51.8856C42.8641 53.6376 42.3406 52.7648 43.5726 53.7969C44.0514 54.1537 42.9343 54.2683 42.9726 54.5232C43.0301 55.2367 43.2535 55.8484 42.9726 55.7018C42.8449 55.6317 42.1555 54.6633 42.0215 54.6633C40.7447 54.6633 41.0895 54.8354 41.2107 53.5229C41.2107 53.4082 41.1533 53.37 40.5724 52.3124C40.2851 51.8218 41.2107 52.3889 41.5172 52.4653C41.6321 52.5099 41.6001 52.4016 42.0023 51.7581C42.0215 51.7135 42.181 51.7645 42.2257 51.8856Z" fill="#FFC033"/>
<path d="M46.3941 54.2946C46.3175 54.2628 46.3494 54.2946 45.7043 54.6514C45.7874 54.6005 46.6368 55.0528 46.7135 55.0082L47.3522 54.6514C47.2819 54.6833 47.2564 54.6387 46.3941 54.2946Z" fill="#FF8C00"/>
<path d="M48.7555 56.6055C47.938 57.2426 48.0465 56.4717 48.2509 58.1473C48.2509 58.1982 48.2509 58.2365 48.2126 58.2492C48.8194 57.8733 48.8513 57.9243 48.8513 57.7905C48.7763 57.4001 48.7441 57.0028 48.7555 56.6055Z" fill="#FF8C00"/>
<path d="M48.3591 55.1979C47.7718 53.5924 48.091 53.7644 47.1526 54.2805C47.3313 54.1785 47.4399 54.7264 47.7399 55.5547C47.8293 55.8223 49.1188 56.4212 48.7741 56.6123L49.3933 56.2874C49.7252 56.0771 48.4485 55.4719 48.3591 55.1979Z" fill="#FF8C00"/>
<path d="M47.352 54.4332C47.9903 56.1852 47.4733 55.3124 48.7053 56.3445C49.1841 56.7013 48.067 56.8159 48.1053 57.0708C48.1627 57.7843 48.3861 58.396 48.1053 58.2494C47.984 58.1793 47.2945 57.2109 47.1605 57.2109C45.8837 57.2109 46.2284 57.383 46.3497 56.0705C46.3497 55.9558 46.2923 55.9176 45.7113 54.86C45.4241 54.3695 46.3497 54.9365 46.6497 55.0129C46.771 55.0575 46.7391 54.9492 47.1413 54.3057C47.1541 54.2611 47.3137 54.3121 47.352 54.4332Z" fill="#FFC033"/>
<path d="M63.8399 72.5578C61.7397 71.3409 60.0098 68.0534 60.0098 65.2502C60.0098 63.6765 60.0098 62.2112 60.9545 61.9564C61.4364 61.8229 61.9406 61.7897 62.4358 61.8588C62.931 61.9278 63.4068 62.0976 63.8335 62.3577C65.9401 63.5746 67.6637 66.8621 67.6637 69.6653C67.6637 72.1628 66.2593 73.0483 64.5166 73.0101C64.2932 73.0037 64.0761 72.6852 63.8399 72.5578Z" fill="#056600"/>
<path d="M88.5129 60.5976V119.848L89.9628 118.683C90.084 118.607 90.184 118.502 90.2533 118.377C90.3226 118.252 90.3589 118.112 90.3588 117.969V59.2852" fill="#CEEEF4"/>
<path d="M90.359 59.5632V51.9179C90.3589 51.8933 90.3524 51.8692 90.3401 51.8479C90.3277 51.8267 90.3099 51.809 90.2886 51.7968C90.2672 51.7845 90.243 51.7781 90.2184 51.7781C90.1938 51.7781 90.1696 51.7846 90.1482 51.7969L88.5132 52.8162V60.5889" fill="#000BDE"/>
<path d="M90.2489 52.1598L88.5445 53.1027C88.4717 53.1447 88.3891 53.1667 88.3051 53.1667C88.221 53.1667 88.1385 53.1447 88.0657 53.1027L11.4622 8.62638V8.57541L13.3006 7.51781C13.4377 7.43959 13.5928 7.39844 13.7507 7.39844C13.9086 7.39844 14.0637 7.43959 14.2007 7.51781L90.2489 51.6756C90.2913 51.7003 90.3265 51.7357 90.3509 51.7781C90.3753 51.8206 90.3882 51.8687 90.3882 51.9177C90.3882 51.9667 90.3753 52.0148 90.3509 52.0573C90.3265 52.0998 90.2913 52.1351 90.2489 52.1598Z" fill="url(#paint9_linear)"/>
<path d="M11.3799 16.4106V8.90551C11.3799 8.61245 11.5586 8.47865 11.7757 8.60607L88.1175 52.5663C88.2383 52.653 88.337 52.7668 88.4058 52.8984C88.4745 53.0301 88.5113 53.176 88.5133 53.3245V60.6002" fill="url(#paint10_linear)"/>
<path d="M15.8476 16.4433C16.3247 16.2407 16.4216 15.3966 16.0641 14.558C15.7065 13.7194 15.0299 13.2037 14.5528 13.4063C14.0757 13.609 13.9788 14.453 14.3364 15.2917C14.6939 16.1303 15.3705 16.6459 15.8476 16.4433Z" fill="white"/>
<path d="M19.8367 18.7404C20.3138 18.5378 20.4107 17.6937 20.0531 16.8551C19.6956 16.0165 19.0189 15.5009 18.5418 15.7035C18.0647 15.9061 17.9678 16.7502 18.3254 17.5888C18.6829 18.4274 19.3596 18.943 19.8367 18.7404Z" fill="white"/>
<path d="M23.8203 21.0371C24.2974 20.8345 24.3943 19.9904 24.0368 19.1517C23.6792 18.3131 23.0026 17.7975 22.5255 18.0001C22.0484 18.2027 21.9515 19.0468 22.309 19.8854C22.6666 20.7241 23.3432 21.2397 23.8203 21.0371Z" fill="white"/>
<path d="M17.9676 60.1103L46.4641 76.5285C46.7322 76.6814 46.9492 76.5285 46.9492 76.1653C46.9468 75.9832 46.9016 75.8043 46.8173 75.6427C46.7331 75.4812 46.6121 75.3416 46.4641 75.2352L17.9676 58.7978C17.6995 58.6449 17.4824 58.7978 17.4824 59.1673C17.4818 59.3518 17.5256 59.5337 17.61 59.6977C17.6944 59.8618 17.8171 60.0033 17.9676 60.1103Z" fill="#A4D4FC"/>
<path d="M17.9678 64.4185L46.4643 80.8432C46.7324 80.9961 46.9495 80.8432 46.9495 80.4736C46.946 80.2917 46.9004 80.1131 46.8162 79.9517C46.7321 79.7904 46.6116 79.6506 46.4643 79.5435L17.9678 63.1252C17.6997 62.9723 17.4827 63.1252 17.4827 63.4947C17.4851 63.6759 17.5303 63.854 17.6146 64.0145C17.6989 64.175 17.8199 64.3134 17.9678 64.4185Z" fill="#A4D4FC"/>
<path d="M17.9676 68.8123L46.4641 85.2304C46.7322 85.3833 46.9492 85.2304 46.9492 84.8609C46.9468 84.6797 46.9016 84.5016 46.8173 84.3411C46.733 84.1806 46.612 84.0422 46.4641 83.9371L17.9676 67.5189C17.6995 67.3597 17.4824 67.5189 17.4824 67.8821C17.4859 68.064 17.5315 68.2426 17.6156 68.404C17.6998 68.5654 17.8203 68.7051 17.9676 68.8123Z" fill="#A4D4FC"/>
<path d="M62.9404 72.5576C60.8401 71.3408 59.1101 68.0533 59.1101 65.2501C59.1101 62.4468 60.8337 61.1407 62.9404 62.3576C65.047 63.5745 66.7706 66.8619 66.7706 69.6652C66.7642 72.4684 65.047 73.7681 62.9404 72.5576Z" fill="#46A823"/>
<path d="M75.7835 78.1537C73.6769 76.9368 71.9534 73.6493 71.9534 70.846C71.9534 69.2724 71.9534 67.807 72.8918 67.5522C73.3749 67.4205 73.8797 67.3882 74.3757 67.4572C74.8717 67.5262 75.3485 67.6951 75.7771 67.9536C77.8773 69.1704 79.6073 72.4579 79.6073 75.2612C79.6073 77.7586 78.2093 78.6442 76.4666 78.606C76.2048 78.5869 76.0133 78.2874 75.7835 78.1537Z" fill="#931032"/>
<path d="M74.8851 78.1519C72.7785 76.9351 71.0549 73.6476 71.0549 70.8443C71.0549 68.041 72.7721 66.735 74.8851 67.9519C76.9854 69.1687 78.7153 72.4562 78.7153 75.2595C78.7089 78.0627 76.9854 79.3624 74.8851 78.1519Z" fill="#FF4242"/>
<path d="M61.3696 67.1538L62.3208 69.0078L65.0593 66.7651" stroke="white" stroke-width="2" stroke-linecap="round" stroke-linejoin="round"/>
<path d="M76.2191 75.5978L73.5444 70.501" stroke="white" stroke-width="2" stroke-miterlimit="10" stroke-linecap="round"/>
<path d="M73.5444 74.0628L76.2191 72.0432" stroke="white" stroke-width="2" stroke-miterlimit="10" stroke-linecap="round"/>
<path d="M79.7413 96.5751L79.4924 96.7216C79.6315 96.4657 79.7162 96.184 79.7413 95.894C79.703 95.633 79.9072 96.4733 79.9072 96.4733" fill="#0072E7"/>
<path d="M78.6375 96.8191L58.5036 85.2174C58.1667 84.9764 57.8909 84.6603 57.6981 84.2942C57.5052 83.9281 57.4007 83.5221 57.3928 83.1086V76.935C57.3928 76.1195 57.8907 75.75 58.5036 76.1004L78.6375 87.7021C78.9735 87.9434 79.2483 88.2597 79.4401 88.6259C79.6318 88.992 79.7352 89.3978 79.7418 89.8109V95.9845C79.7418 96.7936 79.2439 97.1695 78.6375 96.8191Z" fill="url(#paint11_linear)"/>
<path d="M63.8274 85.5947V81.8867L64.4083 82.2244V83.7917L65.8957 84.6518V83.0463L66.483 83.3839V87.0919L65.8957 86.7542V85.1805L64.4083 84.3205V85.8941L63.8274 85.5947Z" fill="white"/>
<path d="M67.6967 84.1033V87.8112L67.1155 87.4736V83.7656L67.6967 84.1033Z" fill="white"/>
<path d="M68.3281 88.1738V84.4658L69.5347 85.1603C69.8814 85.355 70.1717 85.6359 70.3773 85.9758C70.5673 86.2844 70.6689 86.6392 70.671 87.0015C70.6845 87.2013 70.633 87.4002 70.5242 87.5685C70.4713 87.6293 70.4034 87.6754 70.3273 87.7022C70.2512 87.729 70.1695 87.7356 70.0901 87.7214L70.7859 89.5945L70.1475 89.2186L69.5091 87.4984L68.9154 87.1544V88.5114L68.3281 88.1738ZM68.9154 86.5937L69.4517 86.9059C69.6687 87.027 69.8219 87.0716 69.9241 87.0206C70.0262 86.9696 70.0773 86.8549 70.0773 86.6574C70.078 86.4642 70.0249 86.2745 69.9241 86.1095C69.8029 85.9262 69.6385 85.7752 69.4453 85.6699L68.9154 85.3641V86.5937Z" fill="white"/>
<path d="M71.207 89.831V86.1294L73.3008 87.3335V87.8942L71.7879 87.0277V88.0343L73.1923 88.8371V89.4169L71.7879 88.6077V89.6207L73.3136 90.4936V91.0606L71.207 89.831Z" fill="white"/>
<path d="M79.743 96.5771L80.6372 96.061C80.7003 96.0232 80.7527 95.9701 80.7896 95.9066C80.8264 95.8431 80.8465 95.7712 80.8479 95.6979V88.8235C80.8506 88.748 80.8325 88.6733 80.7956 88.6073C80.7587 88.5414 80.7044 88.4868 80.6386 88.4494C80.5729 88.412 80.4981 88.3932 80.4224 88.3952C80.3467 88.3971 80.273 88.4196 80.2093 88.4603L79.941 88.6132C79.8766 88.6496 79.8232 88.7024 79.7861 88.7662C79.749 88.8301 79.7298 88.9026 79.7302 88.9764L79.743 96.5771Z" fill="#0072E7"/>
<path d="M79.7038 88.2492C79.5988 88.309 79.48 88.3404 79.3591 88.3404C79.2382 88.3404 79.1194 88.309 79.0143 88.2492L57.8335 76.0358L58.5931 75.5962C58.696 75.5304 58.8156 75.4954 58.9379 75.4954C59.0601 75.4954 59.1797 75.5304 59.2826 75.5962L79.8698 87.4655L79.7038 88.2492Z" fill="#0072E7"/>
<path d="M79.7422 89.7903C79.6883 89.4406 79.5644 89.1052 79.378 88.8042C79.1916 88.5032 78.9463 88.2428 78.6569 88.0383C77.3802 87.1145 79.3655 87.1718 79.3655 87.1718C79.3655 87.1718 80.8466 87.809 80.8466 88.7391C80.8466 89.6693 79.7422 89.7903 79.7422 89.7903Z" fill="#0072E7"/>
<path d="M77.4824 67.1933V126.368C77.4824 126.661 77.3037 126.795 77.0803 126.667L0.668182 82.7068C0.546835 82.6271 0.445263 82.5208 0.371162 82.3961C0.29706 82.2714 0.25237 82.1314 0.240479 81.9869L0.240479 23.0037" fill="#EAFCFF"/>
<path d="M71.5071 117.506C71.5071 112.18 71.5071 73.1191 71.5071 73.1191L73.0399 72.482C73.0774 72.463 73.1193 72.4546 73.1612 72.4577C73.2031 72.4607 73.2434 72.4752 73.2776 72.4995C73.3118 72.5238 73.3387 72.557 73.3554 72.5955C73.372 72.6339 73.3778 72.6762 73.3721 72.7177L73.3146 116.302C73.3146 116.506 71.935 117.36 71.7498 117.468C71.737 117.449 71.5071 117.564 71.5071 117.506Z" fill="#E8E8E8"/>
<path d="M71.61 73.405L71.5462 73.2967L44.5243 57.9488L44.2881 58.0826C44.312 57.9978 44.3509 57.918 44.403 57.8469C44.4668 57.7832 45.7755 57.0696 45.7755 57.0696C45.9542 56.9677 46.1968 57.1397 46.35 57.2289L73.1612 72.4111C73.2144 72.4345 73.2596 72.4729 73.2914 72.5216C73.3231 72.5702 73.34 72.627 73.34 72.685C73.34 72.685 73.34 72.685 73.2825 72.7169L71.61 73.405Z" fill="url(#paint12_linear)"/>
<path d="M71.3789 117.485L44.5677 102.316C44.4719 102.246 44.3937 102.155 44.3394 102.05C44.285 101.945 44.2561 101.829 44.2549 101.71V58.1961C44.2549 57.9667 44.3953 57.8584 44.5677 57.9603L71.3789 73.1298C71.4754 73.1977 71.5546 73.2872 71.6101 73.3913C71.6655 73.4953 71.6957 73.6109 71.6981 73.7287V117.23C71.6981 117.479 71.5513 117.587 71.3789 117.485Z" fill="white"/>
<path d="M40.0934 99.9019C40.0551 94.5757 40.0934 55.5147 40.0934 55.5147L41.7851 54.6865C42.1617 54.489 42.1234 54.6865 42.1234 54.9159L42.066 98.5002C42.066 98.7041 40.4382 99.6279 40.3232 99.7744C40.3041 99.7681 40.0934 99.9592 40.0934 99.9019Z" fill="#E8E8E8"/>
<path d="M40.2028 55.8036L40.1389 55.6953L3.61189 34.5243L3.38208 34.6645C3.4038 34.5769 3.44287 34.4946 3.49699 34.4224C3.55444 34.365 5.14396 33.505 5.14396 33.505C5.21173 33.4589 5.2918 33.4343 5.37377 33.4343C5.45574 33.4343 5.53581 33.4589 5.60358 33.505L41.9264 54.5294C41.9791 54.5535 42.0238 54.5921 42.0555 54.6406C42.0871 54.6891 42.1043 54.7455 42.1051 54.8034C42.1051 54.8034 42.1051 54.8034 42.0476 54.8034L40.2028 55.8036Z" fill="url(#paint13_linear)"/>
<path d="M39.9725 99.8751L3.67535 78.8888C3.58038 78.8199 3.50271 78.73 3.44844 78.626C3.39417 78.5221 3.36477 78.4071 3.36255 78.2899V34.782C3.36255 34.5526 3.50299 34.4443 3.67535 34.5463L39.9725 55.5325C40.0735 55.6049 40.1554 55.7007 40.211 55.8117C40.2666 55.9227 40.2943 56.0455 40.2917 56.1696V99.6712C40.2917 99.8687 40.1449 99.977 39.9725 99.8751Z" fill="white"/>
<path d="M24.5422 63.7634L37.3669 71.1538C37.5967 71.2876 37.8009 71.1156 37.8201 70.7715C37.8356 70.6078 37.8098 70.4427 37.7452 70.2914C37.6805 70.1401 37.579 70.0073 37.4498 69.9051L24.6251 62.5146C24.3953 62.3872 24.1911 62.5592 24.1655 62.9033C24.1524 63.0665 24.18 63.2304 24.2457 63.3805C24.3114 63.5305 24.4132 63.6621 24.5422 63.7634Z" fill="#A4D4FC"/>
<path d="M24.2939 67.4274L37.1186 74.8178C37.3484 74.9516 37.5527 74.7796 37.5782 74.4355C37.5919 74.2723 37.5646 74.1081 37.4989 73.958C37.4331 73.8078 37.331 73.6764 37.2016 73.5755L24.3768 66.1787C24.147 66.0513 23.9428 66.2233 23.9236 66.5673C23.908 66.7302 23.9338 66.8943 23.9985 67.0446C24.0632 67.195 24.1648 67.3266 24.2939 67.4274Z" fill="#A4D4FC"/>
<path d="M13.5623 43.0058C13.5623 43.0058 10.0258 40.8142 9.15761 45.6625C8.87035 47.2362 10.0066 49.1093 9.32997 50.0395C8.6533 50.9696 6.6233 51.25 7.26167 53.448C7.90003 55.646 5.46148 55.9964 6.55308 59.1118C7.64469 62.2273 19.5566 68.5155 20.5077 67.4643C21.4589 66.4131 21.1461 63.1893 20.2652 61.4182C19.3842 59.647 19.9524 57.9396 20.1247 57.0986C20.4758 55.3784 19.3842 53.6136 18.7139 52.2884C18.0437 50.9633 17.833 45.5351 13.5623 43.0058Z" fill="#3D3300"/>
<path d="M9.53492 54.501C9.83673 54.4463 10.146 54.4463 10.4478 54.501L12.0373 54.7813H12.165H12.2544L13.7609 55.0489L15.2674 56.3231V56.4951L15.344 56.5716L15.5611 56.7882L17.0613 58.2472C17.4101 58.5901 17.7303 58.9609 18.0188 59.3557C19.4684 61.2928 20.2843 63.6287 20.3552 66.0453V68.5938C20.3552 68.8677 20.1892 68.9951 19.9786 68.8741L7.53044 61.7449C7.41615 61.6621 7.32265 61.554 7.2573 61.4291C7.19195 61.3042 7.15652 61.1659 7.15381 61.025V58.4765C7.15381 56.2403 8.08582 54.7304 9.53492 54.501Z" fill="url(#paint14_linear)"/>
<path d="M10.0898 48.0701C10.1345 47.5922 10.5048 47.8917 10.6069 47.9809C10.6069 47.8237 10.6069 47.6644 10.6069 47.503C10.6069 44.8336 12.0241 43.4829 13.7987 44.4895C15.5734 45.4962 16.9906 48.4842 16.9906 51.1537C16.9906 51.3129 16.9906 51.4722 16.9906 51.6187C17.1417 51.6596 17.2751 51.7492 17.3698 51.8737C17.4645 51.9982 17.5152 52.1505 17.514 52.3068C17.5651 52.9439 16.8757 53.7021 16.582 53.3262C16.4762 53.5961 16.3103 53.8384 16.0969 54.0349C15.8835 54.2313 15.628 54.3768 15.35 54.4602V56.5691C14.4499 56.9195 13.2434 56.2186 12.3433 54.8361V52.7146C11.8032 51.9337 11.3876 51.074 11.1112 50.1661C10.7282 50.198 10.0388 48.6435 10.0898 48.0701Z" fill="#FFD199"/>
<path d="M12.905 45.4559C13.5644 47.1126 14.4379 48.6761 15.5032 50.1068C15.8352 50.5273 16.914 51.6168 16.914 51.6168C17.3532 51.1509 17.6417 50.5638 17.7419 49.932C17.8421 49.3002 17.7494 48.6529 17.4758 48.0745C16.314 45.2521 15.0053 43.7931 13.8435 43.1496C12.3497 42.3214 11.0984 42.8374 10.7218 43.5191C10.0515 44.7296 10.6069 48.3293 10.6069 48.3293C10.7039 47.6818 10.8512 47.0427 11.0474 46.418C11.2516 45.9019 12.905 45.4559 12.905 45.4559Z" fill="#3D3300"/>
<path d="M24.9903 55.418C24.92 55.418 24.9456 55.418 24.3069 55.7747C24.3899 55.7238 25.233 56.1761 25.316 56.1315L25.9547 55.7684C25.8781 55.8002 25.8525 55.7556 24.9903 55.418Z" fill="#FF8C00"/>
<path d="M27.3581 57.7263C26.5342 58.3634 26.6491 57.5989 26.8471 59.2681C26.8581 59.2841 26.864 59.3029 26.864 59.3223C26.864 59.3416 26.8581 59.3605 26.8471 59.3764C27.4539 59.0005 27.4858 59.0515 27.4858 58.9113C27.3998 58.5222 27.3569 58.1248 27.3581 57.7263Z" fill="#FF8C00"/>
<path d="M26.9557 56.3238C26.3748 54.7182 26.6876 54.8903 25.7556 55.3999C25.928 55.298 26.0365 55.8523 26.3429 56.6742C26.4131 56.9226 27.6898 57.5597 27.3706 57.7445L28.009 57.3877C28.3281 57.1966 27.0514 56.5913 26.9557 56.3238Z" fill="#FF8C00"/>
<path d="M25.9541 55.5501C26.5925 57.3085 26.0754 56.4357 27.301 57.4614C27.7862 57.8118 26.6627 57.9329 26.7074 58.1877C26.7584 58.9013 26.9819 59.5129 26.7074 59.3664C26.5861 59.2899 25.8967 58.3279 25.7563 58.3279C24.4796 58.3279 24.8307 58.4935 24.952 57.1875C24.952 57.0664 24.8945 57.0346 24.3136 55.977C24.0264 55.4864 24.952 56.0471 25.252 56.1299C25.3669 56.1745 25.3413 56.0662 25.7371 55.4227C25.7754 55.3845 25.9158 55.4354 25.9541 55.5501Z" fill="#FFC033"/>
<path d="M30.1219 58.606C30.0516 58.606 30.0772 58.606 29.4385 58.9627C29.5215 58.9118 30.3646 59.3641 30.4476 59.3195L31.0863 58.9564C31.0097 58.9882 30.9841 58.9436 30.1219 58.606Z" fill="#FF8C00"/>
<path d="M32.4906 60.9106C31.6667 61.5478 31.7817 60.7832 31.9797 62.4524C31.9797 62.5098 31.9797 62.5416 31.9797 62.5607C32.5864 62.1849 32.6184 62.2358 32.6184 62.0957C32.5323 61.7065 32.4895 61.3091 32.4906 60.9106Z" fill="#FF8C00"/>
<path d="M32.088 59.5117C31.5071 57.9062 31.8199 58.0782 30.8879 58.5879C31.0603 58.486 31.1688 59.0403 31.4752 59.8621C31.5646 60.1297 32.8476 60.735 32.5029 60.9261L33.1413 60.5693C33.4349 60.3846 32.1582 59.7793 32.088 59.5117Z" fill="#FF8C00"/>
<path d="M31.0864 58.7381C31.7248 60.4965 31.2077 59.6237 32.4334 60.6494C32.9186 60.9998 31.795 61.1209 31.8333 61.3757C31.8908 62.0893 32.1142 62.7009 31.8333 62.5544C31.7056 62.4779 31.0162 61.5159 30.8821 61.5159C29.6053 61.5159 29.9564 61.6815 30.0777 60.3755C30.0777 60.2544 30.0203 60.2226 29.4394 59.165C29.1521 58.6744 30.0777 59.2351 30.3778 59.3179C30.4927 59.3625 30.4672 59.2542 30.863 58.6107C30.8821 58.5725 31.0481 58.6234 31.0864 58.7381Z" fill="#FFC033"/>
<path d="M35.2547 61.1531C35.1781 61.1531 35.21 61.1531 34.5649 61.5099C34.6544 61.4589 35.4974 61.9112 35.5805 61.8666L36.2192 61.5035C36.1425 61.5353 36.117 61.4907 35.2547 61.1531Z" fill="#FF8C00"/>
<path d="M37.6182 63.4617C36.8007 64.0988 36.9156 63.3342 37.1136 65.0035C37.1136 65.0608 37.1136 65.0927 37.1136 65.1118C37.7204 64.7359 37.7523 64.7869 37.7523 64.6467C37.6672 64.2573 37.6223 63.8602 37.6182 63.4617Z" fill="#FF8C00"/>
<path d="M37.2197 62.0591C36.6387 60.4536 36.9515 60.6256 36.0195 61.1353C36.1919 61.0334 36.3004 61.5876 36.6004 62.4095C36.6962 62.6771 37.9793 63.2824 37.6346 63.4735L38.273 63.1167C38.5921 62.932 37.309 62.3267 37.2197 62.0591Z" fill="#FF8C00"/>
<path d="M36.2179 61.2884C36.8563 63.0468 36.3392 62.174 37.5648 63.1997C38.0436 63.5502 36.9265 63.6712 36.9648 63.9261C37.0222 64.6396 37.2457 65.2512 36.9648 65.1047C36.8371 65.0283 36.1477 64.0662 36.0136 64.0662C34.7369 64.0662 35.088 64.2319 35.2029 62.9258C35.2029 62.8047 35.1519 62.7729 34.5646 61.7153C34.2773 61.2247 35.2029 61.7854 35.503 61.8682C35.6179 61.9128 35.5923 61.8045 35.9881 61.161C35.9881 61.1228 36.1732 61.1737 36.2179 61.2884Z" fill="#FFC033"/>
<path d="M52.7074 79.411C50.6008 78.2005 48.8772 74.913 48.8772 72.1097C48.8772 70.5297 48.8772 69.0708 49.8156 68.8159C50.2985 68.6827 50.8037 68.6496 51.2999 68.7187C51.7962 68.7877 52.273 68.9574 52.701 69.2173C54.8013 70.4278 56.5312 73.7152 56.5312 76.5249C56.5312 79.0223 55.1332 79.9079 53.3841 79.8697C53.1543 79.8569 52.9372 79.5448 52.7074 79.411Z" fill="#056600"/>
<path d="M77.3811 67.4545V126.705L78.8237 125.539C78.9466 125.463 79.048 125.358 79.1184 125.232C79.1887 125.106 79.2257 124.964 79.2258 124.819V66.1484" fill="#CEEEF4"/>
<path d="M79.2255 66.4223V58.7771C79.2262 58.7515 79.2198 58.7263 79.2072 58.7041C79.1945 58.6819 79.176 58.6636 79.1537 58.6511C79.1313 58.6386 79.106 58.6325 79.0804 58.6334C79.0548 58.6342 79.03 58.6421 79.0085 58.656L77.3809 59.6754V67.4417" fill="#000BDE"/>
<path d="M79.0787 59.021L77.4062 59.983C77.334 60.0269 77.2512 60.0501 77.1668 60.0501C77.0823 60.0501 76.9995 60.0269 76.9274 59.983L0.355713 15.513V15.462L2.1942 14.4044C2.33241 14.3262 2.48857 14.2852 2.64744 14.2852C2.8063 14.2852 2.96246 14.3262 3.10067 14.4044L79.0659 58.5431C79.1075 58.5671 79.1423 58.6013 79.1669 58.6425C79.1915 58.6837 79.205 58.7305 79.2063 58.7785C79.2076 58.8264 79.1965 58.8739 79.1742 58.9163C79.1518 58.9588 79.1189 58.9948 79.0787 59.021Z" fill="url(#paint15_linear)"/>
<path d="M0.240479 23.2644V15.7656C0.240479 15.4726 0.41922 15.3388 0.636263 15.4662L76.978 59.4265C77.1003 59.5121 77.2005 59.6255 77.2704 59.7573C77.3403 59.889 77.3779 60.0355 77.3801 60.1846V67.4667" fill="url(#paint16_linear)"/>
<path d="M4.71551 23.3029C5.19261 23.1003 5.28952 22.2562 4.93198 21.4176C4.57444 20.5789 3.89783 20.0633 3.42074 20.266C2.94364 20.4686 2.84673 21.3127 3.20427 22.1513C3.56181 22.9899 4.23842 23.5055 4.71551 23.3029Z" fill="white"/>
<path d="M8.69893 25.5959C9.17603 25.3933 9.27294 24.5492 8.91539 23.7106C8.55784 22.8719 7.88123 22.3563 7.40414 22.5589C6.92704 22.7615 6.83013 23.6056 7.18768 24.4443C7.54523 25.2829 8.22184 25.7985 8.69893 25.5959Z" fill="white"/>
<path d="M12.6804 27.8967C13.1575 27.6941 13.2544 26.85 12.8969 26.0114C12.5393 25.1727 11.8627 24.6571 11.3856 24.8597C10.9085 25.0623 10.8116 25.9064 11.1691 26.745C11.5267 27.5837 12.2033 28.0993 12.6804 27.8967Z" fill="white"/>
<path d="M6.82817 66.9526L35.3503 83.3709C35.6184 83.5238 35.8354 83.3709 35.8354 83.0013C35.833 82.8202 35.7878 82.6421 35.7035 82.4816C35.6192 82.3211 35.4982 82.1827 35.3503 82.0775L6.82817 65.6593C6.56006 65.5 6.34302 65.6593 6.34302 66.0225C6.34548 66.2045 6.39065 66.3835 6.4749 66.5451C6.55915 66.7066 6.68014 66.8462 6.82817 66.9526Z" fill="#A4D4FC"/>
<path d="M6.82793 71.2784L35.35 87.6966C35.6182 87.8559 35.8352 87.6966 35.8352 87.3335C35.8327 87.1514 35.7876 86.9724 35.7033 86.8109C35.6191 86.6494 35.4981 86.5098 35.35 86.4033L6.82793 69.9851C6.55982 69.8322 6.34277 69.9851 6.34277 70.3546C6.34522 70.5358 6.39043 70.7139 6.47472 70.8744C6.55901 71.0349 6.68002 71.1733 6.82793 71.2784Z" fill="#A4D4FC"/>
<path d="M6.82817 75.6685L35.3503 92.0868C35.6184 92.2461 35.8354 92.0868 35.8354 91.7236C35.832 91.5417 35.7864 91.3631 35.7022 91.2017C35.6181 91.0404 35.4976 90.9006 35.3503 90.7935L6.82817 74.3752C6.56006 74.2223 6.34302 74.3752 6.34302 74.7447C6.34547 74.9259 6.39067 75.104 6.47497 75.2645C6.55926 75.425 6.68026 75.5634 6.82817 75.6685Z" fill="#A4D4FC"/>
<path d="M51.808 79.4121C49.7014 78.2016 47.9778 74.9141 47.9778 72.1109C47.9778 69.3012 49.7014 68.0015 51.808 69.2184C53.9082 70.4289 55.6382 73.7164 55.6382 76.526C55.6318 79.3293 53.9082 80.629 51.808 79.4121Z" fill="#46A823"/>
<path d="M64.6452 85.0153C62.5449 83.7985 60.8149 80.511 60.8149 77.7077C60.8149 76.1277 60.8149 74.6687 61.7597 74.4139C62.2416 74.2805 62.7458 74.2473 63.241 74.3163C63.7362 74.3853 64.212 74.5552 64.6388 74.8152C66.7454 76.0258 68.469 79.3196 68.469 82.1229C68.469 84.6203 67.0646 85.5059 65.3218 85.4677C65.0984 85.4613 64.875 85.1428 64.6452 85.0153Z" fill="#931032"/>
<path d="M63.7444 85.0161C61.6443 83.7992 59.9143 80.5118 59.9143 77.7085C59.9143 74.8989 61.6379 73.5992 63.7444 74.8161C65.851 76.0266 67.5746 79.3204 67.5746 82.1237C67.5682 84.9588 65.851 86.233 63.7444 85.0161Z" fill="#FF4242"/>
<path d="M50.2317 74.0136L51.1828 75.8612L53.9214 73.625" stroke="white" stroke-width="2" stroke-linecap="round" stroke-linejoin="round"/>
<path d="M65.0859 82.457L62.4111 77.3601" stroke="white" stroke-width="2" stroke-miterlimit="10" stroke-linecap="round"/>
<path d="M62.4114 80.9195L65.0862 78.9062" stroke="white" stroke-width="2" stroke-miterlimit="10" stroke-linecap="round"/>
<path d="M68.6028 103.431L68.3604 103.577C68.4958 103.323 68.5783 103.043 68.6028 102.756C68.5646 102.489 68.7751 103.335 68.7751 103.335" fill="#0072E7"/>
<path d="M67.4974 103.673L47.3634 92.0709C47.0268 91.8317 46.7513 91.5167 46.5595 91.1514C46.3676 90.7861 46.2647 90.3809 46.259 89.9685V83.7949C46.259 82.9794 46.7506 82.6099 47.3634 82.9603L67.4974 94.562C67.8346 94.8022 68.1102 95.1183 68.3021 95.4847C68.494 95.8511 68.5967 96.2574 68.6018 96.6708V102.838C68.6018 103.654 68.1103 104.029 67.4974 103.673Z" fill="url(#paint17_linear)"/>
<path d="M51.4124 91.7992V88.0977L51.9933 88.429V90.0026L53.4871 90.8563V89.289L54.068 89.6267V93.3347L53.4871 92.997V91.4233L51.9933 90.5633V92.1369L51.4124 91.7992Z" fill="white"/>
<path d="M55.925 90.6892V94.3908L55.3374 94.0595V90.3516L55.925 90.6892Z" fill="white"/>
<path d="M57.1956 95.0616V91.3281L58.402 92.0226C58.7515 92.2136 59.0426 92.4954 59.2447 92.8381C59.4315 93.1478 59.5308 93.5023 59.5319 93.8638C59.5489 94.062 59.4971 94.2599 59.3851 94.4245C59.3354 94.4875 59.2689 94.5352 59.1933 94.5623C59.1176 94.5893 59.0359 94.5945 58.9574 94.5774L59.6532 96.4504L59.0148 96.0746L58.3765 94.3544L57.7828 94.0103V95.3674L57.1956 95.0616ZM57.7765 93.4815L58.3127 93.7873C58.5297 93.9148 58.6893 93.953 58.7914 93.9084C58.8936 93.8638 58.9382 93.7427 58.9382 93.5452C58.9389 93.3528 58.8883 93.1637 58.7914 92.9973C58.6702 92.814 58.5058 92.663 58.3127 92.5577L57.7765 92.2519V93.4815Z" fill="white"/>
<path d="M60.7053 97.165V93.457L62.7992 94.6612V95.2218L61.2926 94.3554V95.362L62.6907 96.1711V96.7318L61.2926 95.9226V96.9356L62.7992 97.8148V98.3755L60.7053 97.165Z" fill="white"/>
<path d="M68.6029 103.433L69.5034 102.917C69.5661 102.881 69.6181 102.829 69.654 102.766C69.6899 102.704 69.7085 102.633 69.7078 102.561V95.6798C69.7092 95.6049 69.6902 95.5309 69.6529 95.4659C69.6155 95.4009 69.5611 95.3472 69.4956 95.3106C69.43 95.274 69.3557 95.2558 69.2806 95.258C69.2055 95.2602 69.1324 95.2827 69.0691 95.323L68.8009 95.4759C68.7369 95.5127 68.6838 95.5657 68.6468 95.6294C68.6098 95.6931 68.5903 95.7654 68.5901 95.8391L68.6029 103.433Z" fill="#000BDE"/>
<path d="M68.545 95.1118C68.44 95.1716 68.3212 95.203 68.2003 95.203C68.0794 95.203 67.9606 95.1716 67.8555 95.1118L46.6938 82.873L47.4599 82.4397C47.5627 82.3739 47.6824 82.3389 47.8046 82.3389C47.9268 82.3389 48.0465 82.3739 48.1493 82.4397L68.7301 94.3027L68.545 95.1118Z" fill="#000BDE"/>
<path d="M68.6032 96.6536C68.5498 96.3045 68.4268 95.9696 68.2415 95.6686C68.0562 95.3677 67.8123 95.1069 67.5244 94.9016C66.2476 93.9778 68.2266 94.0351 68.2266 94.0351C68.2266 94.0351 69.7076 94.6722 69.7076 95.6024C69.7076 96.5326 68.6032 96.6536 68.6032 96.6536Z" fill="#000BDE"/>
<path opacity="0.2" fill-rule="evenodd" clip-rule="evenodd" d="M40.3683 127.006L27.0841 119.45C25.6351 118.813 23.5668 118.265 22.0922 119.029C20.7452 119.73 18.5301 121.157 17.5535 121.718C16.8066 122.138 14.2276 123.68 15.8363 124.553C20.5665 127.101 25.2457 130.006 30.0525 132.619C31.1888 133.134 32.4459 133.326 33.6847 133.173C35.065 133.07 36.4066 132.67 37.617 132.001L39.9726 130.637C41.0131 130.032 41.5685 129.312 41.6195 128.649C41.6706 127.987 41.262 127.407 40.3683 127.006Z" fill="#008BDC"/>
<path fill-rule="evenodd" clip-rule="evenodd" d="M26.3502 117.136C26.3022 117.956 26.1076 118.761 25.7756 119.512C25.6161 119.684 25.4182 119.786 25.3224 119.984C24.8245 121.041 24.716 122.061 25.0671 127.483H26.3438L26.5098 125.571C26.6693 124.8 27.1034 123.66 27.2822 122.959C27.6652 121.424 27.7035 120.659 27.9205 119.532L26.3502 117.136Z" fill="#FFC3AE"/>
<path fill-rule="evenodd" clip-rule="evenodd" d="M23.6747 123.663C23.5282 123.657 23.3829 123.635 23.2407 123.6C23.1769 123.523 23.0557 123.167 23.145 123.097C23.2343 123.027 23.63 123.555 23.6747 123.663Z" fill="#141A4E"/>
<path fill-rule="evenodd" clip-rule="evenodd" d="M24.3842 121.5C24.4622 121.995 24.3865 122.502 24.1672 122.953C23.631 124.711 23.3246 124.807 23.5288 125.603C23.6852 126.124 23.958 126.604 24.3268 127.005C24.5727 127.375 24.8741 127.706 25.2205 127.986C25.8589 128.451 26.4972 128.661 26.3376 127.737C26.2956 127.446 26.2229 127.16 26.1206 126.884C25.6482 125.781 25.0928 125.304 25.3928 123.934C25.6163 122.914 25.9674 122.245 25.5078 121.564L24.3842 121.5Z" fill="#141A4E"/>
<path fill-rule="evenodd" clip-rule="evenodd" d="M24.4996 120.398C24.2985 121.401 23.8336 122.334 23.1526 123.099C23.2547 123.099 23.5292 123.347 23.6761 123.659C24.7804 122.385 25.3167 121.78 25.655 122.322C25.5788 122.965 25.4658 123.603 25.3167 124.233C25.2402 124.564 25.2534 124.909 25.355 125.233C25.7827 126.272 26.5806 127.782 26.2742 128.285C26.4451 127.983 26.5249 127.637 26.504 127.291C26.504 126.577 26.3764 125.609 26.3636 125.01C26.3636 124.207 26.6445 123.507 26.6955 122.411C26.7115 122.105 26.7115 121.799 26.6955 121.493C26.6445 120.716 26.5615 119.69 26.0125 119.397C25.6913 119.317 25.352 119.353 25.0549 119.499C24.8963 119.593 24.7629 119.723 24.6661 119.88C24.5694 120.036 24.5122 120.214 24.4996 120.398Z" fill="#2A398A"/>
<path fill-rule="evenodd" clip-rule="evenodd" d="M32.0248 106.619L35.9124 95.3681L36.04 92.2781C36.0034 91.8287 35.866 91.3932 35.6379 91.0039C33.5887 91.641 32.4461 92.2781 30.2374 92.1825C29.364 93.4451 28.8139 94.9019 28.6351 96.4257C28.5712 99.127 28.7819 100.93 27.9584 105.447C25.5007 113.729 26.7775 113.417 25.8327 118.903C25.7561 119.489 27.5626 119.954 28.1755 119.584L32.0248 106.619Z" fill="#4352B5"/>
<path fill-rule="evenodd" clip-rule="evenodd" d="M32.0247 106.619L35.9124 95.3681L36.04 92.2781C36.0034 91.8287 35.866 91.3932 35.6379 91.0039C35.2229 91.125 34.8463 91.2524 34.4888 91.3734L32.2034 95.0177C31.3225 96.8079 31.0991 99.1143 30.4671 99.6431C31.1884 101.395 30.8756 104.906 30.6203 106.836C29.8798 106.588 29.1967 106.479 28.469 106.199C29.1312 106.614 29.7705 107.065 30.3841 107.55C29.5116 110.889 28.9453 114.301 28.6924 117.743L32.0247 106.619Z" fill="#2A398A"/>
<path fill-rule="evenodd" clip-rule="evenodd" d="M33.5443 121.652C33.5124 122.518 32.689 123.353 32.5932 123.913C32.3762 125.188 33.3082 124.55 34.3614 126.181C34.7891 126.181 35.7211 127.698 36.9787 127.781C37.0985 127.747 37.2066 127.68 37.2911 127.589C37.3756 127.498 37.4333 127.385 37.4577 127.263C37.4821 127.141 37.4724 127.015 37.4295 126.899C37.3867 126.782 37.3124 126.679 37.2149 126.602C36.9596 126.455 36.7297 126.564 36.5191 126.379C36.085 125.997 35.5679 122.824 35.6701 121.919L33.5443 121.652Z" fill="#FFC3AE"/>
<path fill-rule="evenodd" clip-rule="evenodd" d="M33.0597 122.926C34.0874 123.053 35.0386 125.545 35.8365 126.628C36.2195 127.156 37.0366 126.628 36.7047 126.475C37.1296 126.442 37.5565 126.442 37.9814 126.475C38.6198 126.577 38.3963 127.22 37.9814 127.52C37.0047 128.157 36.1429 128.564 35.262 128.125C35.0751 128.016 34.896 127.895 34.7258 127.762C34.596 127.677 34.4743 127.581 34.3619 127.475C34.1143 127.038 33.9008 126.582 33.7236 126.112C33.6406 125.959 33.5704 125.927 33.5129 125.971C33.4549 126.919 33.4741 127.869 33.5704 128.813C33.5704 128.94 33.1044 129.042 33.015 128.94L32.1596 124.971C32.0642 124.63 32.103 124.265 32.2681 123.952C32.5054 123.59 32.77 123.247 33.0597 122.926Z" fill="#2A398A"/>
<path fill-rule="evenodd" clip-rule="evenodd" d="M35.7341 128.313C35.5528 128.279 35.3768 128.221 35.2106 128.141C35.0238 128.032 34.8446 127.911 34.6744 127.778C34.5446 127.693 34.4228 127.597 34.3105 127.491C34.0041 127.121 33.8508 126.433 33.5061 125.962C33.621 125.892 33.9211 125.898 34.2211 126.389C34.517 127.102 34.9813 127.734 35.5745 128.23L35.7341 128.313Z" fill="#141A4E"/>
<path fill-rule="evenodd" clip-rule="evenodd" d="M38.7855 104.228C39.2805 101.966 39.414 99.6391 39.1813 97.3348C39.1047 96.0606 39.2387 95.4681 38.8238 94.2513C38.6645 93.8086 38.4636 93.3819 38.2237 92.9771C36.2704 93.5823 34.8086 94.1748 32.5935 94.0984C31.9739 95.219 31.709 96.5006 31.8338 97.7745C32.1913 100.476 33.1105 102.687 33.417 107.331C32.6573 112.727 33.2191 116.365 33.3276 121.596C33.3276 122.182 35.2426 122.647 35.7789 122.284C36.9151 116.174 37.6365 110.217 38.7855 104.228Z" fill="url(#paint18_linear)"/>
<path fill-rule="evenodd" clip-rule="evenodd" d="M28.5074 85.5425L32.4142 86.4281C33.1993 86.7785 32.6057 88.4413 31.8333 88.6324L26.4136 87.9316C25.022 87.6386 24.7156 86.7211 25.0156 86.0203V85.9757C25.105 85.5361 27.8818 81.5542 28.284 81.0127C28.6601 80.4776 29.1267 80.0119 29.6629 79.6365C29.8952 79.5103 30.1568 79.4474 30.4212 79.4541C30.6857 79.4608 30.9437 79.5369 31.1694 79.6747C31.4223 79.8049 31.6171 80.0251 31.7152 80.2917C31.8133 80.5583 31.8076 80.852 31.6992 81.1146C31.2907 82.0575 29.7778 83.9306 28.5074 85.5425Z" fill="#FB7DB9"/>
<path fill-rule="evenodd" clip-rule="evenodd" d="M30.6642 79.1535C28.3788 78.8923 28.3724 82.664 29.1704 84.4351C31.2387 89.0478 29.8981 89.7613 30.0896 91.8638L30.045 92.7111C32.0175 95.6355 37.7054 95.4125 38.414 93.2973C38.3757 93.1635 38.3501 92.6092 38.2991 92.469C38.4331 90.6151 37.5394 89.1561 37.7118 87.8883C38.0054 85.7667 39.1609 85.0213 38.5416 83.2055C37.6988 82.2575 36.6909 81.4697 35.5668 80.8801C34.0431 80.03 32.385 79.4461 30.6642 79.1535Z" fill="url(#paint19_linear)"/>
<path fill-rule="evenodd" clip-rule="evenodd" d="M46.1196 73.9607C46.758 73.0688 47.4602 71.5716 48.2071 71.1128C48.5901 70.6414 49.1518 69.9024 49.4838 69.4436C49.7455 69.106 50.1604 69.6411 49.9498 69.9661C49.7391 70.291 49.1646 71.1128 49.1646 71.1192C49.4809 71.3716 49.7052 71.7209 49.803 72.1131C49.9115 72.5591 49.2284 73.4892 48.8263 74.1264C48.4241 74.7635 47.7411 74.6997 47.5496 75.1202C46.841 75.133 46.4388 74.4959 46.1196 73.9607Z" fill="#FFC3AE"/>
<path fill-rule="evenodd" clip-rule="evenodd" d="M36.6272 81.8976C37.1379 81.5089 38.1401 81.4325 38.8678 81.133C40.1266 80.5411 41.4157 80.0158 42.7299 79.5594C42.8767 78.9223 44.5365 76.068 45.5451 74.5836C45.66 74.4243 45.8898 74.3224 45.9792 74.1949L46.2473 73.8318C46.8633 74.0072 47.4154 74.3568 47.8368 74.8384C47.7517 75.0041 47.6751 75.1761 47.607 75.3545C47.5495 75.4946 47.607 75.8578 47.5304 75.9916C47.0093 77.4661 46.3688 78.8958 45.6153 80.2666C45.4834 80.6341 45.3166 80.9882 45.1174 81.3242C44.6018 81.8321 44.0275 82.2769 43.4066 82.6493C41.9352 83.6475 40.3853 84.5254 38.7721 85.2742C37.5656 85.7457 37.0549 85.4781 36.6144 85.0449C35.5739 84.0382 35.5931 82.6748 36.6272 81.8976Z" fill="url(#paint20_linear)"/>
<path fill-rule="evenodd" clip-rule="evenodd" d="M30.6642 79.1535C28.3788 78.8923 28.3724 82.664 29.1704 84.4351C31.2387 89.0478 29.8981 89.7613 30.0896 91.8638L30.045 92.7111C32.0175 95.6355 37.7054 95.4125 38.4139 93.2973C38.4139 93.1762 38.3501 92.6984 38.3118 92.5136C36.2307 94.495 33.2049 93.9726 31.4494 92.915C31.312 92.4402 31.3276 91.9343 31.494 91.4688C32.924 89.9334 36.4542 90.4876 37.316 86.27C37.5649 85.0468 36.7542 83.97 35.9626 82.9953C35.586 82.5302 35.3242 82.2881 34.8008 81.5873C33.9773 81.7784 32.4388 81.5044 32.2473 81.1732C32.1835 81.0521 32.5091 80.0264 32.458 79.8989C31.0472 79.2746 31.5196 79.2236 30.6642 79.1535Z" fill="#F54291"/>
<path fill-rule="evenodd" clip-rule="evenodd" d="M31.4002 80.1913C31.2278 80.9431 33.9536 81.7522 34.9112 81.3445V81.1661C35.1538 80.0448 35.39 79.0955 35.5496 78.3055C36.062 78.4978 36.6212 78.5289 37.1519 78.3947C34.2601 76.0884 30.8767 74.3873 30.4426 75.5468C30.7299 76.3942 31.4704 76.9931 31.8406 77.541C31.9595 77.7766 32.0249 78.0354 32.0322 78.2991C31.8999 78.9533 31.6877 79.5888 31.4002 80.1913Z" fill="#FFC3AE"/>
<path fill-rule="evenodd" clip-rule="evenodd" d="M37.0482 78.5261C36.7992 78.6918 35.0246 78.0993 34.8841 78.1056C33.5053 78.1757 32.0243 78.0674 31.7498 77.6597C31.3796 77.1117 30.6391 76.5129 30.3518 75.6655C30.068 75.0027 29.9992 74.268 30.1548 73.5642C30.3105 72.8604 30.683 72.2228 31.22 71.7409C33.3648 69.8997 36.7354 71.244 37.2205 73.3337C37.412 74.1874 37.1695 74.2575 37.2205 74.8309C37.3578 75.5981 37.3921 76.3801 37.3227 77.1563C37.2652 77.7934 37.2141 78.4178 37.0482 78.5261Z" fill="#FFC3AE"/>
<path fill-rule="evenodd" clip-rule="evenodd" d="M31.8011 79.1841C31.8713 79.8658 33.7992 80.35 34.9929 80.076C35.1206 80.076 35.1972 80.0251 35.2418 79.9486C35.5677 80.2466 35.8061 80.6277 35.9313 81.0508C34.9227 82.0192 31.7309 81.4522 31.3479 80.3118C31.3027 80.2081 31.2786 80.0965 31.2769 79.9835C31.2753 79.8705 31.2962 79.7583 31.3383 79.6534C31.3805 79.5485 31.4431 79.453 31.5226 79.3724C31.602 79.2919 31.6967 79.2278 31.8011 79.1841Z" fill="#FB7DB9"/>
<path fill-rule="evenodd" clip-rule="evenodd" d="M26.4835 76.9219C24.6451 78.4573 23.611 81.216 24.4472 82.7832C25.2005 84.1976 27.0517 85.0322 26.4835 85.9305C26.0112 86.6759 24.9068 87.4214 26.2218 88.6191C26.8985 89.2562 28.5518 90.8936 31.9287 90.0335C35.3056 89.1734 38.6761 86.3638 35.8993 83.2611C32.982 79.9927 34.6864 79.2728 36.3653 76.7052C37.2462 75.3482 38.0378 72.666 37.2781 71.6657C36.0014 69.9583 35.1141 71.1879 33.8629 70.5827C31.4819 69.4295 29.5221 70.2577 28.3986 72.0608C27.3964 73.6726 27.939 75.705 26.4835 76.9219Z" fill="url(#paint21_linear)"/>
<defs>
<linearGradient id="paint0_linear" x1="73.4272" y1="44.4457" x2="77.4011" y2="65.0413" gradientUnits="userSpaceOnUse">
<stop stop-color="#F4F4F4"/>
<stop offset="1" stop-color="#E8E8E8"/>
</linearGradient>
<linearGradient id="paint1_linear" x1="106050" y1="33410.6" x2="108701" y2="33410.6" gradientUnits="userSpaceOnUse">
<stop stop-color="#F4F4F4"/>
<stop offset="1" stop-color="#E8E8E8"/>
</linearGradient>
<linearGradient id="paint2_linear" x1="27.5635" y1="37.6079" x2="40.8314" y2="37.6079" gradientUnits="userSpaceOnUse">
<stop stop-color="#7A8BFA"/>
<stop offset="1" stop-color="#4352B5"/>
</linearGradient>
<linearGradient id="paint3_linear" x1="21.811" y1="23.1058" x2="100.687" y2="23.1058" gradientUnits="userSpaceOnUse">
<stop stop-color="#0058E5"/>
<stop offset="1" stop-color="#000BDE"/>
</linearGradient>
<linearGradient id="paint4_linear" x1="21.7085" y1="27.3809" x2="98.8418" y2="27.3809" gradientUnits="userSpaceOnUse">
<stop stop-color="#0072E7"/>
<stop offset="1" stop-color="#0025E0"/>
</linearGradient>
<linearGradient id="paint5_linear" x1="66.3732" y1="71.6296" x2="84.5709" y2="65.2985" gradientUnits="userSpaceOnUse">
<stop stop-color="#00AED6"/>
<stop offset="1" stop-color="#008BEA"/>
</linearGradient>
<linearGradient id="paint6_linear" x1="82073.3" y1="24781.1" x2="83530.5" y2="24781.1" gradientUnits="userSpaceOnUse">
<stop stop-color="#F4F4F4"/>
<stop offset="1" stop-color="#E8E8E8"/>
</linearGradient>
<linearGradient id="paint7_linear" x1="106514" y1="33817.6" x2="109166" y2="33817.6" gradientUnits="userSpaceOnUse">
<stop stop-color="#F4F4F4"/>
<stop offset="1" stop-color="#E8E8E8"/>
</linearGradient>
<linearGradient id="paint8_linear" x1="-5735.5" y1="23347.6" x2="-5419.51" y2="23347.6" gradientUnits="userSpaceOnUse">
<stop stop-color="#7A8BFA"/>
<stop offset="1" stop-color="#4352B5"/>
</linearGradient>
<linearGradient id="paint9_linear" x1="1401.35" y1="2168.12" x2="11153.4" y2="2168.12" gradientUnits="userSpaceOnUse">
<stop stop-color="#0058E5"/>
<stop offset="1" stop-color="#000BDE"/>
</linearGradient>
<linearGradient id="paint10_linear" x1="1357.36" y1="2815.2" x2="10677.4" y2="2815.2" gradientUnits="userSpaceOnUse">
<stop stop-color="#0072E7"/>
<stop offset="1" stop-color="#0025E0"/>
</linearGradient>
<linearGradient id="paint11_linear" x1="857.263" y1="3599.9" x2="1882.86" y2="3599.9" gradientUnits="userSpaceOnUse">
<stop stop-color="#00AED6"/>
<stop offset="1" stop-color="#008BEA"/>
</linearGradient>
<linearGradient id="paint12_linear" x1="82403.2" y1="25073.6" x2="83861" y2="25073.6" gradientUnits="userSpaceOnUse">
<stop stop-color="#F4F4F4"/>
<stop offset="1" stop-color="#E8E8E8"/>
</linearGradient>
<linearGradient id="paint13_linear" x1="106916" y1="34227.4" x2="109567" y2="34227.4" gradientUnits="userSpaceOnUse">
<stop stop-color="#F4F4F4"/>
<stop offset="1" stop-color="#E8E8E8"/>
</linearGradient>
<linearGradient id="paint14_linear" x1="-6001.6" y1="23489.6" x2="-5686.22" y2="23489.6" gradientUnits="userSpaceOnUse">
<stop stop-color="#7A8BFA"/>
<stop offset="1" stop-color="#4352B5"/>
</linearGradient>
<linearGradient id="paint15_linear" x1="12.9718" y1="2667.74" x2="9755.77" y2="2667.74" gradientUnits="userSpaceOnUse">
<stop stop-color="#0058E5"/>
<stop offset="1" stop-color="#000BDE"/>
</linearGradient>
<linearGradient id="paint16_linear" x1="0.240479" y1="3382.45" x2="9321.8" y2="3382.45" gradientUnits="userSpaceOnUse">
<stop stop-color="#0072E7"/>
<stop offset="1" stop-color="#0025E0"/>
</linearGradient>
<linearGradient id="paint17_linear" x1="2120.51" y1="5732.65" x2="2757.29" y2="5511.1" gradientUnits="userSpaceOnUse">
<stop stop-color="#0072E7"/>
<stop offset="1" stop-color="#0025E0"/>
</linearGradient>
<linearGradient id="paint18_linear" x1="37.8663" y1="98.9021" x2="31.2816" y2="115.393" gradientUnits="userSpaceOnUse">
<stop stop-color="#4352B5"/>
<stop offset="1" stop-color="#2A398A"/>
</linearGradient>
<linearGradient id="paint19_linear" x1="33.1283" y1="88.4808" x2="36.2579" y2="78.9651" gradientUnits="userSpaceOnUse">
<stop stop-color="#F54291"/>
<stop offset="1" stop-color="#FB7DB9"/>
</linearGradient>
<linearGradient id="paint20_linear" x1="701.631" y1="1605.51" x2="940.293" y2="1460.33" gradientUnits="userSpaceOnUse">
<stop stop-color="#F54291"/>
<stop offset="1" stop-color="#FB7DB9"/>
</linearGradient>
<linearGradient id="paint21_linear" x1="33.9842" y1="72.7233" x2="29.4998" y2="86.6237" gradientUnits="userSpaceOnUse">
<stop stop-color="#7A4800"/>
<stop offset="1" stop-color="#2E1900"/>
</linearGradient>
</defs>
</svg>
