<svg width="115" height="130" viewBox="0 0 115 130" fill="none" xmlns="http://www.w3.org/2000/svg">
<path opacity="0.2" d="M26.7019 71.9918L0.985061 57.1334C0.842906 57.0527 0.724679 56.9357 0.642429 56.7944C0.560179 56.6531 0.516846 56.4925 0.516846 56.3289C0.516846 56.1654 0.560179 56.0048 0.642429 55.8635C0.724679 55.7222 0.842906 55.6052 0.985061 55.5245L3.12704 54.3194C3.26638 54.2381 3.42476 54.1953 3.58604 54.1953C3.74731 54.1953 3.9057 54.2381 4.04503 54.3194L29.7618 69.1712C29.904 69.2519 30.0222 69.3689 30.1045 69.5102C30.1867 69.6515 30.23 69.8122 30.23 69.9757C30.23 70.1392 30.1867 70.2998 30.1045 70.4412C30.0222 70.5825 29.904 70.6995 29.7618 70.7802L27.6459 71.9852C27.5032 72.0698 27.3406 72.1149 27.1747 72.1161C27.0089 72.1172 26.8457 72.0743 26.7019 71.9918Z" fill="#008BDC"/>
<path d="M29.4495 68.9472C29.4495 64.4461 29.4495 31.4659 29.4495 31.4659L30.8825 30.7689C31.1952 30.5995 31.1626 30.7689 31.1626 30.9578L31.1236 67.7747C31.1236 67.9506 29.7491 68.7323 29.6514 68.8495C29.6253 68.83 29.4495 68.9928 29.4495 68.9472Z" fill="#E8E8E8"/>
<path d="M29.5399 31.712L29.4879 31.6143L3.44556 16.4172L3.25024 16.5279C3.26376 16.4513 3.29254 16.3782 3.33488 16.3129C3.38046 16.2673 4.72163 15.5378 4.72163 15.5378C4.77777 15.498 4.84488 15.4766 4.9137 15.4766C4.98251 15.4766 5.04962 15.498 5.10576 15.5378L30.9918 30.5916C31.0358 30.6114 31.0733 30.6434 31.0999 30.6838C31.1264 30.7241 31.1408 30.7712 31.1415 30.8196C31.1415 30.8196 31.1415 30.8196 31.096 30.8196L29.5399 31.712Z" fill="url(#paint0_linear)"/>
<path d="M29.3449 68.917L3.48495 53.8697C3.40463 53.8111 3.3388 53.7348 3.29253 53.6467C3.24626 53.5586 3.22077 53.4611 3.21802 53.3616V16.6359C3.21802 16.4405 3.34172 16.3493 3.48495 16.434L29.3449 31.4813C29.4253 31.5399 29.4911 31.6162 29.5374 31.7043C29.5836 31.7924 29.6091 31.8899 29.6119 31.9893V68.7216C29.6119 68.917 29.4947 69.0082 29.3449 68.917Z" fill="#F9FAFB"/>
<path d="M12.0082 49.7344C11.9496 49.7344 11.9756 49.7344 11.4285 50.034C11.5001 49.9949 12.2167 50.3727 12.2818 50.3337L12.8029 50.034C12.7573 50.0601 12.7378 50.021 12.0082 49.7344Z" fill="#FF8C00"/>
<path d="M14.0003 51.6841C13.3098 52.2247 13.4075 51.5799 13.5769 52.9869C13.5769 53.0325 13.5769 53.065 13.5443 53.0781C14.0589 52.7589 14.111 52.798 14.098 52.6872C14.0313 52.357 13.9986 52.0209 14.0003 51.6841Z" fill="#FF8C00"/>
<path d="M13.6673 50.5024C13.1725 49.141 13.4394 49.2908 12.6516 49.7207C12.8014 49.636 12.8925 50.0985 13.1464 50.802C13.2245 51.03 14.3053 51.5381 14.0123 51.701L14.5332 51.3948C14.8457 51.2385 13.7389 50.7239 13.6673 50.5024Z" fill="#FF8C00"/>
<path d="M12.821 49.8563C13.3484 51.335 12.9186 50.5989 13.9539 51.4652C14.3641 51.7649 13.4265 51.8626 13.4525 52.0776C13.4981 52.6833 13.6869 53.1979 13.4525 53.0742C13.3484 53.009 12.7689 52.1948 12.6517 52.2013C11.5579 52.2013 11.8704 52.3381 11.9681 51.2373C11.9681 51.133 11.9225 51.107 11.4146 50.208C11.1672 49.7977 11.9615 50.2732 12.2024 50.3383C12.3001 50.3774 12.2806 50.2862 12.6126 49.7456C12.6517 49.713 12.7884 49.7521 12.821 49.8563Z" fill="#FFC033"/>
<path d="M16.33 51.8867C16.2714 51.8867 16.2909 51.8867 15.7502 52.1864C15.8219 52.1473 16.5384 52.5316 16.6036 52.4925L17.1247 52.1864C17.0791 52.2124 17.0596 52.1733 16.33 51.8867Z" fill="#FF8C00"/>
<path d="M18.323 53.8398C17.6325 54.374 17.7302 53.7291 17.8996 55.1426C17.8996 55.1817 17.8996 55.2143 17.867 55.2273C18.3816 54.9081 18.4338 54.9537 18.4142 54.8365C18.3498 54.5083 18.3193 54.1743 18.323 53.8398Z" fill="#FF8C00"/>
<path d="M17.991 52.6528C17.496 51.2979 17.763 51.4412 16.9749 51.8711C17.1247 51.7865 17.2159 52.2555 17.4699 52.9525C17.5416 53.1805 18.6294 53.6885 18.3363 53.8514L18.8574 53.5452C19.144 53.3889 18.0627 52.8808 17.991 52.6528Z" fill="#FF8C00"/>
<path d="M17.1435 52.004C17.6709 53.4891 17.2412 52.7531 18.2763 53.6129C18.68 53.9125 17.7425 54.0168 17.775 54.2317C17.8206 54.831 18.0094 55.3456 17.775 55.2218C17.6644 55.1632 17.0849 54.349 16.9742 54.349C15.8805 54.349 16.193 54.4923 16.2906 53.3849C16.2906 53.2872 16.2451 53.2546 15.7307 52.3622C15.4899 51.9453 16.2841 52.4209 16.525 52.4925C16.6227 52.5316 16.5966 52.4404 16.9352 51.8932C16.9742 51.8607 17.1045 51.9063 17.1435 52.004Z" fill="#FFC033"/>
<path d="M22.1054 49.0054V50.3082C22.1067 50.3675 22.0921 50.426 22.0632 50.4778C22.0343 50.5295 21.9921 50.5725 21.941 50.6024C21.8898 50.6323 21.8316 50.648 21.7724 50.6478C21.7131 50.6476 21.655 50.6316 21.6041 50.6014L17.9386 48.4908L15.1455 46.8754L11.1871 44.589C11.1362 44.5603 11.0937 44.5187 11.064 44.4684C11.0343 44.4181 11.0183 44.3608 11.0178 44.3024V42.5957C11.0178 40.6871 11.7991 39.4169 13.0101 39.2215C13.2663 39.1762 13.5286 39.1762 13.7848 39.2215L15.1195 39.456H15.2237H15.3018L16.4607 39.6579C16.5268 39.6708 16.5878 39.7025 16.6365 39.7491L17.8214 40.9086L17.893 40.9802L18.0753 41.1561L19.3319 42.3873C19.6278 42.6758 19.8979 42.9897 20.1392 43.3253C21.3671 44.969 22.0542 46.9539 22.1054 49.0054Z" fill="url(#paint1_linear)"/>
<path d="M17.8228 40.9547L16.5647 39.7227L17.8293 40.8113V40.9547H17.8228Z" fill="url(#paint2_linear)"/>
<path d="M17.9377 48.4905L15.1448 46.875L17.9377 48.4905Z" fill="url(#paint3_linear)"/>
<path d="M13.4794 33.809C13.5185 33.4051 13.831 33.6592 13.9156 33.7373C13.9156 33.6005 13.9156 33.4637 13.9156 33.3335C13.9156 31.0796 15.107 29.9462 16.5784 30.7995C18.0498 31.6528 19.2347 34.1542 19.2347 36.4015C19.2347 36.5383 19.2347 36.6686 19.2347 36.7989C19.362 36.831 19.4749 36.905 19.5551 37.0089C19.6354 37.1129 19.6785 37.2408 19.6774 37.3721C19.723 37.8933 19.137 38.5512 18.8962 38.232C18.806 38.4581 18.6661 38.6609 18.4869 38.8256C18.3077 38.9902 18.0938 39.1124 17.861 39.183V40.9548C17.1123 41.248 16.0901 40.6617 15.3414 39.5022V37.7174C14.889 37.0601 14.5399 36.3373 14.3063 35.5743C14.0198 35.6003 13.4404 34.278 13.4794 33.809Z" fill="#FFD199"/>
<path d="M15.8485 31.6082C15.8485 31.6082 16.8056 34.2919 18.0231 35.5166C17.9427 35.2017 17.9054 34.8774 17.9124 34.5525C18.3471 35.032 18.7332 35.5535 19.0648 36.1093C19.2294 36.6352 19.2294 37.1989 19.0648 37.7248C19.0648 37.7248 20.406 35.6468 19.6768 33.8164C18.9476 31.986 17.4501 30.4487 17.0921 29.4781V30.0514C16.7492 29.4314 16.4741 28.7762 16.2717 28.0972C16.2717 28.0972 16.415 29.3022 16.4605 29.4586C16.4605 29.4586 14.5073 28.9831 13.98 29.9992C13.4526 31.0154 13.8823 34.0444 13.8823 34.0444C13.9648 33.5064 14.0867 32.9752 14.2469 32.455C14.4552 31.986 15.8485 31.6082 15.8485 31.6082Z" fill="#420014"/>
<path opacity="0.2" d="M96.7885 106.856C96.9708 105.866 96.5672 105.911 88.481 101.234L45.0815 76.1749C44.3459 76.644 43.8641 76.7482 43.8706 77.0869C43.8706 76.7482 44.3524 76.644 45.0815 76.1749L40.4265 73.4847C39.8479 73.189 39.2076 73.0349 38.5579 73.0349C37.9083 73.0349 37.268 73.189 36.6894 73.4847L17.2684 84.7799L2.60006 93.3067L1.66905 93.8278C1.45684 93.9221 1.27371 94.0715 1.13863 94.2605C1.00355 94.4495 0.921434 94.6712 0.900801 94.9026C1.0245 95.9709 0.503657 96.7526 1.67556 97.43L57.2824 129.55C57.8609 129.846 58.5013 130 59.1509 130C59.8005 130 60.4409 129.846 61.0194 129.55L61.9504 129.01L76.6188 120.535V119.095V120.535C96.1114 108.966 96.8015 109.305 96.8015 108.159V106.725C96.8146 106.751 96.795 106.804 96.7885 106.856Z" fill="#008BDC"/>
<path opacity="0.95" d="M8.27761 84.0954C8.40138 83.0011 7.89329 82.252 9.04626 81.5811V83.0206C8.83394 83.115 8.65071 83.2644 8.51556 83.4534C8.38041 83.6423 8.29826 83.864 8.27761 84.0954Z" fill="#C8E8FC"/>
<path opacity="0.95" d="M8.27686 84.0961V82.6565C8.2953 82.8927 8.37783 83.1195 8.51557 83.3123C8.65331 83.5052 8.84103 83.6568 9.05853 83.7508V85.1839C8.84195 85.0904 8.65484 84.9398 8.51717 84.7482C8.3795 84.5566 8.29644 84.3312 8.27686 84.0961Z" fill="#C8E8FC"/>
<path d="M59.1836 73.5716V75.0047C59.0846 74.9475 58.9723 74.9174 58.8579 74.9174C58.7436 74.9174 58.6313 74.9475 58.5322 75.0047V73.5716C58.6313 73.5145 58.7436 73.4844 58.8579 73.4844C58.9723 73.4844 59.0846 73.5145 59.1836 73.5716Z" fill="#137EEA"/>
<path d="M91.2931 92.4782C91.0457 92.5824 90.642 93.0384 90.1537 92.7778C79.3071 86.355 78.4346 86.355 79.0857 86.0033C79.3331 85.9055 79.7368 85.443 80.2251 85.7036C91.0196 92.1199 91.892 92.1264 91.2931 92.4782Z" fill="#0072E7"/>
<path d="M93.8709 93.5472C93.0701 93.9315 92.5688 94.5177 92.087 94.1986C44.2669 66.4686 45.6992 67.7714 46.3112 67.4197C47.1055 67.0419 47.6133 66.4556 48.1016 66.7683C95.9152 94.5373 94.4829 93.1759 93.8709 93.5472ZM90.7784 92.7785C90.9477 92.6352 91.7485 92.3812 91.2927 92.1271C80.0425 85.7825 80.1727 85.3656 79.5737 85.7109C79.4044 85.8542 78.6101 86.1147 79.0594 86.3623C90.2966 92.6938 90.1859 93.1172 90.7784 92.772V92.7785ZM54.1564 71.6277C54.3322 71.4844 55.1265 71.2238 54.6773 70.9763C53.2319 70.2467 52.7241 69.6019 52.2033 69.9145C52.034 70.0513 51.2397 70.3119 51.6954 70.5659C53.1473 71.302 53.6486 71.9404 54.1564 71.6342V71.6277ZM51.0248 69.8168C51.1941 69.6735 51.9949 69.413 51.5392 69.1654C50.0938 68.4359 49.586 67.791 49.0717 68.1036C48.9024 68.247 48.1081 68.501 48.5638 68.755C50.0157 69.4911 50.517 70.1295 51.0248 69.8233V69.8168ZM60.5107 75.2951C60.68 75.1518 61.4743 74.8912 61.0251 74.6437C59.5732 73.9076 59.0719 73.2692 58.5576 73.5819C58.3818 73.7252 57.594 73.9792 58.0432 74.2333C59.4951 74.9694 59.9964 75.6077 60.5107 75.3016V75.2951ZM57.3726 73.4842C57.5484 73.3344 58.3427 73.0803 57.887 72.8328C56.4416 72.1032 55.9338 71.4583 55.4195 71.771C55.2502 71.9143 54.4559 72.1684 54.9117 72.4224C56.357 73.1585 56.8648 73.7968 57.3726 73.4907V73.4842Z" fill="#0072E7"/>
<path d="M51.5404 69.5183C51.293 69.616 50.8893 70.0785 50.401 69.8179C49.1378 68.9842 48.0245 68.7041 48.5584 68.3914C48.8058 68.2872 49.2095 67.8312 49.6978 68.0918C49.6978 68.0918 52.0743 69.2056 51.5404 69.5183Z" fill="#0072E7"/>
<path d="M54.6703 71.3294C54.4294 71.4271 54.0193 71.8896 53.5375 71.629C52.2874 70.8018 51.1546 70.5151 51.6884 70.2025C51.9228 70.1048 52.3786 69.6423 52.8343 69.9028C54.1234 70.7496 55.2107 71.0297 54.6703 71.3294Z" fill="#0072E7"/>
<path d="M57.8878 73.1865C57.6404 73.2908 57.2367 73.7467 56.7549 73.4862C55.4527 72.6524 54.372 72.3723 54.9058 72.0596C55.1532 71.9554 55.596 71.4994 56.0452 71.76C56.0452 71.76 58.4217 72.8739 57.8878 73.1865Z" fill="#0072E7"/>
<path d="M61.0252 74.9942C60.7779 75.0919 60.3417 75.5544 59.8859 75.2938C58.6229 74.46 57.5096 74.1799 58.0435 73.8672C58.2909 73.763 58.7271 73.307 59.1828 73.5676C59.1828 73.5676 61.5591 74.6815 61.0252 74.9942Z" fill="#0072E7"/>
<path d="M48.2851 69.7274C46.3319 70.7501 45.9087 71.3885 45.3553 71.0693C43.5909 69.9359 42.4906 69.6818 43.031 69.3627C44.9842 68.353 45.4139 67.7081 45.9608 68.0208C45.9608 67.9882 48.8254 69.3822 48.2851 69.7274Z" fill="#0072E7"/>
<path d="M51.5521 71.5831C49.599 72.5993 49.1693 73.2377 48.6224 72.9185C46.858 71.7916 45.7577 71.531 46.2981 71.2184C48.2513 70.2087 48.681 69.5638 49.2279 69.8765C49.2279 69.8765 52.0925 71.264 51.5521 71.5831Z" fill="#0072E7"/>
<path d="M54.8212 73.4675C52.868 74.4837 52.4383 75.1285 51.8914 74.8094C50.1205 73.6759 49.0201 73.4219 49.567 73.1092C51.5203 72.0931 51.95 71.4547 52.4969 71.7674C52.4969 71.7674 55.3616 73.1548 54.8212 73.4675Z" fill="#0072E7"/>
<path d="M58.0894 75.3558C56.1362 76.372 55.7065 77.0169 55.1596 76.6977C53.3888 75.5643 52.2885 75.3102 52.8288 74.9976C54.782 73.9814 55.2182 73.3365 55.7586 73.6557C55.7586 73.6361 58.6298 75.0432 58.0894 75.3558Z" fill="#0072E7"/>
<path d="M61.3579 77.2431C59.4048 78.2527 58.9751 78.8976 58.4282 78.5849C56.6573 77.4515 55.557 77.1975 56.0974 76.8783C58.0506 75.8686 58.4868 75.2237 59.0272 75.5364C59.0272 75.5364 61.8983 76.9304 61.3579 77.2431Z" fill="#0072E7"/>
<path d="M64.6201 79.1337C62.6669 80.1434 62.2437 80.7882 61.6903 80.4756C59.9259 79.3356 58.8256 79.0816 59.366 78.7689C61.3192 77.7592 61.7489 77.1144 62.2958 77.427C62.2958 77.427 65.167 78.8471 64.6201 79.1337Z" fill="#0072E7"/>
<path d="M67.8877 81.0149C65.9346 82.031 65.5049 82.6759 64.958 82.3567C63.1872 81.2233 62.0934 80.9693 62.6338 80.6566C64.5869 79.6404 65.0166 79.002 65.5635 79.3147C65.5635 79.3147 68.4281 80.7022 67.8877 81.0149Z" fill="#0072E7"/>
<path d="M71.1563 82.9056C69.2031 83.9153 68.7734 84.5667 68.2265 84.2475C66.4556 83.114 65.3554 82.86 65.9022 82.5408C67.8554 81.5312 68.2851 80.8863 68.832 81.238C68.832 81.2055 71.6966 82.5929 71.1563 82.9056Z" fill="#0072E7"/>
<path d="M74.4243 84.7934C72.4712 85.803 72.0415 86.4479 71.4946 86.1352C69.7237 85.0018 68.6234 84.7478 69.1638 84.4286C71.117 83.4189 71.5532 82.774 72.0936 83.0867C72.0936 83.0867 74.9647 84.4742 74.4243 84.7934Z" fill="#0072E7"/>
<path d="M77.693 86.6649C75.7398 87.6746 75.3101 88.3195 74.7632 88.0003C72.9923 86.8669 71.892 86.6128 72.4324 86.3002C74.3856 85.2905 74.8218 84.6456 75.3622 84.9583C75.3947 84.9778 78.2334 86.3653 77.693 86.6649Z" fill="#0072E7"/>
<path d="M80.954 88.5675C79.0008 89.5836 78.5776 90.2285 78.0242 89.9093C76.2599 88.7759 75.1596 88.5219 75.7 88.2092C77.6531 87.193 78.0828 86.5481 78.6297 86.8673C78.6493 86.8673 81.5009 88.2548 80.954 88.5675Z" fill="#0072E7"/>
<path d="M84.2227 90.4534C82.2696 91.463 81.8399 92.1079 81.293 91.7953L78.9753 90.4534C78.4219 90.1342 79.5287 89.8801 81.2735 88.7467C81.3725 88.6895 81.4847 88.6594 81.599 88.6594C81.7133 88.6594 81.8256 88.6895 81.9245 88.7467C83.6563 89.8801 84.7631 90.1407 84.2227 90.4534Z" fill="#0072E7"/>
<path d="M87.492 92.3447L85.1612 93.6866C84.6209 93.9992 84.1781 93.3674 82.2119 92.3447C81.665 92.0255 82.7653 91.7715 84.5167 90.638C84.6172 90.5855 84.7288 90.5581 84.8422 90.5581C84.9556 90.5581 85.0673 90.5855 85.1677 90.638C86.9256 91.7715 88.0324 92.0255 87.492 92.3447Z" fill="#0072E7"/>
<path d="M91.7356 94.7944L89.4243 96.1362C88.8709 96.4554 88.4932 95.8301 85.5178 94.2276C85.342 94.1299 85.342 93.9671 85.5178 93.8694C87.471 92.8532 87.9008 92.2083 88.4542 92.5275C91.1496 94.2211 92.3216 94.4817 91.7356 94.7944Z" fill="#0072E7"/>
<path d="M46.1621 72.0647C44.209 73.0743 43.7728 73.7192 43.2259 73.4065C40.4851 71.6934 39.3653 71.4523 39.9252 71.1332C41.8783 70.1235 42.3145 69.4786 42.8548 69.7913C42.8418 69.7913 46.7481 71.7324 46.1621 72.0647Z" fill="#0072E7"/>
<path d="M49.424 73.9503C47.4708 74.9795 47.0412 75.6113 46.4943 75.2921C44.73 74.1587 43.6232 73.9047 44.1701 73.592C46.1232 72.5758 46.5529 71.931 47.0997 72.2501C47.0997 72.2501 49.9643 73.6376 49.424 73.9503Z" fill="#0072E7"/>
<path d="M52.6919 75.8373C50.7387 76.847 50.3025 77.4918 49.7621 77.1792C47.9978 76.0457 46.891 75.7917 47.4379 75.4725C49.391 74.4629 49.8207 73.818 50.3676 74.1306C52.1254 75.2641 53.2583 75.5246 52.6919 75.8373Z" fill="#0072E7"/>
<path d="M55.9602 77.7265C54.0071 78.7492 53.5774 79.381 53.0305 79.0683C51.2531 77.9284 50.1593 77.6809 50.7062 77.3617C52.6594 76.352 53.0891 75.7071 53.6294 76.0198C53.6294 76.0198 56.5136 77.4073 55.9602 77.7265Z" fill="#0072E7"/>
<path d="M59.2287 79.6081C57.2755 80.6243 56.8393 81.2692 56.2924 80.9565C54.5215 79.8166 53.4277 79.5625 53.968 79.2498C55.9212 78.2337 56.3575 77.5953 56.8978 77.908C56.8978 77.908 59.7691 79.2954 59.2287 79.6081Z" fill="#0072E7"/>
<path d="M62.4969 81.4972C60.5438 82.5264 60.1076 83.1583 59.5607 82.8391C57.8224 81.7252 56.6896 81.4516 57.2365 81.1389C59.1896 80.1227 59.6193 79.4778 60.1727 79.797C60.1727 79.797 63.0243 81.1845 62.4969 81.4972Z" fill="#0072E7"/>
<path d="M65.7589 83.4051C63.8058 84.4148 63.3761 85.0597 62.8293 84.747C61.091 83.6331 59.9582 83.3595 60.505 83.0403C62.4582 82.0307 62.8879 81.3858 63.4347 81.7375C63.4347 81.6854 66.2798 83.0729 65.7589 83.4051Z" fill="#0072E7"/>
<path d="M69.0269 85.2758C67.0738 86.2854 66.6376 86.9303 66.0973 86.6177C64.359 85.4972 63.2262 85.2302 63.7731 84.911C65.7262 83.8948 66.1559 83.2564 66.7027 83.5691C66.7027 83.5691 69.5672 84.9566 69.0269 85.2758Z" fill="#0072E7"/>
<path d="M72.2962 87.1555C70.343 88.1716 69.9068 88.8165 69.3664 88.5039C67.8104 87.5007 66.4758 87.1294 67.0422 86.7972C68.9953 85.7745 69.4315 85.1427 69.9719 85.4553C69.9719 85.4553 72.8365 86.8428 72.2962 87.1555Z" fill="#0072E7"/>
<path d="M75.5637 89.0461C73.6106 90.0753 73.1809 90.7072 72.6275 90.388C71.078 89.3914 69.7434 89.0136 70.3098 88.6879C72.2629 87.6652 72.6926 87.0333 73.2395 87.346C73.2395 87.346 76.1041 88.7335 75.5637 89.0461Z" fill="#0072E7"/>
<path d="M78.8315 90.9354C76.8783 91.9451 76.4421 92.5899 75.8952 92.2773C74.3456 91.2806 73.0044 90.9028 73.5774 90.5706C75.5306 89.5545 75.9603 88.9161 76.5072 89.2288C78.2586 90.3622 79.3719 90.6162 78.8315 90.9354Z" fill="#0072E7"/>
<path d="M82.0932 92.8203C80.14 93.8365 79.7103 94.4814 79.1634 94.1687C77.6139 93.1721 76.2727 92.7942 76.8391 92.462C78.7923 91.4393 79.2285 90.8075 79.7689 91.1201C79.7689 91.1201 82.6401 92.5272 82.0932 92.8203Z" fill="#0072E7"/>
<path d="M85.3616 94.7063C83.4084 95.7224 82.9787 96.3673 82.4319 96.0481C80.8759 95.0515 79.5412 94.6802 80.1076 94.348C82.0608 93.3253 82.497 92.6935 83.0373 93.0061C83.0373 93.0061 85.902 94.3936 85.3616 94.7063Z" fill="#0072E7"/>
<path d="M88.6311 96.5953C86.6779 97.6115 86.2483 98.2564 85.7014 97.9372C84.1454 96.9405 82.8107 96.5627 83.3771 96.237C85.3303 95.2144 85.7665 94.576 86.3068 94.8952C88.0712 96.0286 89.1715 96.2826 88.6311 96.5953Z" fill="#0072E7"/>
<path d="M44.4497 74.6705C42.4965 75.6802 42.0603 76.3251 41.5134 76.0124C37.4833 73.5501 36.2333 73.2831 36.8193 72.9443C38.7724 71.9151 39.2021 71.2833 39.7555 71.6025C39.7555 71.6025 45.0291 74.3318 44.4497 74.6705Z" fill="#0072E7"/>
<path d="M47.7114 76.5617L45.4066 77.9036C44.8597 78.2163 44.4105 77.5779 42.4574 76.5617C41.917 76.2491 43.0108 75.9885 44.7686 74.8551C44.8687 74.8015 44.9806 74.7734 45.0941 74.7734C45.2077 74.7734 45.3195 74.8015 45.4197 74.8551C47.1449 75.9885 48.2582 76.2425 47.7114 76.5617Z" fill="#0072E7"/>
<path d="M50.979 78.4416C49.0258 79.4839 48.5961 80.1027 48.0492 79.79C46.2783 78.6501 45.1845 78.4026 45.7249 78.0834C47.6781 77.0477 48.1078 76.4288 48.6547 76.7415C48.6547 76.7415 51.5194 78.129 50.979 78.4416Z" fill="#0072E7"/>
<path d="M54.2482 80.3301L51.9564 81.672C51.4161 81.9911 50.9734 81.3528 49.0137 80.3301C48.4668 80.0174 49.5671 79.7634 51.3184 78.63C51.4174 78.5728 51.5297 78.5427 51.6439 78.5427C51.7582 78.5427 51.8705 78.5728 51.9695 78.63C53.6882 79.7634 54.7885 80.0174 54.2482 80.3301Z" fill="#0072E7"/>
<path d="M57.5159 82.2213C55.5302 83.257 55.1265 83.8824 54.5796 83.5632C52.8153 82.4298 51.715 82.1757 52.2554 81.863C54.2411 80.8273 54.6447 80.202 55.1916 80.5212C55.2111 80.5212 58.0562 81.9086 57.5159 82.2213Z" fill="#0072E7"/>
<path d="M60.7841 84.1107C58.8309 85.1464 58.3947 85.7653 57.8478 85.4526C56.0964 84.3257 54.9831 84.0651 55.5235 83.746C57.4767 82.7363 57.9129 82.0914 58.4598 82.4041C58.4663 82.4041 61.3244 83.7915 60.7841 84.1107Z" fill="#0072E7"/>
<path d="M64.0463 86.0133C62.0931 87.0555 61.6634 87.6744 61.1166 87.3617C59.3587 86.2283 58.2519 85.9742 58.7923 85.655C60.7454 84.6323 61.1751 83.994 61.722 84.3131C61.722 84.2936 64.5932 85.6811 64.0463 86.0133Z" fill="#0072E7"/>
<path d="M67.3143 87.8827C65.3612 88.9184 64.9315 89.5437 64.3846 89.2245C62.6267 88.0976 61.52 87.8371 62.0603 87.5244C64.0135 86.5147 64.4497 85.8633 64.9901 86.1825C64.977 86.1825 67.8612 87.57 67.3143 87.8827Z" fill="#0072E7"/>
<path d="M70.5834 89.7704C68.6302 90.8061 68.2005 91.4249 67.6537 91.1122C65.8958 89.9853 64.789 89.7248 65.3294 89.4121C67.2826 88.3959 67.7123 87.751 68.2591 88.0637C68.2331 88.0637 71.1238 89.4512 70.5834 89.7704Z" fill="#0072E7"/>
<path d="M73.8518 91.6548C71.8987 92.697 71.4624 93.3158 70.9221 93.0032C69.1642 91.8697 68.0509 91.6157 68.5978 91.2965C70.551 90.2868 70.9807 89.6419 71.5276 89.9546C71.5276 89.9546 74.3922 91.3421 73.8518 91.6548Z" fill="#0072E7"/>
<path d="M77.1188 93.5445C75.1656 94.5607 74.7359 95.2056 74.1825 94.8864C72.4311 93.7595 71.3178 93.4989 71.8582 93.1863C73.8114 92.1636 74.2411 91.5252 74.7945 91.8444C74.7945 91.877 77.6592 93.2319 77.1188 93.5445Z" fill="#0072E7"/>
<path d="M80.3878 95.4301C78.4346 96.4462 78.0049 97.0911 77.4515 96.7719C75.6937 95.645 74.5868 95.3845 75.1272 95.0718C77.0804 94.0556 77.5166 93.4107 78.0635 93.7299C78.0635 93.7299 80.9282 95.1304 80.3878 95.4301Z" fill="#0072E7"/>
<path d="M85.4794 98.3904L83.1681 99.6932C82.6016 100.019 82.25 99.3806 78.3957 97.2961C77.8488 96.9769 78.9556 96.7229 80.707 95.5895C80.8072 95.5359 80.919 95.5078 81.0326 95.5078C81.1461 95.5078 81.2579 95.5359 81.3581 95.5895C84.7827 97.739 86.0523 98.0387 85.4794 98.3904Z" fill="#0072E7"/>
<path d="M42.9266 77.3872C40.9735 78.4033 40.5373 79.0482 39.9969 78.7355C34.3783 75.3287 33.1218 75.0942 33.7272 74.749C35.6804 73.7328 36.1166 73.0879 36.6635 73.4071C36.6505 73.4071 43.4931 77.0419 42.9266 77.3872Z" fill="#0072E7"/>
<path d="M46.3185 79.3482C44.3654 80.3579 43.9292 81.0093 43.3888 80.6901C41.6245 79.5632 40.5177 79.3026 41.0581 78.99C43.0112 77.9738 43.4474 77.3289 43.9878 77.6481C45.7521 78.775 46.8589 79.0356 46.3185 79.3482Z" fill="#0072E7"/>
<path d="M49.5871 81.2392C47.6339 82.2488 47.1976 82.8937 46.6508 82.581C44.8929 81.4476 43.7861 81.1936 44.3264 80.8744C46.2796 79.8647 46.7159 79.2198 47.2562 79.5325C47.2562 79.5325 50.1275 80.92 49.5871 81.2392Z" fill="#0072E7"/>
<path d="M52.8548 83.1199C50.9016 84.1361 50.4654 84.7809 49.9185 84.4683C48.1607 83.3348 47.0539 83.0743 47.5943 82.7616C49.5474 81.7519 49.9771 81.107 50.524 81.4197C50.524 81.4523 53.3951 82.8072 52.8548 83.1199Z" fill="#0072E7"/>
<path d="M56.1167 85.0091L53.8054 86.3509C53.265 86.6701 52.8158 86.0252 50.8626 85.0091C50.3157 84.6964 51.4355 84.4293 53.1673 83.3089C53.2663 83.2518 53.3786 83.2217 53.4929 83.2217C53.6071 83.2217 53.7194 83.2518 53.8184 83.3089C55.5502 84.4358 56.657 84.7094 56.1167 85.0091Z" fill="#0072E7"/>
<path d="M59.3842 86.8954L57.0729 88.2372C56.5325 88.5499 56.0833 87.9115 54.1301 86.8954C53.9543 86.7976 53.9543 86.6348 54.1301 86.5371C56.0833 85.5209 56.5195 84.876 57.0664 85.1887C57.0599 85.1887 59.9245 86.5827 59.3842 86.8954Z" fill="#0072E7"/>
<path d="M62.6535 88.7854L60.3423 90.1273C59.8019 90.44 59.3527 89.8016 57.393 88.7854C57.3562 88.7712 57.3245 88.7462 57.3021 88.7137C57.2798 88.6811 57.2678 88.6425 57.2678 88.603C57.2678 88.5635 57.2798 88.525 57.3021 88.4924C57.3245 88.4598 57.3562 88.4348 57.393 88.4206C59.3462 87.3979 59.7758 86.7596 60.3227 87.0788C60.3227 87.0788 63.1938 88.4662 62.6535 88.7854Z" fill="#0072E7"/>
<path d="M65.9215 90.6704L63.6103 92.0188C63.07 92.3315 62.6207 91.6866 60.6611 90.6704C60.6236 90.6578 60.5909 90.6338 60.5678 90.6016C60.5447 90.5695 60.5322 90.5309 60.5322 90.4913C60.5322 90.4517 60.5447 90.4131 60.5678 90.3809C60.5909 90.3488 60.6236 90.3247 60.6611 90.3121C62.6142 89.3025 63.0504 88.6576 63.5908 88.9702C63.5908 88.9702 66.4619 90.3577 65.9215 90.6704Z" fill="#0072E7"/>
<path d="M69.1893 92.5597C67.2362 93.5758 66.8 94.2207 66.2532 93.9015C64.4954 92.7746 63.3886 92.5141 63.929 92.2014C65.8821 91.1852 66.3183 90.5403 66.8586 90.8595C68.6229 91.9864 69.7297 92.247 69.1893 92.5597Z" fill="#0072E7"/>
<path d="M72.451 94.4791C70.4978 95.4887 70.0681 96.1336 69.5212 95.821C67.7633 94.694 66.65 94.4335 67.1969 94.1143C69.1501 93.1046 69.5798 92.4598 70.1267 92.8115C71.8846 93.8733 72.9979 94.1338 72.451 94.4791Z" fill="#0072E7"/>
<path d="M75.7213 96.3357C73.7681 97.3454 73.3319 97.9903 72.7915 97.6776C71.0336 96.5507 69.9203 96.2901 70.4607 95.9709C72.4139 94.9547 72.8501 94.3099 73.397 94.6291C73.397 94.6291 76.2617 96.0165 75.7213 96.3357Z" fill="#0072E7"/>
<path d="M82.3733 100.174C80.4201 101.19 79.9839 101.835 79.4435 101.523C74.3912 98.4611 73.1412 98.207 73.7271 97.8618C75.6803 96.8456 76.1165 96.2007 76.6634 96.5199C76.696 96.5199 82.9593 99.8355 82.3733 100.174Z" fill="#0072E7"/>
<path d="M35.8752 76.8922C33.922 77.9149 33.4858 78.5532 32.939 78.234C31.1812 77.1071 30.0744 76.8466 30.6148 76.5339C32.5679 75.5177 33.0041 74.8729 33.5444 75.192C33.5444 75.2116 36.4155 76.599 35.8752 76.8922Z" fill="#0072E7"/>
<path d="M39.1374 78.8017C37.1843 79.8178 36.7546 80.4627 36.2077 80.1435C34.4499 79.0101 33.3366 78.7561 33.8834 78.4369C35.8366 77.4272 36.2663 76.7823 36.8132 77.095C36.8132 77.095 39.6843 78.4825 39.1374 78.8017Z" fill="#0072E7"/>
<path d="M42.4051 80.6897L40.0939 82.0315C39.5535 82.3442 39.1043 81.7058 37.1511 80.6897C36.6042 80.3705 37.724 80.1034 39.4558 78.983C39.5563 78.9305 39.668 78.9031 39.7814 78.9031C39.8947 78.9031 40.0064 78.9305 40.1069 78.983C41.8387 80.149 42.9455 80.3705 42.4051 80.6897Z" fill="#0072E7"/>
<path d="M45.6737 82.5714C43.7206 83.6006 43.2909 84.2324 42.744 83.9132C40.9797 82.7863 39.873 82.5258 40.4133 82.2131C42.3664 81.1969 42.8026 80.5521 43.3495 80.8712C43.3495 80.8712 46.2141 82.2587 45.6737 82.5714Z" fill="#0072E7"/>
<path d="M62.3276 92.1945C60.3745 93.2302 59.9448 93.8556 59.3979 93.5364C43.7726 84.3713 43.2518 84.5471 43.8507 84.2019C45.8039 83.1857 46.2401 82.5408 46.7805 82.8535C46.7805 82.8535 62.9331 91.8753 62.3276 92.1945Z" fill="#0072E7"/>
<path d="M66.2788 94.4809C64.3257 95.497 63.8895 96.1419 63.3426 95.8227C61.0054 94.3506 59.8009 94.0575 60.3478 93.7318C62.301 92.6961 62.7372 92.0773 63.284 92.3899C63.2905 92.3899 66.8322 94.1617 66.2788 94.4809Z" fill="#0072E7"/>
<path d="M69.5344 96.3744C67.5812 97.4102 67.1516 98.029 66.6047 97.7163C64.8338 96.5764 63.7335 96.3288 64.2804 96.0097C66.2336 94.9739 66.6633 94.3551 67.2101 94.6678C69.0005 95.7817 70.1008 96.0553 69.5344 96.3744Z" fill="#0072E7"/>
<path d="M72.705 98.1864L70.3938 99.5283C69.8534 99.8474 69.4041 99.2091 67.4509 98.1929C66.904 97.8737 68.0043 97.6196 69.7557 96.4862C69.8562 96.4337 69.9679 96.4063 70.0812 96.4062C70.1946 96.4063 70.3063 96.4337 70.4068 96.4862C72.1386 97.6196 73.2454 97.8737 72.705 98.1864Z" fill="#0072E7"/>
<path d="M75.9743 100.077C74.0211 101.112 73.5848 101.738 73.038 101.418C71.2736 100.285 70.1733 100.031 70.7136 99.7183C72.6668 98.6826 73.1031 98.0572 73.65 98.3764C73.65 98.3894 76.5146 99.7639 75.9743 100.077Z" fill="#0072E7"/>
<path d="M79.2421 101.964C77.289 103 76.8528 103.619 76.3059 103.306C74.5416 102.172 73.4413 101.918 73.9817 101.606C75.9348 100.563 76.371 99.9447 76.9179 100.257C76.9179 100.257 79.7824 101.645 79.2421 101.964Z" fill="#0072E7"/>
<path d="M94.9257 89.5245L94.6197 89.7068C94.4254 89.8033 94.2115 89.8535 93.9947 89.8535C93.7778 89.8535 93.5639 89.8033 93.3696 89.7068C53.3817 66.2566 52.9129 67.0122 54.1174 66.3087L54.4299 66.1328L94.9257 89.5245Z" fill="#2850CB"/>
<path d="M97.816 91.2216C97.3408 91.417 96.5139 92.3029 95.6155 91.7753C49.4424 64.7749 49.3512 65.7194 50.5687 65.068L51.5192 64.5078L54.423 66.1884C54.3644 66.247 53.3487 66.6444 54.117 67.0873L93.3628 89.7625C93.6139 89.8781 93.8919 89.9222 94.1664 89.89C94.4409 89.8578 94.7013 89.7506 94.9188 89.5801L97.816 91.2216Z" fill="#137EEA"/>
<path d="M65.2053 97.9582C65.3172 97.9976 65.414 98.0708 65.4826 98.1676C65.5511 98.2644 65.5879 98.3802 65.5879 98.4988C65.5879 98.6175 65.5511 98.7332 65.4826 98.83C65.414 98.9269 65.3172 99.0001 65.2053 99.0395L52.4316 106.465C52.1434 106.613 51.8243 106.69 51.5006 106.69C51.1769 106.69 50.8578 106.613 50.5696 106.465L25.3281 91.8741C25.2163 91.8347 25.1194 91.7615 25.0509 91.6647C24.9824 91.5678 24.9456 91.4521 24.9456 91.3335C24.9456 91.2148 24.9824 91.0991 25.0509 91.0022C25.1194 90.9054 25.2163 90.8322 25.3281 90.7928L38.0953 83.406C38.3851 83.2599 38.7051 83.1838 39.0296 83.1838C39.3541 83.1838 39.6741 83.2599 39.9639 83.406L65.2053 97.9582Z" fill="#EAFCFF"/>
<path opacity="0.95" d="M43.1345 61.7656L9.04505 81.5811C8.01638 82.1804 8.02289 83.151 9.04505 83.7502L64.652 115.871C65.2305 116.166 65.8709 116.32 66.5205 116.32C67.1701 116.32 67.8105 116.166 68.389 115.871L67.458 116.411C66.8783 116.707 66.2369 116.861 65.5862 116.861C64.9356 116.861 64.2941 116.707 63.7144 116.411L8.11404 84.2909C7.07885 83.6916 7.07234 82.721 8.11404 82.1218L43.1345 61.7656Z" fill="#EAFCFF"/>
<path d="M102.473 93.8872C103.508 94.4865 103.521 95.4506 102.473 96.0499L83.045 107.345L23.7078 73.0556L43.1353 61.7669C43.7138 61.4713 44.3542 61.3171 45.0038 61.3171C45.6534 61.3171 46.2938 61.4713 46.8723 61.7669L51.5209 64.4507C51.2279 64.7047 49.6784 65.2128 50.5703 65.7534C97.3552 92.4607 95.6625 92.4607 96.8604 91.8093L97.8175 91.2556L102.473 93.8872ZM92.7067 94.226C93.3577 93.77 94.3799 93.4834 93.8721 93.1903C45.5116 65.4212 48.0963 66.3918 47.4778 66.7436C46.8268 67.2061 45.8046 67.4927 46.3124 67.7858C94.7184 95.5809 92.1012 94.5777 92.7067 94.226ZM60.0172 93.5355C61.788 92.3956 62.8688 92.148 62.3284 91.8354C46.4622 82.8265 46.7486 82.5074 46.1627 82.8526C44.4439 83.9665 43.3111 84.2466 43.8514 84.5593L59.3987 93.5355C59.4937 93.5868 59.5999 93.6137 59.7079 93.6137C59.8159 93.6137 59.9221 93.5868 60.0172 93.5355ZM36.0257 73.4074C34.3135 74.5147 33.1741 74.7948 33.721 75.1075C39.8019 78.4752 40.0362 79.0745 40.6157 78.7358C42.3345 77.6219 43.4673 77.3418 42.9269 77.0291C36.8396 73.6614 36.6117 73.0686 36.0257 73.4074ZM80.0632 101.522C81.7754 100.408 82.9148 100.128 82.3744 99.815C76.899 96.799 76.6191 96.1802 76.0396 96.5189C74.412 97.5742 73.1815 97.8998 73.7349 98.2255C79.2038 101.242 79.4837 101.854 80.0632 101.522ZM39.1313 71.603C37.419 72.7104 36.2797 72.9905 36.82 73.3031C41.2016 75.6938 41.5662 76.3451 42.1392 76.0129C43.8514 74.9056 44.9908 74.6255 44.4439 74.3128C40.0623 71.9157 39.7042 71.2643 39.1313 71.603ZM83.1687 99.6912C84.881 98.5773 86.0203 98.2972 85.4734 97.9845C81.6257 95.8936 81.2741 95.2617 80.7077 95.5874C78.9889 96.7013 77.8561 96.9814 78.3965 97.2941C82.2442 99.3785 82.6023 100.017 83.1687 99.6912ZM42.2368 69.7921C40.4985 70.919 39.3787 71.1861 39.9256 71.4988C42.8944 73.0882 43.2915 73.7331 43.8319 73.4074C45.5442 72.3 46.6835 72.0134 46.1366 71.7007C43.2525 70.1569 42.7707 69.4729 42.2303 69.7921H42.2368ZM89.4254 96.1346C91.1897 94.9946 92.277 94.7471 91.7301 94.4344C88.8394 92.8841 88.3641 92.2001 87.8237 92.5258C86.0659 93.6593 84.9721 93.9133 85.519 94.226C88.5139 95.8284 88.885 96.4603 89.4254 96.1346ZM63.9756 95.8219C65.6097 94.7601 66.8337 94.4344 66.2803 94.1152C63.611 92.7017 63.2269 92.0633 62.6669 92.389C60.8961 93.5355 59.8153 93.7765 60.3622 94.0957C62.9664 95.4897 63.4222 96.1411 63.9756 95.8219ZM55.9611 77.3613C54.0079 76.3386 53.5587 75.7003 53.0118 76.0195C51.2995 77.1268 50.1602 77.4069 50.7005 77.7261C52.6537 78.7423 53.1094 79.3807 53.6563 79.068L55.9611 77.7261C55.9979 77.7119 56.0296 77.6869 56.052 77.6543C56.0743 77.6218 56.0863 77.5832 56.0863 77.5437C56.0863 77.5042 56.0743 77.4656 56.052 77.4331C56.0296 77.4005 55.9979 77.3755 55.9611 77.3613ZM59.2164 79.2504C57.2632 78.2342 56.814 77.5958 56.2736 77.9085C54.5353 79.0289 53.422 79.296 53.9623 79.6086C55.9155 80.6313 56.3647 81.2697 56.9116 80.9505C58.6239 79.8431 59.7632 79.563 59.2164 79.2504ZM77.1139 93.542C77.2832 93.4443 77.2832 93.2814 77.1139 93.1837L74.7961 91.8744C74.6956 91.8219 74.584 91.7945 74.4706 91.7945C74.3572 91.7945 74.2455 91.8219 74.1451 91.8744C72.4328 92.9818 71.2934 93.2619 71.8403 93.5746L74.1581 94.9165C74.7115 95.2356 75.1412 94.5973 77.0943 93.5746L77.1139 93.542ZM60.6552 90.6693C62.6084 91.6986 63.0576 92.3304 63.6045 92.0177C65.3167 90.9039 66.4561 90.6238 65.9092 90.3111C63.956 89.2884 63.5133 88.65 62.9664 88.9692L60.6552 90.3111C60.6176 90.3237 60.585 90.3477 60.5619 90.3799C60.5388 90.412 60.5263 90.4506 60.5263 90.4902C60.5263 90.5298 60.5388 90.5684 60.5619 90.6006C60.585 90.6327 60.6176 90.6568 60.6552 90.6693ZM43.3631 83.9144C45.0819 82.807 46.2148 82.5269 45.6744 82.2142C43.7212 81.1915 43.272 80.5532 42.7251 80.8724C41.0128 81.9797 39.8735 82.2598 40.4204 82.5725L42.7446 83.9144C42.8436 83.9715 42.9559 84.0016 43.0702 84.0016C43.1845 84.0016 43.2967 83.9715 43.3957 83.9144H43.3631ZM66.2412 90.8583C64.5225 91.9656 63.3831 92.2457 63.93 92.5584C65.8832 93.5811 66.3324 94.2195 66.8793 93.9003C68.5916 92.7929 69.7309 92.5128 69.184 92.2001C67.2309 91.1774 66.7816 90.5391 66.2412 90.8583ZM65.7595 83.0415C63.8063 82.0253 63.3506 81.3804 62.8102 81.6931C61.1956 82.7419 59.952 83.0806 60.5054 83.3998C62.4586 84.4225 62.9078 85.0608 63.4547 84.7416C65.167 83.6343 66.3064 83.3542 65.7595 83.0415ZM43.3696 77.661C41.6574 78.7683 40.518 79.0484 41.0584 79.3611C43.0116 80.3838 43.4608 81.0222 44.0077 80.703C45.72 79.5956 46.8593 79.3155 46.3189 79.0028C44.3658 77.9736 43.9165 77.3418 43.3696 77.661ZM80.3887 95.4441C80.558 95.3464 80.558 95.1835 80.3887 95.0858C78.4355 94.0696 77.9863 93.4248 77.4459 93.7439C75.7336 94.8513 74.5943 95.1314 75.1347 95.4441C77.0878 96.4603 77.5436 97.1051 78.084 96.786L80.3952 95.4441H80.3887ZM49.4245 73.5897C47.4713 72.5671 47.0221 71.9287 46.4752 72.2479C44.7434 73.3683 43.6236 73.6353 44.1705 73.948C46.1236 74.9707 46.5728 75.6091 47.1197 75.2899C48.832 74.1825 49.9714 73.9024 49.4245 73.5897ZM62.4912 81.1394C60.538 80.1232 60.0888 79.4784 59.5484 79.7975C57.9338 80.8398 56.6837 81.1785 57.2371 81.4977C59.1903 82.5204 59.6395 83.1588 60.1864 82.8396C61.9313 81.7127 63.0381 81.4521 62.4912 81.1394ZM69.0017 84.911C67.0486 83.9013 66.5928 83.2565 66.0524 83.5691C64.4378 84.6114 63.1943 84.9566 63.7477 85.2758C65.7009 86.292 66.1501 86.9303 66.697 86.6177C68.4028 85.5103 69.5486 85.2302 69.0017 84.911ZM52.6928 75.4788C50.7396 74.4496 50.2904 73.8177 49.7435 74.1304C48.0052 75.2573 46.8919 75.5244 47.4388 75.8371C49.3919 76.8597 49.8411 77.4981 50.388 77.1789C52.0938 76.0716 53.2331 75.7915 52.6928 75.4788ZM72.7909 94.6298C71.1567 95.6916 69.9327 96.0173 70.4861 96.3365C72.4393 97.3527 72.8885 97.991 73.4289 97.6784C75.1477 96.5645 76.287 96.2844 75.7402 95.9717C73.787 94.962 73.3312 94.3172 72.7909 94.6298ZM49.8997 81.4521C48.1875 82.5595 47.0481 82.8396 47.595 83.1522C49.5482 84.1814 49.9974 84.8133 50.5443 84.5006C52.2566 83.3867 53.3959 83.1066 52.849 82.794L50.5248 81.4521C50.4243 81.3996 50.3126 81.3722 50.1992 81.3722C50.0859 81.3722 49.9742 81.3996 49.8737 81.4521H49.8997ZM36.8331 80.1493C38.4672 79.0875 39.6912 78.7618 39.1378 78.4426C37.1846 77.433 36.7354 76.7881 36.1885 77.1008C34.4762 78.2147 33.3369 78.4882 33.8838 78.8074L36.208 80.1493C36.3085 80.2018 36.4202 80.2292 36.5336 80.2292C36.6469 80.2292 36.7586 80.2018 36.8591 80.1493H36.8331ZM59.7046 87.0802C57.9924 88.1875 56.853 88.4676 57.3934 88.7868C59.3466 89.8095 59.7958 90.4479 60.3427 90.1287C62.055 89.0213 63.1943 88.7412 62.6539 88.422L60.3231 87.0802C60.2272 87.032 60.1213 87.007 60.0139 87.007C59.9065 87.007 59.8006 87.032 59.7046 87.0802ZM56.4494 85.1911C54.7371 86.305 53.5977 86.5851 54.1446 86.8978C56.0978 87.9205 56.547 88.5588 57.0874 88.2396C58.8062 87.1323 59.939 86.8522 59.3987 86.5395L57.0744 85.1911C56.9739 85.1386 56.8622 85.1112 56.7489 85.1112C56.6355 85.1112 56.5238 85.1386 56.4233 85.1911H56.4494ZM33.5647 78.2537C35.2054 77.192 36.4229 76.8728 35.8695 76.5471C33.9163 75.5374 33.4671 74.8925 32.9267 75.2443C31.2079 76.3517 30.0686 76.6318 30.6155 76.9444L32.9397 78.2863C33.0402 78.3388 33.1519 78.3662 33.2653 78.3662C33.3786 78.3662 33.4903 78.3388 33.5908 78.2863L33.5647 78.2537ZM46.638 79.5565C44.9192 80.6704 43.7863 80.9505 44.3267 81.2632C46.2799 82.2859 46.7291 82.9242 47.276 82.6051C48.9883 81.4977 50.1276 81.2176 49.5807 80.8984L47.2565 79.5565C47.1563 79.5029 47.0445 79.4749 46.9309 79.4749C46.8174 79.4749 46.7055 79.5029 46.6054 79.5565H46.638ZM53.1485 83.3346C51.4362 84.442 50.2969 84.7221 50.8438 85.0348C52.7969 86.0575 53.2462 86.6958 53.7865 86.3766C55.5053 85.2693 56.6447 84.9892 56.0978 84.6765C54.1446 83.6538 53.6954 83.0154 53.1485 83.3346ZM40.0753 82.0318C41.7941 80.9179 42.9334 80.6378 42.3866 80.3252C40.4334 79.3025 39.9842 78.6641 39.4373 78.9833C37.725 80.0907 36.5856 80.3708 37.1325 80.69L39.4568 82.0318C39.5569 82.0854 39.6688 82.1135 39.7823 82.1135C39.8959 82.1135 40.0077 82.0854 40.1079 82.0318H40.0753ZM67.1788 94.0827C67.1419 94.0968 67.1102 94.1219 67.0879 94.1544C67.0655 94.187 67.0536 94.2256 67.0536 94.2651C67.0536 94.3046 67.0655 94.3431 67.0879 94.3757C67.1102 94.4083 67.1419 94.4333 67.1788 94.4474C69.1319 95.4636 69.5812 96.102 70.1281 95.7893C71.8403 94.6819 72.9797 94.4018 72.4328 94.0827C70.4796 93.073 70.0239 92.4281 69.4835 92.7408L67.1788 94.0827ZM45.6939 78.4492C47.6471 79.4523 48.0963 80.1037 48.6367 79.791C50.4141 78.6446 51.4948 78.397 50.9479 78.0844C48.9948 77.0747 48.5455 76.4233 48.0052 76.7425C46.2278 77.889 45.1535 78.13 45.6939 78.4492ZM58.7932 86.0119C60.7463 87.015 61.1956 87.6664 61.7425 87.3472C63.5133 86.2073 64.5941 85.9598 64.0472 85.6471C62.094 84.6309 61.6448 83.9925 61.1044 84.3052L58.7932 85.6471C58.7563 85.6613 58.7246 85.6863 58.7023 85.7189C58.6799 85.7514 58.668 85.79 58.668 85.8295C58.668 85.869 58.6799 85.9075 58.7023 85.9401C58.7246 85.9727 58.7563 85.9977 58.7932 86.0119ZM80.1087 94.721C82.0619 95.7502 82.5111 96.3821 83.058 96.0629C84.8224 94.923 85.9096 94.6754 85.3628 94.3628C83.4096 93.3531 82.9604 92.7017 82.42 93.0209L80.1087 94.3628C79.9395 94.4605 79.933 94.6233 80.1087 94.721ZM72.2961 86.8131C70.3429 85.7969 69.8937 85.1585 69.3468 85.4712C67.5824 86.6112 66.4952 86.8587 67.042 87.1779C68.9952 88.194 69.4444 88.8324 69.9913 88.4807C71.6971 87.3733 72.8364 87.0932 72.2961 86.7805V86.8131ZM75.3821 88.0312C77.0944 86.9303 78.2337 86.6437 77.6868 86.3311C75.7336 85.3149 75.2844 84.6765 74.744 84.9892C73.0187 86.1031 71.8924 86.3766 72.4393 86.6893L74.7636 88.0312C74.8625 88.0884 74.9748 88.1185 75.0891 88.1185C75.2034 88.1185 75.3157 88.0884 75.4146 88.0312H75.3821ZM55.5314 84.1228C57.4845 85.139 57.9338 85.7774 58.4742 85.4647C60.245 84.3182 61.3258 84.0772 60.7789 83.758C58.8257 82.7484 58.3765 82.1035 57.8361 82.4162L55.5249 83.758C55.488 83.7722 55.4563 83.7972 55.434 83.8298C55.4116 83.8624 55.3997 83.9009 55.3997 83.9404C55.3997 83.9799 55.4116 84.0185 55.434 84.0511C55.4563 84.0836 55.488 84.1086 55.5249 84.1228H55.5314ZM55.7788 76.7099C57.4911 75.6026 58.6304 75.3225 58.0835 75.0098C56.1304 73.9871 55.6876 73.3487 55.1407 73.6679C53.4154 74.7818 52.2891 75.0554 52.836 75.3681C54.7892 76.3907 55.2384 77.0226 55.7788 76.7099ZM42.4582 76.5731C44.4113 77.5893 44.8606 78.2277 45.4075 77.915C47.1197 76.8076 48.2591 76.5275 47.7122 76.2084C45.759 75.1922 45.3098 74.5538 44.7694 74.8665C42.9986 76.0129 41.9178 76.2605 42.4582 76.5731ZM62.0615 87.8944C64.0146 88.9106 64.4639 89.5555 65.0042 89.2363C66.7816 88.0963 67.8624 87.8488 67.3155 87.5361C65.3623 86.52 64.9131 85.8751 64.3727 86.1943L62.0615 87.5361C62.0239 87.5487 61.9913 87.5728 61.9682 87.6049C61.945 87.6371 61.9326 87.6757 61.9326 87.7153C61.9326 87.7549 61.945 87.7935 61.9682 87.8256C61.9913 87.8578 62.0239 87.8818 62.0615 87.8944ZM65.3167 89.7834C67.2699 90.7996 67.7191 91.438 68.2595 91.1253C70.0304 89.9789 71.1111 89.7379 70.5708 89.4187C68.6176 88.4025 68.1684 87.7641 67.628 88.0768L65.3167 89.4252C65.2792 89.4378 65.2466 89.4618 65.2234 89.494C65.2003 89.5261 65.1879 89.5647 65.1879 89.6043C65.1879 89.6439 65.2003 89.6825 65.2234 89.7147C65.2466 89.7468 65.2792 89.7709 65.3167 89.7834ZM48.9948 80.3317C50.9479 81.3479 51.3972 81.9928 51.9375 81.6736C53.7084 80.5336 54.7892 80.2861 54.2488 79.9734C52.2956 78.9572 51.8464 78.3124 51.2995 78.6315L48.9948 79.9734C48.819 80.0711 48.819 80.234 48.9948 80.3317ZM68.5981 91.6595C70.5512 92.6756 71.0005 93.314 71.5408 93.0013C73.3117 91.8549 74.3925 91.6074 73.8521 91.2947C71.8989 90.2785 71.4497 89.6401 70.9028 89.9528L68.5981 91.2947C68.4223 91.3989 68.4223 91.5618 68.5981 91.6595ZM78.6504 89.9202C80.3627 88.8129 81.502 88.5328 80.9551 88.2201C79.0019 87.1974 78.5527 86.559 78.0058 86.8782C76.287 87.9856 75.1607 88.2657 75.7011 88.5784C77.6543 89.6011 78.11 90.2329 78.6504 89.9202ZM86.3263 97.952C88.0907 96.812 89.1714 96.5645 88.6311 96.2518C86.6779 95.2356 86.2287 94.5908 85.6818 94.9099C83.9174 96.0499 82.8302 96.2974 83.377 96.6101C85.3302 97.6393 85.7794 98.2711 86.3263 97.952ZM75.5644 88.7021C73.6112 87.686 73.1555 87.0411 72.6151 87.3603C70.8507 88.5002 69.7635 88.7477 70.3103 89.0604C72.2635 90.0831 72.7127 90.7215 73.2531 90.4023C74.9654 89.2949 76.1047 89.0148 75.5644 88.7021ZM82.0749 92.4737C80.1218 91.451 79.679 90.8127 79.1322 91.1318C77.3678 92.2718 76.2805 92.5193 76.8209 92.8385C78.7741 93.8547 79.2233 94.493 79.7702 94.1413L82.0749 92.7994C82.2507 92.7017 82.2442 92.5389 82.0749 92.4411V92.4737ZM78.8196 90.5847C76.8665 89.5685 76.4173 88.9301 75.8769 89.2428C74.1125 90.3827 73.0252 90.6368 73.5721 90.9495C75.5253 91.9656 75.968 92.604 76.5149 92.2913C78.2272 91.184 79.3665 90.9039 78.8196 90.5847ZM67.2439 97.75C69.0147 96.6036 70.0955 96.356 69.5551 96.0434C67.602 95.0337 67.1527 94.3888 66.6124 94.7015C64.835 95.8479 63.7542 96.089 64.3011 96.4082L66.6254 97.75C66.7214 97.7982 66.8272 97.8232 66.9346 97.8232C67.042 97.8232 67.1479 97.7982 67.2439 97.75ZM85.1609 93.6853C86.8667 92.5779 88.006 92.2978 87.4657 91.9787C85.5125 90.969 85.0568 90.3241 84.5164 90.6368C82.7585 91.7767 81.6648 92.0243 82.2117 92.3434C84.1648 93.3661 84.6206 93.998 85.1609 93.6853ZM62.3154 80.475C64.0277 79.3676 65.167 79.0875 64.6201 78.7683C62.6669 77.7456 62.2177 77.1073 61.6708 77.4265C59.952 78.5404 58.8257 78.8139 59.3661 79.1266C61.3193 80.1558 61.775 80.7877 62.3154 80.475ZM72.0812 86.1356C73.7935 85.0283 74.9328 84.7482 74.3925 84.429C72.4393 83.4128 71.9836 82.7744 71.4432 83.0871C69.7179 84.201 68.5916 84.4746 69.1384 84.7938L71.4627 86.1356C71.5587 86.1838 71.6646 86.2088 71.772 86.2088C71.8793 86.2088 71.9852 86.1838 72.0812 86.1356ZM49.2487 72.9253C50.8828 71.8635 52.1068 71.5378 51.5469 71.2187C49.5937 70.209 49.1445 69.5641 48.6041 69.8768C46.8854 70.9907 45.7525 71.2643 46.2994 71.5769C48.2526 72.5996 48.7083 73.238 49.2487 72.9253ZM73.6633 101.417C75.4342 100.277 76.5149 100.03 75.968 99.7172C74.0149 98.7076 73.5721 98.0562 73.0252 98.3754C71.2544 99.5153 70.1736 99.7628 70.7205 100.076C72.6737 101.085 73.1164 101.737 73.6633 101.417ZM70.408 99.5283C72.1789 98.3884 73.2596 98.1409 72.7193 97.8282C70.7661 96.8055 70.3169 96.1671 69.77 96.4863C67.9991 97.6328 66.9183 97.8738 67.4652 98.193C69.4184 99.2092 69.8676 99.8475 70.408 99.5283ZM76.9186 103.306C78.6894 102.16 79.7702 101.919 79.2233 101.6C77.2701 100.597 76.8274 99.9452 76.2805 100.258C74.5097 101.404 73.4289 101.652 73.9693 101.965C75.9224 102.974 76.3717 103.626 76.9186 103.306ZM45.3358 67.9877C43.6171 69.1016 42.4907 69.3752 43.0311 69.6944C44.9843 70.7171 45.44 71.3489 45.9804 71.0363C47.621 69.9745 48.8385 69.6553 48.2851 69.3296C46.332 68.3134 45.8762 67.6751 45.3358 67.9877ZM81.9057 91.7963C83.6114 90.6889 84.7573 90.4088 84.2104 90.0961C82.2572 89.0799 81.8015 88.4351 81.2611 88.7477C79.5098 89.8877 78.4095 90.1352 78.9629 90.4544L81.2806 91.7963C81.3811 91.8488 81.4928 91.8762 81.6062 91.8762C81.7195 91.8762 81.8312 91.8488 81.9317 91.7963H81.9057ZM59.0471 78.586C60.7594 77.4786 61.8987 77.1985 61.3518 76.8858C59.3987 75.8566 58.9494 75.2247 58.409 75.5374C56.6838 76.6578 55.5574 76.9249 56.0978 77.2441C58.051 78.2668 58.5067 78.8986 59.0471 78.586ZM52.5365 74.8079C54.2423 73.707 55.3816 73.4204 54.8413 73.1077C52.8881 72.085 52.4389 71.4466 51.892 71.7658C50.1667 72.8797 49.0403 73.1533 49.5872 73.466C51.5404 74.4952 51.9961 75.127 52.5365 74.8079ZM65.6032 82.3575C67.309 81.2502 68.4548 80.9701 67.908 80.6574C65.9548 79.6347 65.5056 78.9963 64.9587 79.3155C63.2399 80.4294 62.107 80.703 62.6539 81.0157L64.9782 82.3575C65.0772 82.4147 65.1894 82.4448 65.3037 82.4448C65.418 82.4448 65.5303 82.4147 65.6293 82.3575H65.6032ZM68.8585 84.2466C70.5643 83.1392 71.7036 82.8591 71.1632 82.5464C69.2101 81.5172 68.7608 80.8854 68.2139 81.2046C66.4886 82.3185 65.3623 82.592 65.9092 82.9047L68.2335 84.2466C68.334 84.2991 68.4456 84.3265 68.559 84.3265C68.6724 84.3265 68.7841 84.2991 68.8845 84.2466H68.8585ZM52.2696 82.2207C54.2228 83.2434 54.6655 83.8818 55.2124 83.5626C56.9832 82.4162 58.064 82.1751 57.5236 81.8625C55.5704 80.8528 55.1212 80.2014 54.5743 80.5206C52.8035 81.6605 51.7227 81.9081 52.2696 82.2207Z" fill="url(#paint4_linear)"/>
<path d="M23.7074 73.0557L83.0643 107.345L68.4025 115.872C67.824 116.168 67.1836 116.322 66.534 116.322C65.8843 116.322 65.244 116.168 64.6654 115.872L9.05861 83.7516C8.02343 83.1523 8.01692 82.1817 9.05861 81.5824L23.7074 73.0557ZM52.4321 106.466L65.2123 99.0399C65.3242 99.0004 65.421 98.9273 65.4896 98.8304C65.5581 98.7336 65.5949 98.6179 65.5949 98.4992C65.5949 98.3806 65.5581 98.2648 65.4896 98.168C65.421 98.0712 65.3242 97.998 65.2123 97.9585L39.9643 83.4064C39.6745 83.2603 39.3545 83.1842 39.0301 83.1842C38.7056 83.1842 38.3856 83.2603 38.0958 83.4064L25.322 90.8062C25.2102 90.8456 25.1133 90.9188 25.0448 91.0157C24.9763 91.1125 24.9395 91.2282 24.9395 91.3469C24.9395 91.4655 24.9763 91.5813 25.0448 91.6781C25.1133 91.7749 25.2102 91.8481 25.322 91.8875L50.57 106.466C50.8582 106.613 51.1773 106.69 51.5011 106.69C51.8248 106.69 52.1439 106.613 52.4321 106.466Z" fill="url(#paint5_linear)"/>
<path d="M83.0637 107.347V108.812C102.543 97.2564 103.246 97.5887 103.246 96.4357V94.9961C103.253 96.123 102.53 95.7843 83.0637 107.347Z" fill="url(#paint6_linear)"/>
<path d="M67.471 116.413C66.8913 116.708 66.2498 116.862 65.5992 116.862C64.9485 116.862 64.3071 116.708 63.7274 116.413C5.61406 82.5921 7.34587 84.4291 7.34587 83.1914C7.46957 84.2597 6.94873 85.0479 8.12063 85.7253L63.7274 117.846C65.8368 119.064 67.8746 117.585 67.9332 117.572L68.7926 117.071L83.0573 108.811V107.371L67.471 116.413Z" fill="url(#paint7_linear)"/>
<path d="M103 50.3934C103.548 50.7487 104.004 51.2294 104.33 51.7957C104.656 52.3619 104.843 52.9976 104.875 53.6503L104.758 93.0924C104.758 94.2844 103.912 94.7665 102.876 94.1672L47.2695 62.0273C46.723 61.6712 46.2691 61.1901 45.9454 60.6238C45.6216 60.0574 45.4372 59.4221 45.4075 58.7703L45.5181 19.3218C45.5181 18.1297 46.358 17.6542 47.3932 18.247L103 50.3934ZM103.195 92.2325C103.195 50.9275 103.612 52.6081 103 52.2498C44.3202 18.5205 47.0807 19.5693 47.0742 20.3054C47.0742 61.6169 46.6575 59.9363 47.276 60.2881C105.956 94.0173 103.195 92.9491 103.195 92.2065V92.2325Z" fill="url(#paint8_linear)"/>
<path d="M103.305 52.7904C103.044 93.9586 103.5 92.7665 102.882 92.4148C44.0714 58.2686 46.9621 60.4638 46.9621 59.7538C47.2291 18.5791 46.7733 19.7711 47.3918 20.1294C106.202 54.269 103.311 52.0738 103.305 52.7904Z" fill="#F8F8F8"/>
<path d="M103.623 50.0295C45.2953 16.5868 47.7368 17.1665 46.6821 17.7788L46.031 18.1371C47.0532 17.5443 44.4685 16.8343 102.966 50.3942C103.514 50.7496 103.97 51.2303 104.296 51.7965C104.622 52.3628 104.809 52.9985 104.841 53.6512C104.515 94.4286 105.199 93.7056 104.19 94.2983C104.535 94.0117 105.355 93.9661 105.362 92.735L105.472 53.2929C105.444 52.6416 105.261 52.0063 104.94 51.439C104.618 50.8718 104.167 50.3888 103.623 50.0295Z" fill="#0058E5"/>
<path d="M91.9899 37.5793V101.846C91.9899 102.159 91.7946 102.309 91.5537 102.172L43.3232 74.3507C43.1903 74.257 43.0815 74.1333 43.0057 73.9895C42.9299 73.8457 42.8892 73.686 42.887 73.5234V9.50415" fill="#F9FAFB"/>
<path d="M87.2956 91.5684L47.9914 68.7695C47.8886 68.6943 47.8046 68.5964 47.7459 68.4835C47.6872 68.3705 47.6553 68.2454 47.6528 68.1181V20.9114C47.6528 20.6574 47.8026 20.5401 47.9914 20.6509L87.2956 43.4497C87.3983 43.5249 87.4823 43.6228 87.5411 43.7358C87.5998 43.8488 87.6316 43.9738 87.6342 44.1011V91.3208C87.6342 91.5619 87.4844 91.6791 87.2956 91.5684Z" fill="#F9FAFB"/>
<path d="M67.5358 33.4318C67.5358 33.4318 63.675 31.0607 62.7635 36.3174C62.451 38.0306 63.6815 40.063 62.9523 41.0726C62.2231 42.0823 60.003 42.3754 60.6931 44.7726C61.3833 47.1697 58.74 47.5345 59.9314 50.9152C61.1229 54.296 74.0074 61.1226 75.0425 59.9566C76.0777 58.7906 75.6936 55.3186 74.7756 53.3905C73.8837 51.5666 74.4371 49.6189 74.6259 48.707C75.01 46.8375 73.8185 44.9289 73.0959 43.4958C72.3732 42.0628 72.1388 36.1807 67.5358 33.4318Z" fill="#3D3300"/>
<path d="M63.1683 45.9174C63.4953 45.8557 63.8309 45.8557 64.1579 45.9174L65.8832 46.217H66.0199H66.072H66.1176L67.7452 46.5036L69.3794 47.9041V48.093L69.464 48.1777L69.6984 48.4057L71.3195 49.9951C71.7001 50.3667 72.0486 50.7698 72.3612 51.2002C73.9273 53.3025 74.8092 55.8359 74.8873 58.4568V61.2578C74.8873 61.5639 74.705 61.7007 74.4772 61.5704L61.0003 53.7537C60.875 53.6651 60.7725 53.5481 60.7012 53.4122C60.6299 53.2763 60.5918 53.1255 60.5901 52.972V50.2687C60.5966 47.8064 61.6057 46.1714 63.1683 45.9174Z" fill="url(#paint9_linear)"/>
<path d="M63.773 38.9369C63.8186 38.4158 64.2223 38.7415 64.3264 38.8392C64.3264 38.6633 64.3264 38.494 64.3264 38.3181C64.3264 35.4194 65.863 33.9537 67.7576 35.0611C69.6522 36.1685 71.1888 39.3994 71.1888 42.2981C71.1888 42.4675 71.1888 42.6369 71.1888 42.7997C71.3539 42.8431 71.4999 42.9403 71.6036 43.076C71.7074 43.2116 71.763 43.378 71.7617 43.5488C71.8138 44.2002 71.0586 45.0666 70.7526 44.6562C70.6383 44.9432 70.4625 45.2017 70.2375 45.4133C70.0125 45.6249 69.7438 45.7845 69.4504 45.8808V48.1737C68.4803 48.5515 67.1651 47.7959 66.195 46.2977V43.9787C65.6231 43.1274 65.184 42.1939 64.8929 41.2103C64.4632 41.2429 63.7144 39.5362 63.773 38.9369Z" fill="#FFD199"/>
<path d="M66.8258 36.0974C67.539 37.8945 68.4823 39.5914 69.6318 41.1457C69.9964 41.6017 71.1553 42.7872 71.1553 42.7872C71.6261 42.2789 71.9342 41.6413 72.0398 40.9564C72.1454 40.2715 72.0437 39.5706 71.7478 38.944C70.4912 35.8759 69.0719 34.2996 67.8414 33.5961C66.2268 32.6971 64.8726 33.2573 64.4624 33.9999C63.7398 35.3027 64.3387 39.2111 64.3387 39.2111C64.4359 38.5166 64.5861 37.8307 64.788 37.1592C65.0289 36.5794 66.8258 36.0974 66.8258 36.0974Z" fill="#3D3300"/>
<path d="M53.2585 55.6328C53.1803 55.6328 53.2129 55.6328 52.5159 56.0236C52.6071 55.9715 53.5255 56.4601 53.6102 56.4145L54.2616 56.0236C54.2356 56.0497 54.2095 56.0106 53.2585 55.6328Z" fill="#FF8C00"/>
<path d="M55.8628 58.144C54.9704 58.8345 55.0941 58.0007 55.3091 59.8181C55.3091 59.8768 55.3091 59.9158 55.3091 59.9289C55.9605 59.5185 56.0321 59.5771 56.0126 59.4273C55.9151 59.0065 55.8648 58.576 55.8628 58.144Z" fill="#FF8C00"/>
<path d="M55.4 56.6226C54.749 54.8768 55.1136 55.0657 54.0979 55.6194C54.2867 55.5087 54.4039 56.108 54.749 57.0134C54.8466 57.3 56.2399 57.9579 55.8623 58.1664L56.5133 57.7755C56.8845 57.5736 55.4977 56.9157 55.4 56.6226Z" fill="#FF8C00"/>
<path d="M54.3143 55.7855C54.9653 57.6876 54.4445 56.743 55.7792 57.8504C56.3 58.2413 55.0956 58.365 55.1281 58.6451C55.1867 59.4203 55.4341 60.0782 55.1281 59.9479C54.9914 59.8698 54.2492 58.821 54.0994 58.821C52.6931 58.821 53.0902 59.0034 53.227 57.5833C53.227 57.4531 53.1618 57.4205 52.5043 56.2805C52.1917 55.7529 53.2139 56.3587 53.5265 56.4499C53.6502 56.4955 53.6176 56.3783 54.0473 55.6813C54.0994 55.6031 54.2752 55.6552 54.3143 55.7855Z" fill="#FFC033"/>
<path d="M58.831 59.0906C58.7463 59.0906 58.7789 59.0906 58.0884 59.4814C58.1796 59.4293 59.0915 59.9179 59.1827 59.8657L59.8341 59.4814C59.769 59.514 59.769 59.4619 58.831 59.0906Z" fill="#FF8C00"/>
<path d="M61.3913 61.6055C60.5054 62.2569 60.6292 61.4622 60.8442 63.2796C60.8495 63.2998 60.8487 63.3212 60.8417 63.341C60.8347 63.3607 60.822 63.3779 60.8051 63.3903C61.4565 62.9799 61.5346 63.0385 61.5151 62.8887C61.4298 62.4664 61.3883 62.0363 61.3913 61.6055Z" fill="#FF8C00"/>
<path d="M60.9603 60.0806C60.3092 58.3348 60.6673 58.5237 59.6582 59.0774C59.847 58.9667 59.9642 59.566 60.3092 60.4649C60.4069 60.758 61.8001 61.4159 61.429 61.6179L62.0801 61.2335C62.4447 61.0316 61.071 60.3737 60.9603 60.0806Z" fill="#FF8C00"/>
<path d="M59.8731 59.2396C60.5242 61.1482 60.0034 60.2037 61.3316 61.311C61.8524 61.6953 60.6479 61.8256 60.6805 62.1057C60.7391 62.8809 60.98 63.5388 60.6805 63.4085C60.5503 63.3303 59.8015 62.2816 59.6518 62.2816C58.252 62.2816 58.6491 62.464 58.7793 61.0439C58.7793 60.9137 58.7207 60.8811 58.0632 59.7412C57.7506 59.2135 58.7663 59.8193 59.0788 59.904C59.2025 59.9561 59.1765 59.8389 59.6062 59.1419C59.6583 59.0572 59.8276 59.1158 59.8731 59.2396Z" fill="#FFC033"/>
<path d="M64.3854 61.8596C64.3072 61.8596 64.3398 61.8596 63.6428 62.2505C63.734 62.1918 64.6525 62.6869 64.7372 62.6348L65.3886 62.2439C65.3495 62.283 65.3234 62.2309 64.3854 61.8596Z" fill="#FF8C00"/>
<path d="M66.9316 64.3672C66.0392 65.0577 66.163 64.2304 66.3779 66.0413C66.3831 66.062 66.3828 66.0836 66.3771 66.1042C66.3714 66.1247 66.3604 66.1434 66.3454 66.1585C66.9968 65.7481 67.0684 65.8003 67.0489 65.657C66.9623 65.2327 66.923 64.8001 66.9316 64.3672Z" fill="#FF8C00"/>
<path d="M66.5142 62.843C65.8632 61.1038 66.2278 61.2927 65.2122 61.8464C65.401 61.7357 65.5181 62.335 65.8632 63.2339C65.9608 63.527 67.3541 64.1784 66.9765 64.3868L67.6275 63.996C67.9986 63.7941 66.6119 63.1362 66.5142 62.843Z" fill="#FF8C00"/>
<path d="M65.427 62.0072C66.0781 63.9158 65.5572 62.9713 66.8919 64.0787C67.4127 64.463 66.2018 64.5933 66.2408 64.8669C66.2994 65.642 66.5403 66.3064 66.2408 66.1697C66.1041 66.0915 65.3554 65.0427 65.2121 65.0492C63.8059 65.0492 64.203 65.2316 64.3332 63.8116C64.3332 63.6813 64.2746 63.6422 63.6171 62.5088C63.3045 61.9747 64.3267 62.587 64.6392 62.6716C64.7629 62.7238 64.7304 62.6065 65.1601 61.9095C65.2121 61.8248 65.3879 61.9095 65.427 62.0072Z" fill="#FFC033"/>
<path d="M70.0885 65.094C70.0038 65.0549 70.0363 65.094 69.3394 65.4783C69.4306 65.4262 70.349 65.9148 70.4337 65.8692L71.0851 65.4783C71.046 65.5109 71.02 65.4653 70.0885 65.094Z" fill="#FF8C00"/>
<path d="M72.6481 67.6047C71.7622 68.2952 71.8794 67.4614 72.0944 69.2788C72.0944 69.3375 72.0944 69.3765 72.0618 69.3896C72.7132 68.9792 72.7849 69.0378 72.7653 68.888C72.6787 68.4659 72.6394 68.0355 72.6481 67.6047Z" fill="#FF8C00"/>
<path d="M72.2115 66.0796C71.5605 64.3339 71.925 64.5228 70.9094 65.0764C71.1047 64.9657 71.2154 65.565 71.5605 66.4704C71.6581 66.7571 73.0513 67.415 72.6737 67.6234L73.3248 67.2326C73.6958 67.0306 72.3157 66.3727 72.2115 66.0796Z" fill="#FF8C00"/>
<path d="M71.1238 65.2425C71.7749 67.1446 71.2606 66.2001 72.5887 67.3074C73.1096 67.6983 71.9377 67.822 71.9377 68.1021C71.9963 68.8773 72.2437 69.5352 71.9377 69.4049C71.8009 69.3267 71.0587 68.278 70.909 68.278C69.5027 68.3106 69.9063 68.4604 70.0365 67.0403C70.0365 66.9101 69.9714 66.8775 69.3139 65.7376C69.0079 65.2099 70.0235 65.8222 70.336 65.9069C70.4597 65.9525 70.4272 65.8353 70.8569 65.1383C70.909 65.0601 71.0848 65.1122 71.1238 65.2425Z" fill="#FFC033"/>
<path d="M75.8051 68.0977C75.7269 68.0977 75.7595 68.0977 75.0625 68.4885C75.1537 68.4299 76.0657 68.9249 76.1568 68.8728L76.8082 68.482C76.7692 68.5211 76.7366 68.469 75.8051 68.0977Z" fill="#FF8C00"/>
<path d="M78.363 70.6052C77.4771 71.2957 77.6009 70.4684 77.8158 72.2793C77.8158 72.3401 77.8028 72.3792 77.7768 72.3966C78.4282 71.9862 78.5063 72.0383 78.4868 71.895C78.4012 71.4705 78.3597 71.0383 78.363 70.6052Z" fill="#FF8C00"/>
<path d="M77.9333 69.0757C77.2822 67.3299 77.6468 67.5189 76.6311 68.0725C76.8199 67.9618 76.9371 68.5611 77.2822 69.46C77.3799 69.7531 78.7732 70.4045 78.4021 70.613L79.0532 70.2221C79.4178 70.0332 78.031 69.3753 77.9333 69.0757Z" fill="#FF8C00"/>
<path d="M76.8467 68.2481C77.4978 70.1567 76.9769 69.2122 78.3116 70.3195C78.8259 70.7039 77.6215 70.8342 77.6605 71.1077C77.7191 71.8894 77.96 72.5473 77.6605 72.4105C77.5238 72.3324 76.7751 71.2836 76.6318 71.2901C75.2256 71.2901 75.6227 71.4725 75.7529 70.0525C75.7529 69.9222 75.6943 69.8831 75.0367 68.7497C74.7242 68.2155 75.7464 68.8278 76.0524 68.9125C76.1826 68.9646 76.1501 68.8474 76.5798 68.1504C76.6318 68.0657 76.8011 68.1178 76.8467 68.2481Z" fill="#FFC033"/>
<path d="M91.9124 37.8693V102.162L93.4749 100.898C93.6087 100.817 93.7191 100.702 93.7955 100.565C93.8719 100.428 93.9117 100.273 93.9111 100.117V36.4492" fill="#CEEEF4"/>
<path d="M93.9109 36.741V28.4617C93.9111 28.4341 93.9041 28.407 93.8905 28.383C93.8769 28.3591 93.8572 28.3391 93.8334 28.3253C93.8096 28.3114 93.7825 28.304 93.755 28.304C93.7274 28.3039 93.7004 28.3111 93.6765 28.3249L91.9121 29.4323V37.9005" fill="#000BDE"/>
<path d="M93.7538 28.689L91.9373 29.7377C91.8589 29.7822 91.7703 29.8057 91.6801 29.8057C91.59 29.8057 91.5014 29.7822 91.423 29.7377L43.0168 1.33035V1.28475L44.97 0.131778C45.1195 0.0454488 45.289 0 45.4616 0C45.6341 0 45.8037 0.0454488 45.9531 0.131778L93.7212 28.1418C93.7756 28.1621 93.8229 28.1977 93.8574 28.2444C93.8919 28.2911 93.9122 28.3468 93.9156 28.4048C93.9191 28.4627 93.9056 28.5205 93.8769 28.5709C93.8481 28.6214 93.8054 28.6624 93.7538 28.689Z" fill="url(#paint10_linear)"/>
<path d="M42.887 9.79854V1.64306C42.887 1.32387 43.0823 1.18057 43.3232 1.31736L91.5016 29.1385C91.6316 29.2329 91.7381 29.3561 91.8126 29.4985C91.8871 29.6408 91.9278 29.7985 91.9313 29.9592V37.8672" fill="url(#paint11_linear)"/>
<path d="M47.7348 9.83246C48.2512 9.61263 48.3559 8.69638 47.9687 7.78596C47.5815 6.87554 46.8491 6.31571 46.3327 6.53554C45.8163 6.75538 45.7116 7.67163 46.0988 8.58205C46.4859 9.49247 47.2184 10.0523 47.7348 9.83246Z" fill="white"/>
<path d="M52.0429 12.3215C52.5593 12.1016 52.664 11.1854 52.2768 10.275C51.8897 9.36457 51.1572 8.80474 50.6408 9.02457C50.1244 9.2444 50.0197 10.1606 50.4069 11.0711C50.7941 11.9815 51.5266 12.5413 52.0429 12.3215Z" fill="white"/>
<path d="M56.3598 14.8168C56.8762 14.597 56.9809 13.6808 56.5937 12.7703C56.2065 11.8599 55.4741 11.3001 54.9577 11.5199C54.4413 11.7398 54.3366 12.656 54.7238 13.5664C55.111 14.4768 55.8435 15.0367 56.3598 14.8168Z" fill="white"/>
<path d="M50.719 64.9463L81.5726 82.7555C81.8591 82.9183 82.1 82.7555 82.1 82.3516C82.0933 82.1555 82.0424 81.9634 81.951 81.7896C81.8597 81.6159 81.7304 81.4651 81.5726 81.3485L50.719 63.5458C50.426 63.3765 50.1917 63.5458 50.1917 63.9432C50.1944 64.1401 50.2436 64.3336 50.3352 64.5079C50.4269 64.6823 50.5584 64.8325 50.719 64.9463Z" fill="#A4D4FC"/>
<path d="M50.719 69.6482L81.5726 87.4703C81.8591 87.6397 82.1 87.4703 82.1 87.073C82.0942 86.8757 82.0438 86.6823 81.9524 86.5074C81.8611 86.3325 81.7312 86.1807 81.5726 86.0633L50.719 68.2411C50.426 68.0718 50.1917 68.2411 50.1917 68.6385C50.1939 68.8364 50.2428 69.0311 50.3345 69.2065C50.4261 69.382 50.5579 69.5333 50.719 69.6482Z" fill="#A4D4FC"/>
<path d="M103.109 73.1266L100.857 74.4294C101.15 74.2535 104.223 75.9146 104.542 75.7322L106.794 74.4294C106.495 74.5988 103.422 72.9442 103.109 73.1266Z" fill="#FF8C00"/>
<path d="M111.977 81.5698C109.809 82.9378 109.535 82.7554 109.6 83.2635C110.043 87.022 110.304 87.4129 110.011 87.5887C112.218 86.2143 112.446 86.3902 112.38 85.8951C111.944 82.2408 111.677 81.7457 111.977 81.5698Z" fill="#FF8C00"/>
<path d="M114.034 79.2894L110.863 76.9314C110.16 76.3972 109.561 72.2739 108.715 71.8049C108.37 71.603 108.448 71.8049 106.111 73.1077C106.365 72.9644 106.723 73.3422 106.834 73.6679C109.112 80.0515 107.27 76.9248 111.749 80.6313C112.127 80.9049 112.27 81.5172 112.003 81.667L114.249 80.3642C114.548 80.1492 114.405 79.5695 114.034 79.2894Z" fill="#FF8C00"/>
<path d="M106.866 73.6346C109.145 80.0183 107.296 76.8916 111.781 80.5981C112.159 80.8716 112.302 81.4839 112.035 81.6338C109.919 82.8779 109.529 82.7281 109.6 83.2623L110.134 87.2032C110.18 87.568 109.946 87.7048 109.685 87.555C109.425 87.4052 109.555 87.4508 106.645 84.0179C106.54 83.8858 106.388 83.7994 106.221 83.7769C103.22 83.8355 103.37 83.9072 103.168 83.7769C103.025 83.6858 102.908 83.5581 102.83 83.407C102.752 83.2559 102.716 83.0868 102.725 82.917C103.175 77.8882 104.34 81.256 100.863 75.1654C100.596 74.7094 100.746 74.2665 101.117 74.4228L104.288 75.7256C104.705 75.8884 104.581 75.5432 106.059 73.12C106.137 73.0223 106.716 73.1982 106.866 73.6346Z" fill="#FFC033"/>
<path d="M29 16.176C28.7331 16.0652 28.8698 16.1434 26.4934 17.4787C26.8059 17.3029 29.8855 18.9574 30.1785 18.7815L32.4312 17.4787C32.2358 17.6155 32.2619 17.4787 29 16.176Z" fill="#FF8C00"/>
<path d="M37.6327 24.6172L35.38 25.92C35.0805 26.0959 35.3345 26.4541 35.7837 30.2452C35.7837 30.4407 35.7837 30.5709 35.66 30.623C37.867 29.2486 38.1014 29.431 38.0363 28.9359C38.0168 28.9424 37.3071 24.78 37.6327 24.6172Z" fill="#FF8C00"/>
<path d="M39.6711 22.3356C35.1788 18.5966 37.0278 21.7494 34.7556 15.3722C34.6384 15.0465 34.2738 14.6687 34.0264 14.812L31.7803 16.1148C32.0342 15.965 32.3923 16.3493 32.503 16.675C34.7817 23.0587 32.9327 19.8994 37.4185 23.6384C37.7896 23.912 37.9393 24.5243 37.6659 24.6676L39.9185 23.3648C40.1855 23.2215 40.0422 22.6092 39.6711 22.3356Z" fill="#FF8C00"/>
<path d="M32.5027 16.6833C34.7814 23.0604 32.9324 19.9077 37.4182 23.6467C37.7893 23.9203 37.939 24.5326 37.6721 24.6759C35.5496 25.9266 35.1655 25.7768 35.2371 26.3044L35.7645 30.2519C35.8166 30.6167 35.5822 30.7534 35.3152 30.6036C35.0483 30.4538 35.1915 30.4929 32.2748 27.0665C32.227 26.9985 32.1649 26.9417 32.093 26.9001C32.021 26.8585 31.9409 26.8331 31.8581 26.8255C28.8502 26.8776 29.0065 26.9558 28.8046 26.8255C28.6612 26.7329 28.5447 26.604 28.4669 26.4519C28.3892 26.2997 28.353 26.1298 28.3619 25.9592C28.8111 20.9369 29.9765 24.3046 26.4999 18.2141C26.2264 17.7516 26.3762 17.3151 26.7473 17.4715L29.9245 18.7743C30.3411 18.9436 30.2174 18.5984 31.6888 16.2078C31.7735 16.0644 32.3529 16.2468 32.5027 16.6833Z" fill="#FFC033"/>
<path d="M102.394 38.4926C102.244 38.434 102.322 38.4926 100.988 39.2222C101.164 39.1245 102.889 40.0495 103.058 39.9583L104.315 39.2222C104.204 39.2873 104.198 39.2092 102.394 38.4926Z" fill="#FF8C00"/>
<path d="M107.225 43.2305C106.046 43.9665 105.851 43.8819 105.922 44.175C106.17 46.292 106.313 46.507 106.15 46.6047C107.395 45.8295 107.518 45.9533 107.486 45.6537C107.193 43.491 107.062 43.3282 107.225 43.2305Z" fill="#FF8C00"/>
<path d="M108.377 41.95L106.599 40.6473C106.163 40.3216 105.759 37.4359 105.213 37.7551L103.949 38.4586C104.49 38.1459 104.907 41.0251 105.336 41.3508L107.114 42.6535C107.322 42.8099 107.407 43.1486 107.257 43.2333L108.513 42.5037C108.67 42.4451 108.598 42.0999 108.377 41.95Z" fill="#FF8C00"/>
<path d="M104.36 38.7792C105.662 42.3749 104.594 40.5705 107.114 42.6875C107.322 42.8439 107.407 43.1826 107.257 43.2673C106.007 44.0033 105.851 43.9187 105.89 44.1792C106.007 45.6839 106.463 46.8955 105.936 46.5894C105.682 46.4395 104.275 44.4658 103.982 44.4723C102.309 44.4723 102.381 44.544 102.27 44.4723C101.749 44.1727 102.205 43.4692 102.329 42.1273C102.374 41.8798 102.198 41.7821 100.975 39.6455C100.825 39.385 100.909 39.1374 101.118 39.2286C103.65 40.0233 102.583 40.6356 103.891 38.5121C103.95 38.46 104.275 38.5316 104.36 38.7792Z" fill="#FFC033"/>
<defs>
<linearGradient id="paint0_linear" x1="13.0371" y1="17.2743" x2="16.9571" y2="37.5393" gradientUnits="userSpaceOnUse">
<stop stop-color="#F4F4F4"/>
<stop offset="1" stop-color="#E8E8E8"/>
</linearGradient>
<linearGradient id="paint1_linear" x1="11.0178" y1="44.9212" x2="22.1054" y2="44.9212" gradientUnits="userSpaceOnUse">
<stop stop-color="#FF633D"/>
<stop offset="1" stop-color="#C21D08"/>
</linearGradient>
<linearGradient id="paint2_linear" x1="16.5647" y1="40.3419" x2="17.8293" y2="40.3419" gradientUnits="userSpaceOnUse">
<stop stop-color="#00C995"/>
<stop offset="0.25" stop-color="#05C899"/>
<stop offset="0.54" stop-color="#12C6A6"/>
<stop offset="0.84" stop-color="#29C3BB"/>
<stop offset="1" stop-color="#38C1C9"/>
</linearGradient>
<linearGradient id="paint3_linear" x1="77.8749" y1="165.063" x2="89.8567" y2="165.063" gradientUnits="userSpaceOnUse">
<stop stop-color="#00C995"/>
<stop offset="0.25" stop-color="#05C899"/>
<stop offset="0.54" stop-color="#12C6A6"/>
<stop offset="0.84" stop-color="#29C3BB"/>
<stop offset="1" stop-color="#38C1C9"/>
</linearGradient>
<linearGradient id="paint4_linear" x1="23.7078" y1="84.3313" x2="103.254" y2="84.3313" gradientUnits="userSpaceOnUse">
<stop stop-color="#BDF3FF"/>
<stop offset="1" stop-color="#4BD8FB"/>
</linearGradient>
<linearGradient id="paint5_linear" x1="913.173" y1="5528.47" x2="7980.86" y2="9735.12" gradientUnits="userSpaceOnUse">
<stop stop-color="#BDF3FF"/>
<stop offset="1" stop-color="#4BD8FB"/>
</linearGradient>
<linearGradient id="paint6_linear" x1="83.0572" y1="101.881" x2="103.253" y2="101.881" gradientUnits="userSpaceOnUse">
<stop stop-color="#00AED6"/>
<stop offset="1" stop-color="#008BEA"/>
</linearGradient>
<linearGradient id="paint7_linear" x1="799.402" y1="5516.85" x2="9607.56" y2="5516.85" gradientUnits="userSpaceOnUse">
<stop stop-color="#00AED6"/>
<stop offset="1" stop-color="#008BEA"/>
</linearGradient>
<linearGradient id="paint8_linear" x1="4145.11" y1="6610.31" x2="9576.88" y2="6610.31" gradientUnits="userSpaceOnUse">
<stop stop-color="#00AED6"/>
<stop offset="1" stop-color="#008BEA"/>
</linearGradient>
<linearGradient id="paint9_linear" x1="59.392" y1="42.2862" x2="73.7564" y2="42.2862" gradientUnits="userSpaceOnUse">
<stop stop-color="#7A8BFA"/>
<stop offset="1" stop-color="#4352B5"/>
</linearGradient>
<linearGradient id="paint10_linear" x1="42.9973" y1="14.925" x2="93.9035" y2="14.925" gradientUnits="userSpaceOnUse">
<stop stop-color="#0058E5"/>
<stop offset="1" stop-color="#000BDE"/>
</linearGradient>
<linearGradient id="paint11_linear" x1="42.887" y1="19.5695" x2="91.9117" y2="19.5695" gradientUnits="userSpaceOnUse">
<stop stop-color="#0072E7"/>
<stop offset="1" stop-color="#0025E0"/>
</linearGradient>
</defs>
</svg>
