<svg width="24" height="24" viewBox="0 0 24 24" fill="none" xmlns="http://www.w3.org/2000/svg">
<path d="M22.3647 8.9882C22.3682 9.05145 22.3636 9.11582 22.3481 9.17976L20.9602 14.8516C20.8902 15.1374 20.6396 15.3383 20.3514 15.3398L12.0243 15.3828H3.69393C3.40424 15.3828 3.15182 15.1812 3.08184 14.894L1.69399 9.20064C1.67801 9.13498 1.67338 9.06881 1.67742 9.00393C1.14053 8.83111 0.75 8.31781 0.75 7.71289C0.75 6.96652 1.34425 6.35938 2.07477 6.35938C2.80528 6.35938 3.39953 6.96652 3.39953 7.71289C3.39953 8.13321 3.21104 8.50927 2.91589 8.75772L4.65348 10.5464C5.09263 10.9985 5.70202 11.2577 6.32546 11.2577C7.06262 11.2577 7.76546 10.9001 8.20806 10.3008L11.0637 6.435C10.8238 6.19008 10.6752 5.85166 10.6752 5.47852C10.6752 4.73215 11.2695 4.125 12 4.125C12.7305 4.125 13.3248 4.73215 13.3248 5.47852C13.3248 5.84048 13.1841 6.16902 12.9568 6.41214L12.9592 6.41515L15.7941 10.2916C16.2366 10.8966 16.9419 11.2578 17.6812 11.2578C18.3103 11.2578 18.902 11.0075 19.3469 10.5529L21.0954 8.7664C20.794 8.51804 20.6005 8.13837 20.6005 7.71289C20.6005 6.96652 21.1947 6.35938 21.9252 6.35938C22.6557 6.35938 23.25 6.96652 23.25 7.71289C23.25 8.30165 22.8795 8.80241 22.3647 8.9882ZM20.8248 17.4023C20.8248 17.0464 20.5423 16.7578 20.194 16.7578H3.8762C3.5278 16.7578 3.24535 17.0464 3.24535 17.4023V18.9492C3.24535 19.3052 3.5278 19.5938 3.8762 19.5938H20.194C20.5423 19.5938 20.8248 19.3052 20.8248 18.9492V17.4023Z" fill="url(#paint0_linear_30084_22564)"/>
<defs>
<linearGradient id="paint0_linear_30084_22564" x1="8.55524" y1="5.5974" x2="11.5527" y2="21.2776" gradientUnits="userSpaceOnUse">
<stop stop-color="#FFD907"/>
<stop offset="1" stop-color="#FFAE00"/>
</linearGradient>
</defs>
</svg>
